<ttFont>
    <TTGlyph name=".notAccess" xMin="11" yMin="0" xMax="542" yMax="533">
      <contour>
        <pt x="274" y="450" on="1"/>
        <pt x="174" y="205" on="1"/>
        <pt x="375" y="205" on="1"/>
      </contour>
      <contour>
        <pt x="464" y="0" on="1"/>
        <pt x="406" y="142" on="1"/>
        <pt x="145" y="142" on="1"/>
        <pt x="87" y="0" on="1"/>
        <pt x="11" y="0" on="1"/>
        <pt x="234" y="533" on="1"/>
        <pt x="316" y="533" on="1"/>
        <pt x="542" y="0" on="1"/>
      </contour>
    </TTGlyph>
    <TTGlyph name=".notdef" xMin="100" yMin="0" xMax="1300" yMax="1800">
      <contour>
        <pt x="150" y="50" on="1"/>
        <pt x="1250" y="50" on="1"/>
        <pt x="1250" y="1750" on="1"/>
        <pt x="150" y="1750" on="1"/>
      </contour>
      <contour>
        <pt x="100" y="1800" on="1"/>
        <pt x="1300" y="1800" on="1"/>
        <pt x="1300" y="0" on="1"/>
        <pt x="100" y="0" on="1"/>
      </contour>
    </TTGlyph>
    <TTGlyph name="A" xMin="0" yMin="0" xMax="1198" yMax="1317">
      <contour>
        <pt x="758" y="535" on="1"/>
        <pt x="582" y="1049" on="1"/>
        <pt x="411" y="535" on="1"/>
      </contour>
      <contour>
        <pt x="381" y="445" on="1"/>
        <pt x="270" y="111" on="1"/>
        <pt x="260" y="80" on="0"/>
        <pt x="334" y="52" on="0"/>
        <pt x="416" y="43" on="1"/>
        <pt x="416" y="0" on="1"/>
        <pt x="0" y="0" on="1"/>
        <pt x="0" y="43" on="1"/>
        <pt x="68" y="55" on="0"/>
        <pt x="148" y="81" on="0"/>
        <pt x="158" y="111" on="1"/>
        <pt x="530" y="1237" on="1"/>
        <pt x="553" y="1262" on="0"/>
        <pt x="621" y="1303" on="0"/>
        <pt x="647" y="1317" on="1"/>
        <pt x="1067" y="111" on="1"/>
        <pt x="1072" y="97" on="0"/>
        <pt x="1090" y="75" on="0"/>
        <pt x="1120" y="59" on="0"/>
        <pt x="1166" y="47" on="0"/>
        <pt x="1198" y="43" on="1"/>
        <pt x="1198" y="0" on="1"/>
        <pt x="776" y="0" on="1"/>
        <pt x="776" y="43" on="1"/>
        <pt x="854" y="48" on="0"/>
        <pt x="914" y="78" on="0"/>
        <pt x="903" y="111" on="1"/>
        <pt x="789" y="445" on="1"/>
      </contour>
    </TTGlyph>
    <TTGlyph name="AE" xMin="0" yMin="0" xMax="1536" yMax="1260">
      <contour>
        <pt x="774" y="1148" on="1"/>
        <pt x="774" y="1159" on="0"/>
        <pt x="755" y="1169" on="0"/>
        <pt x="729" y="1166" on="0"/>
        <pt x="703" y="1148" on="0"/>
        <pt x="696" y="1131" on="1"/>
        <pt x="539" y="735" on="1"/>
        <pt x="774" y="735" on="1"/>
      </contour>
      <contour>
        <pt x="1536" y="244" on="1"/>
        <pt x="1527" y="157" on="0"/>
        <pt x="1501" y="29" on="0"/>
        <pt x="1493" y="0" on="1"/>
        <pt x="631" y="0" on="1"/>
        <pt x="631" y="43" on="1"/>
        <pt x="699" y="57" on="0"/>
        <pt x="774" y="90" on="0"/>
        <pt x="774" y="104" on="1"/>
        <pt x="774" y="651" on="1"/>
        <pt x="505" y="651" on="1"/>
        <pt x="285" y="111" on="1"/>
        <pt x="272" y="82" on="0"/>
        <pt x="334" y="52" on="0"/>
        <pt x="416" y="43" on="1"/>
        <pt x="416" y="0" on="1"/>
        <pt x="0" y="0" on="1"/>
        <pt x="0" y="43" on="1"/>
        <pt x="68" y="55" on="0"/>
        <pt x="145" y="82" on="0"/>
        <pt x="158" y="111" on="1"/>
        <pt x="571" y="1133" on="1"/>
        <pt x="578" y="1150" on="0"/>
        <pt x="557" y="1173" on="0"/>
        <pt x="507" y="1192" on="0"/>
        <pt x="430" y="1208" on="0"/>
        <pt x="381" y="1217" on="1"/>
        <pt x="381" y="1260" on="1"/>
        <pt x="1438" y="1260" on="1"/>
        <pt x="1468" y="1235" on="1"/>
        <pt x="1466" y="1209" on="0"/>
        <pt x="1459" y="1147" on="0"/>
        <pt x="1448" y="1085" on="0"/>
        <pt x="1434" y="1029" on="0"/>
        <pt x="1427" y="1010" on="1"/>
        <pt x="1382" y="1010" on="1"/>
        <pt x="1380" y="1056" on="0"/>
        <pt x="1368" y="1118" on="0"/>
        <pt x="1348" y="1155" on="0"/>
        <pt x="1319" y="1170" on="0"/>
        <pt x="1300" y="1170" on="1"/>
        <pt x="934" y="1170" on="1"/>
        <pt x="934" y="735" on="1"/>
        <pt x="1339" y="735" on="1"/>
        <pt x="1366" y="707" on="1"/>
        <pt x="1357" y="693" on="0"/>
        <pt x="1335" y="661" on="0"/>
        <pt x="1310" y="630" on="0"/>
        <pt x="1285" y="604" on="0"/>
        <pt x="1274" y="596" on="1"/>
        <pt x="1259" y="611" on="0"/>
        <pt x="1225" y="631" on="0"/>
        <pt x="1179" y="645" on="0"/>
        <pt x="1117" y="651" on="0"/>
        <pt x="1075" y="651" on="1"/>
        <pt x="934" y="651" on="1"/>
        <pt x="934" y="154" on="1"/>
        <pt x="934" y="139" on="0"/>
        <pt x="949" y="116" on="0"/>
        <pt x="994" y="99" on="0"/>
        <pt x="1075" y="90" on="0"/>
        <pt x="1141" y="90" on="1"/>
        <pt x="1270" y="90" on="1"/>
        <pt x="1316" y="90" on="0"/>
        <pt x="1381" y="100" on="0"/>
        <pt x="1430" y="135" on="0"/>
        <pt x="1470" y="203" on="0"/>
        <pt x="1491" y="262" on="1"/>
      </contour>
    </TTGlyph>
    <TTGlyph name="AEacute" xMin="0" yMin="0" xMax="1536" yMax="1729">
      <component glyphName="AE" x="0" y="0" flags="0x0"/>
      <component glyphName="acutecomb.LP" x="1467" y="320" flags="0x0"/>
    </TTGlyph>
    <TTGlyph name="Aacute" xMin="0" yMin="0" xMax="1198" yMax="1729">
      <component glyphName="A" x="0" y="0" flags="0x0"/>
      <component glyphName="acutecomb.LP" x="1142" y="320" flags="0x0"/>
    </TTGlyph>
    <TTGlyph name="Abreve" xMin="0" yMin="0" xMax="1198" yMax="1725">
      <component glyphName="A" x="0" y="0" flags="0x0"/>
      <component glyphName="uni0306" x="1114" y="320" flags="0x0"/>
    </TTGlyph>
    <TTGlyph name="Acircumflex" xMin="0" yMin="0" xMax="1198" yMax="1721">
      <component glyphName="A" x="0" y="0" flags="0x0"/>
      <component glyphName="uni0302.LP" x="1113" y="320" flags="0x0"/>
    </TTGlyph>
    <TTGlyph name="Adieresis" xMin="0" yMin="0" xMax="1198" yMax="1636">
      <component glyphName="A" x="0" y="0" flags="0x0"/>
      <component glyphName="uni0308.LP" x="1114" y="320" flags="0x0"/>
    </TTGlyph>
    <TTGlyph name="Agrave" xMin="0" yMin="0" xMax="1198" yMax="1729">
      <component glyphName="A" x="0" y="0" flags="0x0"/>
      <component glyphName="gravecomb.LP" x="1032" y="320" flags="0x0"/>
    </TTGlyph>
    <TTGlyph name="Amacron" xMin="0" yMin="0" xMax="1198" yMax="1585">
      <component glyphName="A" x="0" y="0" flags="0x0"/>
      <component glyphName="uni0304.LP" x="1124" y="320" flags="0x0"/>
    </TTGlyph>
    <TTGlyph name="Aring" xMin="0" yMin="0" xMax="1198" yMax="1760">
      <component glyphName="A" x="0" y="0" flags="0x0"/>
      <component glyphName="uni030A" x="1114" y="320" flags="0x0"/>
    </TTGlyph>
    <TTGlyph name="Aringacute" xMin="0" yMin="0" xMax="1198" yMax="2169">
      <component glyphName="A" x="0" y="0" flags="0x0"/>
      <component glyphName="uni030A" x="1114" y="320" flags="0x0"/>
      <component glyphName="acutecomb.LP" x="1142" y="760" flags="0x0"/>
    </TTGlyph>
    <TTGlyph name="Atilde" xMin="0" yMin="0" xMax="1198" yMax="1649">
      <component glyphName="A" x="0" y="0" flags="0x0"/>
      <component glyphName="tildecomb.LP" x="1114" y="320" flags="0x0"/>
    </TTGlyph>
    <TTGlyph name="B" xMin="41" yMin="-14" xMax="1016" yMax="1290">
      <contour>
        <pt x="413" y="1206" on="1"/>
        <pt x="399" y="1206" on="0"/>
        <pt x="370" y="1205" on="0"/>
        <pt x="355" y="1204" on="1"/>
        <pt x="355" y="725" on="1"/>
        <pt x="389" y="725" on="1"/>
        <pt x="503" y="725" on="0"/>
        <pt x="644" y="770" on="0"/>
        <pt x="722" y="840" on="0"/>
        <pt x="750" y="928" on="0"/>
        <pt x="750" y="971" on="1"/>
        <pt x="750" y="1021" on="0"/>
        <pt x="717" y="1107" on="0"/>
        <pt x="639" y="1170" on="0"/>
        <pt x="510" y="1206" on="0"/>
      </contour>
      <contour>
        <pt x="520" y="650" on="1"/>
        <pt x="472" y="650" on="0"/>
        <pt x="391" y="641" on="0"/>
        <pt x="355" y="635" on="1"/>
        <pt x="355" y="104" on="1"/>
        <pt x="355" y="96" on="0"/>
        <pt x="364" y="89" on="1"/>
        <pt x="381" y="83" on="0"/>
        <pt x="425" y="76" on="0"/>
        <pt x="471" y="72" on="0"/>
        <pt x="517" y="70" on="0"/>
        <pt x="537" y="70" on="1"/>
        <pt x="609" y="70" on="0"/>
        <pt x="725" y="107" on="0"/>
        <pt x="808" y="173" on="0"/>
        <pt x="852" y="266" on="0"/>
        <pt x="852" y="322" on="1"/>
        <pt x="852" y="377" on="0"/>
        <pt x="813" y="493" on="0"/>
        <pt x="732" y="589" on="0"/>
        <pt x="607" y="650" on="0"/>
      </contour>
      <contour>
        <pt x="1016" y="356" on="1"/>
        <pt x="1016" y="271" on="0"/>
        <pt x="949" y="134" on="0"/>
        <pt x="828" y="38" on="0"/>
        <pt x="660" y="-14" on="0"/>
        <pt x="559" y="-14" on="1"/>
        <pt x="537" y="-14" on="0"/>
        <pt x="476" y="-13" on="0"/>
        <pt x="406" y="-11" on="0"/>
        <pt x="332" y="-9" on="0"/>
        <pt x="297" y="-7" on="1"/>
        <pt x="214" y="-4" on="0"/>
        <pt x="123" y="0" on="1"/>
        <pt x="50" y="0" on="1"/>
        <pt x="50" y="43" on="1"/>
        <pt x="118" y="57" on="0"/>
        <pt x="195" y="90" on="0"/>
        <pt x="195" y="104" on="1"/>
        <pt x="195" y="1190" on="1"/>
        <pt x="157" y="1185" on="0"/>
        <pt x="84" y="1174" on="0"/>
        <pt x="50" y="1168" on="1"/>
        <pt x="41" y="1230" on="1"/>
        <pt x="80" y="1241" on="0"/>
        <pt x="183" y="1262" on="0"/>
        <pt x="297" y="1279" on="0"/>
        <pt x="415" y="1290" on="0"/>
        <pt x="469" y="1290" on="1"/>
        <pt x="569" y="1290" on="0"/>
        <pt x="731" y="1253" on="0"/>
        <pt x="844" y="1183" on="0"/>
        <pt x="905" y="1083" on="0"/>
        <pt x="905" y="1020" on="1"/>
        <pt x="905" y="912" on="0"/>
        <pt x="803" y="757" on="0"/>
        <pt x="715" y="723" on="1"/>
        <pt x="779" y="711" on="0"/>
        <pt x="889" y="645" on="0"/>
        <pt x="970" y="548" on="0"/>
        <pt x="1016" y="425" on="0"/>
      </contour>
    </TTGlyph>
    <TTGlyph name="C" xMin="70" yMin="-30" xMax="1018" yMax="1290">
      <contour>
        <pt x="1018" y="211" on="1"/>
        <pt x="954" y="143" on="0"/>
        <pt x="837" y="50" on="0"/>
        <pt x="728" y="-6" on="0"/>
        <pt x="623" y="-30" on="0"/>
        <pt x="571" y="-30" on="1"/>
        <pt x="478" y="-30" on="0"/>
        <pt x="299" y="54" on="0"/>
        <pt x="157" y="212" on="0"/>
        <pt x="70" y="441" on="0"/>
        <pt x="70" y="586" on="1"/>
        <pt x="70" y="746" on="0"/>
        <pt x="167" y="1006" on="0"/>
        <pt x="333" y="1190" on="0"/>
        <pt x="553" y="1290" on="0"/>
        <pt x="676" y="1290" on="1"/>
        <pt x="784" y="1290" on="0"/>
        <pt x="947" y="1232" on="0"/>
        <pt x="999" y="1190" on="1"/>
        <pt x="1005" y="1185" on="0"/>
        <pt x="987" y="1155" on="0"/>
        <pt x="956" y="1117" on="0"/>
        <pt x="921" y="1079" on="0"/>
        <pt x="909" y="1067" on="1"/>
        <pt x="874" y="1073" on="1"/>
        <pt x="823" y="1120" on="0"/>
        <pt x="683" y="1180" on="0"/>
        <pt x="592" y="1180" on="1"/>
        <pt x="558" y="1180" on="0"/>
        <pt x="477" y="1155" on="0"/>
        <pt x="395" y="1101" on="0"/>
        <pt x="319" y="1014" on="0"/>
        <pt x="260" y="890" on="0"/>
        <pt x="225" y="727" on="0"/>
        <pt x="225" y="623" on="1"/>
        <pt x="225" y="490" on="0"/>
        <pt x="302" y="290" on="0"/>
        <pt x="423" y="157" on="0"/>
        <pt x="572" y="90" on="0"/>
        <pt x="643" y="90" on="1"/>
        <pt x="697" y="90" on="0"/>
        <pt x="871" y="164" on="0"/>
        <pt x="981" y="256" on="1"/>
        <pt x="986" y="254" on="0"/>
        <pt x="997" y="241" on="0"/>
        <pt x="1007" y="227" on="0"/>
        <pt x="1015" y="214" on="0"/>
      </contour>
    </TTGlyph>
    <TTGlyph name="Cacute" xMin="70" yMin="-30" xMax="1018" yMax="1729">
      <component glyphName="C" x="0" y="0" flags="0x0"/>
      <component glyphName="acutecomb.LP" x="1157" y="320" flags="0x0"/>
    </TTGlyph>
    <TTGlyph name="Ccaron" xMin="70" yMin="-30" xMax="1018" yMax="1745">
      <component glyphName="C" x="0" y="0" flags="0x0"/>
      <component glyphName="uni030C.LP" x="1128" y="320" flags="0x0"/>
    </TTGlyph>
    <TTGlyph name="Ccedilla" xMin="70" yMin="-444" xMax="1018" yMax="1290">
      <contour>
        <pt x="749" y="-229" on="1"/>
        <pt x="749" y="-266" on="0"/>
        <pt x="714" y="-334" on="0"/>
        <pt x="640" y="-390" on="0"/>
        <pt x="523" y="-432" on="0"/>
        <pt x="441" y="-444" on="1"/>
        <pt x="419" y="-395" on="1"/>
        <pt x="471" y="-386" on="0"/>
        <pt x="544" y="-359" on="0"/>
        <pt x="590" y="-327" on="0"/>
        <pt x="611" y="-292" on="0"/>
        <pt x="611" y="-276" on="1"/>
        <pt x="611" y="-242" on="0"/>
        <pt x="559" y="-215" on="0"/>
        <pt x="497" y="-209" on="1"/>
        <pt x="499" y="-206" on="0"/>
        <pt x="507" y="-181" on="1"/>
        <pt x="514" y="-160" on="0"/>
        <pt x="528" y="-115" on="1"/>
        <pt x="539" y="-82" on="0"/>
        <pt x="556" y="-30" on="1"/>
        <pt x="471" y="-26" on="0"/>
        <pt x="388" y="12" on="1"/>
        <pt x="299" y="54" on="0"/>
        <pt x="157" y="212" on="0"/>
        <pt x="70" y="441" on="0"/>
        <pt x="70" y="586" on="1"/>
        <pt x="70" y="746" on="0"/>
        <pt x="167" y="1006" on="0"/>
        <pt x="333" y="1190" on="0"/>
        <pt x="553" y="1290" on="0"/>
        <pt x="676" y="1290" on="1"/>
        <pt x="784" y="1290" on="0"/>
        <pt x="947" y="1232" on="0"/>
        <pt x="999" y="1190" on="1"/>
        <pt x="1005" y="1185" on="0"/>
        <pt x="987" y="1155" on="0"/>
        <pt x="956" y="1117" on="0"/>
        <pt x="921" y="1079" on="0"/>
        <pt x="909" y="1067" on="1"/>
        <pt x="874" y="1073" on="1"/>
        <pt x="823" y="1120" on="0"/>
        <pt x="683" y="1180" on="0"/>
        <pt x="592" y="1180" on="1"/>
        <pt x="558" y="1180" on="0"/>
        <pt x="477" y="1155" on="0"/>
        <pt x="395" y="1101" on="0"/>
        <pt x="319" y="1014" on="0"/>
        <pt x="260" y="890" on="0"/>
        <pt x="225" y="727" on="0"/>
        <pt x="225" y="623" on="1"/>
        <pt x="225" y="490" on="0"/>
        <pt x="302" y="290" on="0"/>
        <pt x="423" y="157" on="0"/>
        <pt x="572" y="90" on="0"/>
        <pt x="643" y="90" on="1"/>
        <pt x="697" y="90" on="0"/>
        <pt x="871" y="164" on="0"/>
        <pt x="981" y="256" on="1"/>
        <pt x="986" y="254" on="0"/>
        <pt x="997" y="241" on="0"/>
        <pt x="1007" y="227" on="0"/>
        <pt x="1015" y="214" on="0"/>
        <pt x="1018" y="211" on="1"/>
        <pt x="954" y="143" on="0"/>
        <pt x="837" y="50" on="0"/>
        <pt x="728" y="-6" on="0"/>
        <pt x="675" y="-18" on="1"/>
        <pt x="655" y="-22" on="0"/>
        <pt x="635" y="-25" on="1"/>
        <pt x="609" y="-104" on="1"/>
        <pt x="635" y="-110" on="0"/>
        <pt x="686" y="-129" on="0"/>
        <pt x="725" y="-159" on="0"/>
        <pt x="749" y="-201" on="0"/>
      </contour>
    </TTGlyph>
    <TTGlyph name="Ccircumflex" xMin="70" yMin="-30" xMax="1018" yMax="1721">
      <component glyphName="C" x="0" y="0" flags="0x0"/>
      <component glyphName="uni0302.LP" x="1128" y="320" flags="0x0"/>
    </TTGlyph>
    <TTGlyph name="Cdotaccent" xMin="70" yMin="-30" xMax="1018" yMax="1636">
      <component glyphName="C" x="0" y="0" flags="0x0"/>
      <component glyphName="uni0307.LP" x="1129" y="320" flags="0x0"/>
    </TTGlyph>
    <TTGlyph name="D" xMin="41" yMin="0" xMax="1123" yMax="1290">
      <contour>
        <pt x="453" y="1206" on="1"/>
        <pt x="403" y="1206" on="0"/>
        <pt x="355" y="1203" on="1"/>
        <pt x="355" y="154" on="1"/>
        <pt x="355" y="132" on="0"/>
        <pt x="365" y="118" on="1"/>
        <pt x="379" y="101" on="0"/>
        <pt x="459" y="84" on="0"/>
        <pt x="537" y="84" on="1"/>
        <pt x="606" y="84" on="0"/>
        <pt x="753" y="151" on="0"/>
        <pt x="875" y="288" on="0"/>
        <pt x="953" y="496" on="0"/>
        <pt x="953" y="637" on="1"/>
        <pt x="953" y="770" on="0"/>
        <pt x="887" y="981" on="0"/>
        <pt x="760" y="1128" on="0"/>
        <pt x="573" y="1206" on="0"/>
      </contour>
      <contour>
        <pt x="1123" y="676" on="1"/>
        <pt x="1123" y="551" on="0"/>
        <pt x="1072" y="354" on="0"/>
        <pt x="986" y="203" on="0"/>
        <pt x="873" y="98" on="0"/>
        <pt x="747" y="31" on="0"/>
        <pt x="618" y="0" on="0"/>
        <pt x="559" y="0" on="1"/>
        <pt x="50" y="0" on="1"/>
        <pt x="50" y="43" on="1"/>
        <pt x="118" y="57" on="0"/>
        <pt x="195" y="90" on="0"/>
        <pt x="195" y="104" on="1"/>
        <pt x="195" y="1188" on="1"/>
        <pt x="155" y="1183" on="0"/>
        <pt x="83" y="1173" on="0"/>
        <pt x="50" y="1168" on="1"/>
        <pt x="41" y="1230" on="1"/>
        <pt x="85" y="1242" on="0"/>
        <pt x="200" y="1264" on="0"/>
        <pt x="328" y="1281" on="0"/>
        <pt x="459" y="1290" on="0"/>
        <pt x="518" y="1290" on="1"/>
        <pt x="657" y="1290" on="0"/>
        <pt x="881" y="1207" on="0"/>
        <pt x="1038" y="1049" on="0"/>
        <pt x="1123" y="821" on="0"/>
      </contour>
    </TTGlyph>
    <TTGlyph name="Dcaron" xMin="41" yMin="0" xMax="1123" yMax="1745">
      <component glyphName="D" x="0" y="0" flags="0x0"/>
      <component glyphName="uni030C.LP" x="1064" y="320" flags="0x0"/>
    </TTGlyph>
    <TTGlyph name="Dcroat" xMin="27" yMin="0" xMax="1123" yMax="1290">
      <contour>
        <pt x="1123" y="676" on="1"/>
        <pt x="1123" y="551" on="0"/>
        <pt x="1072" y="354" on="0"/>
        <pt x="986" y="203" on="0"/>
        <pt x="873" y="98" on="0"/>
        <pt x="747" y="31" on="0"/>
        <pt x="618" y="0" on="0"/>
        <pt x="559" y="0" on="1"/>
        <pt x="50" y="0" on="1"/>
        <pt x="50" y="43" on="1"/>
        <pt x="118" y="57" on="0"/>
        <pt x="195" y="90" on="0"/>
        <pt x="195" y="104" on="1"/>
        <pt x="195" y="615" on="1"/>
        <pt x="49" y="615" on="1"/>
        <pt x="27" y="640" on="1"/>
        <pt x="32" y="655" on="0"/>
        <pt x="43" y="689" on="0"/>
        <pt x="49" y="705" on="1"/>
        <pt x="195" y="705" on="1"/>
        <pt x="195" y="1188" on="1"/>
        <pt x="155" y="1183" on="0"/>
        <pt x="83" y="1173" on="0"/>
        <pt x="50" y="1168" on="1"/>
        <pt x="41" y="1230" on="1"/>
        <pt x="85" y="1242" on="0"/>
        <pt x="200" y="1264" on="0"/>
        <pt x="328" y="1281" on="0"/>
        <pt x="459" y="1290" on="0"/>
        <pt x="518" y="1290" on="1"/>
        <pt x="657" y="1290" on="0"/>
        <pt x="881" y="1207" on="0"/>
        <pt x="1038" y="1049" on="0"/>
        <pt x="1123" y="821" on="0"/>
      </contour>
      <contour>
        <pt x="453" y="1206" on="1"/>
        <pt x="403" y="1206" on="0"/>
        <pt x="355" y="1203" on="1"/>
        <pt x="355" y="705" on="1"/>
        <pt x="614" y="705" on="1"/>
        <pt x="639" y="682" on="1"/>
        <pt x="614" y="615" on="1"/>
        <pt x="355" y="615" on="1"/>
        <pt x="355" y="154" on="1"/>
        <pt x="355" y="132" on="0"/>
        <pt x="365" y="118" on="1"/>
        <pt x="379" y="101" on="0"/>
        <pt x="459" y="84" on="0"/>
        <pt x="537" y="84" on="1"/>
        <pt x="606" y="84" on="0"/>
        <pt x="753" y="151" on="0"/>
        <pt x="875" y="288" on="0"/>
        <pt x="953" y="496" on="0"/>
        <pt x="953" y="637" on="1"/>
        <pt x="953" y="770" on="0"/>
        <pt x="887" y="981" on="0"/>
        <pt x="760" y="1128" on="0"/>
        <pt x="573" y="1206" on="0"/>
      </contour>
    </TTGlyph>
    <TTGlyph name="Delta" xMin="59" yMin="0" xMax="1094" yMax="1317">
      <contour>
        <pt x="881" y="166" on="1"/>
        <pt x="817" y="334" on="0"/>
        <pt x="755" y="495" on="1"/>
        <pt x="729" y="564" on="0"/>
        <pt x="673" y="711" on="0"/>
        <pt x="618" y="857" on="0"/>
        <pt x="568" y="992" on="0"/>
        <pt x="547" y="1049" on="1"/>
        <pt x="524" y="986" on="0"/>
        <pt x="472" y="842" on="0"/>
        <pt x="418" y="694" on="0"/>
        <pt x="365" y="548" on="0"/>
        <pt x="340" y="481" on="1"/>
        <pt x="282" y="323" on="0"/>
        <pt x="223" y="166" on="1"/>
        <pt x="216" y="147" on="0"/>
        <pt x="213" y="126" on="0"/>
        <pt x="233" y="117" on="0"/>
        <pt x="284" y="115" on="0"/>
        <pt x="332" y="115" on="1"/>
        <pt x="770" y="115" on="1"/>
        <pt x="819" y="115" on="0"/>
        <pt x="871" y="117" on="0"/>
        <pt x="892" y="126" on="0"/>
        <pt x="888" y="147" on="0"/>
      </contour>
      <contour>
        <pt x="1073" y="0" on="1"/>
        <pt x="74" y="0" on="1"/>
        <pt x="59" y="51" on="1"/>
        <pt x="149" y="290" on="0"/>
        <pt x="232" y="513" on="1"/>
        <pt x="267" y="608" on="0"/>
        <pt x="341" y="809" on="0"/>
        <pt x="411" y="1000" on="0"/>
        <pt x="473" y="1172" on="0"/>
        <pt x="496" y="1237" on="1"/>
        <pt x="519" y="1262" on="0"/>
        <pt x="586" y="1303" on="0"/>
        <pt x="612" y="1317" on="1"/>
        <pt x="638" y="1243" on="0"/>
        <pt x="707" y="1056" on="0"/>
        <pt x="785" y="850" on="0"/>
        <pt x="866" y="637" on="0"/>
        <pt x="905" y="537" on="1"/>
        <pt x="996" y="302" on="0"/>
        <pt x="1094" y="51" on="1"/>
      </contour>
    </TTGlyph>
    <TTGlyph name="E" xMin="50" yMin="0" xMax="954" yMax="1260">
      <contour>
        <pt x="954" y="244" on="1"/>
        <pt x="946" y="158" on="0"/>
        <pt x="921" y="29" on="0"/>
        <pt x="913" y="0" on="1"/>
        <pt x="50" y="0" on="1"/>
        <pt x="50" y="43" on="1"/>
        <pt x="118" y="57" on="0"/>
        <pt x="195" y="90" on="0"/>
        <pt x="195" y="104" on="1"/>
        <pt x="195" y="1155" on="1"/>
        <pt x="195" y="1167" on="0"/>
        <pt x="122" y="1203" on="0"/>
        <pt x="50" y="1217" on="1"/>
        <pt x="50" y="1260" on="1"/>
        <pt x="856" y="1260" on="1"/>
        <pt x="889" y="1235" on="1"/>
        <pt x="887" y="1209" on="0"/>
        <pt x="879" y="1147" on="0"/>
        <pt x="867" y="1085" on="0"/>
        <pt x="854" y="1029" on="0"/>
        <pt x="848" y="1010" on="1"/>
        <pt x="803" y="1010" on="1"/>
        <pt x="801" y="1056" on="0"/>
        <pt x="788" y="1118" on="0"/>
        <pt x="768" y="1155" on="0"/>
        <pt x="739" y="1170" on="0"/>
        <pt x="721" y="1170" on="1"/>
        <pt x="355" y="1170" on="1"/>
        <pt x="355" y="735" on="1"/>
        <pt x="760" y="735" on="1"/>
        <pt x="786" y="707" on="1"/>
        <pt x="778" y="693" on="0"/>
        <pt x="755" y="661" on="0"/>
        <pt x="730" y="630" on="0"/>
        <pt x="705" y="604" on="0"/>
        <pt x="694" y="596" on="1"/>
        <pt x="679" y="611" on="0"/>
        <pt x="644" y="631" on="0"/>
        <pt x="599" y="645" on="0"/>
        <pt x="538" y="651" on="0"/>
        <pt x="496" y="651" on="1"/>
        <pt x="355" y="651" on="1"/>
        <pt x="355" y="154" on="1"/>
        <pt x="355" y="139" on="0"/>
        <pt x="369" y="116" on="0"/>
        <pt x="413" y="99" on="0"/>
        <pt x="493" y="90" on="0"/>
        <pt x="559" y="90" on="1"/>
        <pt x="688" y="90" on="1"/>
        <pt x="734" y="90" on="0"/>
        <pt x="799" y="100" on="0"/>
        <pt x="849" y="135" on="0"/>
        <pt x="890" y="203" on="0"/>
        <pt x="911" y="262" on="1"/>
      </contour>
    </TTGlyph>
    <TTGlyph name="Eacute" xMin="50" yMin="0" xMax="954" yMax="1729">
      <component glyphName="E" x="0" y="0" flags="0x0"/>
      <component glyphName="acutecomb.LP" x="1045" y="320" flags="0x0"/>
    </TTGlyph>
    <TTGlyph name="Ebreve" xMin="50" yMin="0" xMax="954" yMax="1725">
      <component glyphName="E" x="0" y="0" flags="0x0"/>
      <component glyphName="uni0306" x="1017" y="320" flags="0x0"/>
    </TTGlyph>
    <TTGlyph name="Ecaron" xMin="50" yMin="0" xMax="954" yMax="1745">
      <component glyphName="E" x="0" y="0" flags="0x0"/>
      <component glyphName="uni030C.LP" x="1016" y="320" flags="0x0"/>
    </TTGlyph>
    <TTGlyph name="Ecircumflex" xMin="50" yMin="0" xMax="954" yMax="1721">
      <component glyphName="E" x="0" y="0" flags="0x0"/>
      <component glyphName="uni0302.LP" x="1016" y="320" flags="0x0"/>
    </TTGlyph>
    <TTGlyph name="Edieresis" xMin="50" yMin="0" xMax="954" yMax="1636">
      <component glyphName="E" x="0" y="0" flags="0x0"/>
      <component glyphName="uni0308.LP" x="1017" y="320" flags="0x0"/>
    </TTGlyph>
    <TTGlyph name="Edotaccent" xMin="50" yMin="0" xMax="954" yMax="1636">
      <component glyphName="E" x="0" y="0" flags="0x0"/>
      <component glyphName="uni0307.LP" x="1017" y="320" flags="0x0"/>
    </TTGlyph>
    <TTGlyph name="Egrave" xMin="50" yMin="0" xMax="954" yMax="1729">
      <component glyphName="E" x="0" y="0" flags="0x0"/>
      <component glyphName="gravecomb.LP" x="935" y="320" flags="0x0"/>
    </TTGlyph>
    <TTGlyph name="Emacron" xMin="50" yMin="0" xMax="954" yMax="1585">
      <component glyphName="E" x="0" y="0" flags="0x0"/>
      <component glyphName="uni0304.LP" x="1027" y="320" flags="0x0"/>
    </TTGlyph>
    <TTGlyph name="Eng" xMin="49" yMin="-380" xMax="1125" yMax="1290">
      <contour>
        <pt x="1125" y="277" on="1"/>
        <pt x="1125" y="173" on="0"/>
        <pt x="1082" y="0" on="0"/>
        <pt x="1010" y="-140" on="0"/>
        <pt x="917" y="-249" on="0"/>
        <pt x="866" y="-288" on="1"/>
        <pt x="839" y="-309" on="0"/>
        <pt x="769" y="-343" on="0"/>
        <pt x="692" y="-367" on="0"/>
        <pt x="614" y="-380" on="0"/>
        <pt x="578" y="-380" on="1"/>
        <pt x="534" y="-380" on="0"/>
        <pt x="446" y="-358" on="0"/>
        <pt x="375" y="-325" on="0"/>
        <pt x="330" y="-288" on="0"/>
        <pt x="330" y="-272" on="1"/>
        <pt x="330" y="-263" on="0"/>
        <pt x="362" y="-231" on="0"/>
        <pt x="406" y="-197" on="0"/>
        <pt x="452" y="-167" on="0"/>
        <pt x="467" y="-161" on="1"/>
        <pt x="494" y="-188" on="0"/>
        <pt x="556" y="-227" on="0"/>
        <pt x="618" y="-252" on="0"/>
        <pt x="678" y="-264" on="0"/>
        <pt x="704" y="-264" on="1"/>
        <pt x="751" y="-264" on="0"/>
        <pt x="845" y="-204" on="0"/>
        <pt x="919" y="-83" on="0"/>
        <pt x="965" y="100" on="0"/>
        <pt x="965" y="224" on="1"/>
        <pt x="965" y="872" on="1"/>
        <pt x="965" y="954" on="0"/>
        <pt x="941" y="1061" on="0"/>
        <pt x="896" y="1124" on="0"/>
        <pt x="834" y="1150" on="0"/>
        <pt x="797" y="1150" on="1"/>
        <pt x="757" y="1150" on="0"/>
        <pt x="666" y="1116" on="0"/>
        <pt x="559" y="1026" on="0"/>
        <pt x="432" y="870" on="0"/>
        <pt x="355" y="748" on="1"/>
        <pt x="355" y="104" on="1"/>
        <pt x="355" y="92" on="0"/>
        <pt x="427" y="57" on="0"/>
        <pt x="500" y="43" on="1"/>
        <pt x="500" y="0" on="1"/>
        <pt x="49" y="0" on="1"/>
        <pt x="49" y="43" on="1"/>
        <pt x="117" y="57" on="0"/>
        <pt x="195" y="90" on="0"/>
        <pt x="195" y="104" on="1"/>
        <pt x="195" y="1030" on="1"/>
        <pt x="195" y="1069" on="0"/>
        <pt x="189" y="1118" on="0"/>
        <pt x="162" y="1147" on="0"/>
        <pt x="106" y="1162" on="0"/>
        <pt x="55" y="1167" on="1"/>
        <pt x="55" y="1210" on="1"/>
        <pt x="123" y="1223" on="0"/>
        <pt x="266" y="1262" on="0"/>
        <pt x="320" y="1290" on="1"/>
        <pt x="355" y="1255" on="1"/>
        <pt x="355" y="928" on="1"/>
        <pt x="432" y="1034" on="0"/>
        <pt x="570" y="1173" on="0"/>
        <pt x="696" y="1256" on="0"/>
        <pt x="810" y="1290" on="0"/>
        <pt x="864" y="1290" on="1"/>
        <pt x="907" y="1290" on="0"/>
        <pt x="999" y="1264" on="0"/>
        <pt x="1076" y="1195" on="0"/>
        <pt x="1125" y="1075" on="0"/>
        <pt x="1125" y="981" on="1"/>
      </contour>
    </TTGlyph>
    <TTGlyph name="Eng.BaselineHook" xMin="49" yMin="-30" xMax="1125" yMax="1290">
      <contour>
        <pt x="1125" y="587" on="1"/>
        <pt x="1125" y="483" on="0"/>
        <pt x="1115" y="337" on="0"/>
        <pt x="1093" y="229" on="0"/>
        <pt x="1054" y="150" on="0"/>
        <pt x="1026" y="115" on="1"/>
        <pt x="1005" y="88" on="0"/>
        <pt x="944" y="36" on="0"/>
        <pt x="874" y="-5" on="0"/>
        <pt x="800" y="-30" on="0"/>
        <pt x="766" y="-30" on="1"/>
        <pt x="729" y="-30" on="0"/>
        <pt x="660" y="0" on="0"/>
        <pt x="608" y="37" on="0"/>
        <pt x="576" y="72" on="0"/>
        <pt x="576" y="78" on="1"/>
        <pt x="576" y="91" on="0"/>
        <pt x="607" y="130" on="0"/>
        <pt x="649" y="166" on="0"/>
        <pt x="692" y="190" on="0"/>
        <pt x="703" y="189" on="1"/>
        <pt x="706" y="184" on="0"/>
        <pt x="725" y="153" on="0"/>
        <pt x="760" y="120" on="0"/>
        <pt x="811" y="95" on="0"/>
        <pt x="845" y="95" on="1"/>
        <pt x="879" y="95" on="0"/>
        <pt x="925" y="133" on="0"/>
        <pt x="953" y="232" on="0"/>
        <pt x="965" y="402" on="0"/>
        <pt x="965" y="534" on="1"/>
        <pt x="965" y="872" on="1"/>
        <pt x="965" y="954" on="0"/>
        <pt x="941" y="1061" on="0"/>
        <pt x="896" y="1124" on="0"/>
        <pt x="834" y="1150" on="0"/>
        <pt x="797" y="1150" on="1"/>
        <pt x="757" y="1150" on="0"/>
        <pt x="666" y="1116" on="0"/>
        <pt x="559" y="1026" on="0"/>
        <pt x="432" y="870" on="0"/>
        <pt x="355" y="748" on="1"/>
        <pt x="355" y="104" on="1"/>
        <pt x="355" y="92" on="0"/>
        <pt x="409" y="57" on="0"/>
        <pt x="460" y="43" on="1"/>
        <pt x="460" y="0" on="1"/>
        <pt x="49" y="0" on="1"/>
        <pt x="49" y="43" on="1"/>
        <pt x="117" y="57" on="0"/>
        <pt x="195" y="90" on="0"/>
        <pt x="195" y="104" on="1"/>
        <pt x="195" y="1030" on="1"/>
        <pt x="195" y="1069" on="0"/>
        <pt x="189" y="1118" on="0"/>
        <pt x="162" y="1147" on="0"/>
        <pt x="106" y="1162" on="0"/>
        <pt x="55" y="1167" on="1"/>
        <pt x="55" y="1210" on="1"/>
        <pt x="123" y="1223" on="0"/>
        <pt x="266" y="1262" on="0"/>
        <pt x="320" y="1290" on="1"/>
        <pt x="355" y="1255" on="1"/>
        <pt x="355" y="928" on="1"/>
        <pt x="432" y="1034" on="0"/>
        <pt x="570" y="1173" on="0"/>
        <pt x="696" y="1256" on="0"/>
        <pt x="810" y="1290" on="0"/>
        <pt x="864" y="1290" on="1"/>
        <pt x="907" y="1290" on="0"/>
        <pt x="999" y="1264" on="0"/>
        <pt x="1076" y="1195" on="0"/>
        <pt x="1125" y="1075" on="0"/>
        <pt x="1125" y="981" on="1"/>
      </contour>
    </TTGlyph>
    <TTGlyph name="Eng.Kom" xMin="49" yMin="-30" xMax="1065" yMax="1290">
      <contour>
        <pt x="1065" y="567" on="1"/>
        <pt x="1065" y="406" on="0"/>
        <pt x="976" y="172" on="0"/>
        <pt x="901" y="100" on="1"/>
        <pt x="875" y="76" on="0"/>
        <pt x="810" y="29" on="0"/>
        <pt x="729" y="-8" on="0"/>
        <pt x="629" y="-30" on="0"/>
        <pt x="568" y="-30" on="1"/>
        <pt x="484" y="-30" on="0"/>
        <pt x="345" y="18" on="0"/>
        <pt x="245" y="86" on="0"/>
        <pt x="190" y="156" on="0"/>
        <pt x="190" y="179" on="1"/>
        <pt x="190" y="188" on="0"/>
        <pt x="222" y="220" on="0"/>
        <pt x="266" y="254" on="0"/>
        <pt x="312" y="284" on="0"/>
        <pt x="327" y="290" on="1"/>
        <pt x="350" y="248" on="0"/>
        <pt x="410" y="174" on="0"/>
        <pt x="485" y="118" on="0"/>
        <pt x="573" y="85" on="0"/>
        <pt x="624" y="85" on="1"/>
        <pt x="688" y="85" on="0"/>
        <pt x="792" y="132" on="0"/>
        <pt x="866" y="232" on="0"/>
        <pt x="905" y="386" on="0"/>
        <pt x="905" y="494" on="1"/>
        <pt x="905" y="872" on="1"/>
        <pt x="905" y="954" on="0"/>
        <pt x="881" y="1061" on="0"/>
        <pt x="836" y="1124" on="0"/>
        <pt x="774" y="1150" on="0"/>
        <pt x="737" y="1150" on="1"/>
        <pt x="656" y="1150" on="0"/>
        <pt x="464" y="987" on="0"/>
        <pt x="355" y="838" on="1"/>
        <pt x="355" y="654" on="1"/>
        <pt x="355" y="642" on="0"/>
        <pt x="427" y="607" on="0"/>
        <pt x="500" y="593" on="1"/>
        <pt x="500" y="550" on="1"/>
        <pt x="49" y="550" on="1"/>
        <pt x="49" y="593" on="1"/>
        <pt x="117" y="607" on="0"/>
        <pt x="195" y="640" on="0"/>
        <pt x="195" y="654" on="1"/>
        <pt x="195" y="1030" on="1"/>
        <pt x="195" y="1069" on="0"/>
        <pt x="189" y="1118" on="0"/>
        <pt x="162" y="1147" on="0"/>
        <pt x="106" y="1162" on="0"/>
        <pt x="55" y="1167" on="1"/>
        <pt x="55" y="1210" on="1"/>
        <pt x="123" y="1223" on="0"/>
        <pt x="266" y="1262" on="0"/>
        <pt x="320" y="1290" on="1"/>
        <pt x="355" y="1255" on="1"/>
        <pt x="355" y="998" on="1"/>
        <pt x="409" y="1057" on="0"/>
        <pt x="523" y="1163" on="0"/>
        <pt x="637" y="1243" on="0"/>
        <pt x="750" y="1290" on="0"/>
        <pt x="804" y="1290" on="1"/>
        <pt x="847" y="1290" on="0"/>
        <pt x="939" y="1264" on="0"/>
        <pt x="1016" y="1195" on="0"/>
        <pt x="1065" y="1075" on="0"/>
        <pt x="1065" y="981" on="1"/>
      </contour>
    </TTGlyph>
    <TTGlyph name="Eng.UCStyle" xMin="50" yMin="-380" xMax="1280" yMax="1260">
      <contour>
        <pt x="50" y="0" on="1"/>
        <pt x="50" y="43" on="1"/>
        <pt x="124" y="52" on="0"/>
        <pt x="195" y="90" on="0"/>
        <pt x="195" y="104" on="1"/>
        <pt x="195" y="1149" on="1"/>
        <pt x="162" y="1180" on="0"/>
        <pt x="89" y="1211" on="0"/>
        <pt x="50" y="1217" on="1"/>
        <pt x="50" y="1260" on="1"/>
        <pt x="262" y="1260" on="1"/>
        <pt x="277" y="1260" on="0"/>
        <pt x="296" y="1255" on="0"/>
        <pt x="316" y="1239" on="0"/>
        <pt x="339" y="1208" on="0"/>
        <pt x="358" y="1182" on="1"/>
        <pt x="1015" y="276" on="1"/>
        <pt x="1015" y="1155" on="1"/>
        <pt x="1015" y="1167" on="0"/>
        <pt x="950" y="1206" on="0"/>
        <pt x="870" y="1217" on="1"/>
        <pt x="870" y="1260" on="1"/>
        <pt x="1280" y="1260" on="1"/>
        <pt x="1280" y="1217" on="1"/>
        <pt x="1208" y="1207" on="0"/>
        <pt x="1135" y="1169" on="0"/>
        <pt x="1135" y="1155" on="1"/>
        <pt x="1135" y="65" on="1"/>
        <pt x="1135" y="-3" on="0"/>
        <pt x="1121" y="-109" on="0"/>
        <pt x="1091" y="-193" on="0"/>
        <pt x="1042" y="-259" on="0"/>
        <pt x="1006" y="-288" on="1"/>
        <pt x="979" y="-310" on="0"/>
        <pt x="914" y="-344" on="0"/>
        <pt x="848" y="-368" on="0"/>
        <pt x="789" y="-380" on="0"/>
        <pt x="770" y="-380" on="1"/>
        <pt x="740" y="-380" on="0"/>
        <pt x="680" y="-361" on="0"/>
        <pt x="634" y="-336" on="0"/>
        <pt x="605" y="-309" on="0"/>
        <pt x="605" y="-300" on="1"/>
        <pt x="605" y="-292" on="0"/>
        <pt x="631" y="-262" on="0"/>
        <pt x="667" y="-232" on="0"/>
        <pt x="707" y="-205" on="0"/>
        <pt x="721" y="-200" on="1"/>
        <pt x="749" y="-218" on="0"/>
        <pt x="791" y="-241" on="0"/>
        <pt x="827" y="-253" on="0"/>
        <pt x="860" y="-257" on="0"/>
        <pt x="879" y="-257" on="1"/>
        <pt x="903" y="-257" on="0"/>
        <pt x="949" y="-232" on="0"/>
        <pt x="987" y="-167" on="0"/>
        <pt x="1012" y="-52" on="0"/>
        <pt x="1015" y="38" on="1"/>
        <pt x="991" y="61" on="1"/>
        <pt x="979" y="74" on="0"/>
        <pt x="966" y="91" on="1"/>
        <pt x="315" y="993" on="1"/>
        <pt x="315" y="104" on="1"/>
        <pt x="315" y="92" on="0"/>
        <pt x="382" y="54" on="0"/>
        <pt x="460" y="43" on="1"/>
        <pt x="460" y="0" on="1"/>
      </contour>
    </TTGlyph>
    <TTGlyph name="Eth" xMin="27" yMin="0" xMax="1123" yMax="1290">
      <contour>
        <pt x="1123" y="676" on="1"/>
        <pt x="1123" y="551" on="0"/>
        <pt x="1072" y="354" on="0"/>
        <pt x="986" y="203" on="0"/>
        <pt x="873" y="98" on="0"/>
        <pt x="747" y="31" on="0"/>
        <pt x="618" y="0" on="0"/>
        <pt x="559" y="0" on="1"/>
        <pt x="50" y="0" on="1"/>
        <pt x="50" y="43" on="1"/>
        <pt x="118" y="57" on="0"/>
        <pt x="195" y="90" on="0"/>
        <pt x="195" y="104" on="1"/>
        <pt x="195" y="615" on="1"/>
        <pt x="49" y="615" on="1"/>
        <pt x="27" y="640" on="1"/>
        <pt x="32" y="655" on="0"/>
        <pt x="43" y="689" on="0"/>
        <pt x="49" y="705" on="1"/>
        <pt x="195" y="705" on="1"/>
        <pt x="195" y="1188" on="1"/>
        <pt x="155" y="1183" on="0"/>
        <pt x="83" y="1173" on="0"/>
        <pt x="50" y="1168" on="1"/>
        <pt x="41" y="1230" on="1"/>
        <pt x="85" y="1242" on="0"/>
        <pt x="200" y="1264" on="0"/>
        <pt x="328" y="1281" on="0"/>
        <pt x="459" y="1290" on="0"/>
        <pt x="518" y="1290" on="1"/>
        <pt x="657" y="1290" on="0"/>
        <pt x="881" y="1207" on="0"/>
        <pt x="1038" y="1049" on="0"/>
        <pt x="1123" y="821" on="0"/>
      </contour>
      <contour>
        <pt x="453" y="1206" on="1"/>
        <pt x="403" y="1206" on="0"/>
        <pt x="355" y="1203" on="1"/>
        <pt x="355" y="705" on="1"/>
        <pt x="614" y="705" on="1"/>
        <pt x="639" y="682" on="1"/>
        <pt x="614" y="615" on="1"/>
        <pt x="355" y="615" on="1"/>
        <pt x="355" y="154" on="1"/>
        <pt x="355" y="132" on="0"/>
        <pt x="365" y="118" on="1"/>
        <pt x="379" y="101" on="0"/>
        <pt x="459" y="84" on="0"/>
        <pt x="537" y="84" on="1"/>
        <pt x="606" y="84" on="0"/>
        <pt x="753" y="151" on="0"/>
        <pt x="875" y="288" on="0"/>
        <pt x="953" y="496" on="0"/>
        <pt x="953" y="637" on="1"/>
        <pt x="953" y="770" on="0"/>
        <pt x="887" y="981" on="0"/>
        <pt x="760" y="1128" on="0"/>
        <pt x="573" y="1206" on="0"/>
      </contour>
    </TTGlyph>
    <TTGlyph name="Euro" xMin="24" yMin="-30" xMax="925" yMax="1235">
      <contour>
        <pt x="625" y="467" on="1"/>
        <pt x="297" y="467" on="1"/>
        <pt x="309" y="363" on="0"/>
        <pt x="367" y="219" on="0"/>
        <pt x="448" y="130" on="0"/>
        <pt x="547" y="90" on="0"/>
        <pt x="600" y="90" on="1"/>
        <pt x="631" y="90" on="0"/>
        <pt x="690" y="107" on="0"/>
        <pt x="757" y="146" on="0"/>
        <pt x="837" y="210" on="0"/>
        <pt x="888" y="256" on="1"/>
        <pt x="893" y="254" on="0"/>
        <pt x="904" y="241" on="0"/>
        <pt x="914" y="227" on="0"/>
        <pt x="922" y="214" on="0"/>
        <pt x="925" y="211" on="1"/>
        <pt x="865" y="143" on="0"/>
        <pt x="768" y="50" on="0"/>
        <pt x="676" y="-6" on="0"/>
        <pt x="583" y="-30" on="0"/>
        <pt x="528" y="-30" on="1"/>
        <pt x="453" y="-30" on="0"/>
        <pt x="319" y="29" on="0"/>
        <pt x="215" y="151" on="0"/>
        <pt x="147" y="339" on="0"/>
        <pt x="138" y="467" on="1"/>
        <pt x="46" y="467" on="1"/>
        <pt x="24" y="492" on="1"/>
        <pt x="29" y="507" on="0"/>
        <pt x="40" y="541" on="0"/>
        <pt x="46" y="557" on="1"/>
        <pt x="135" y="557" on="1"/>
        <pt x="135" y="561" on="1"/>
        <pt x="135" y="627" on="0"/>
        <pt x="141" y="687" on="1"/>
        <pt x="76" y="687" on="1"/>
        <pt x="54" y="712" on="1"/>
        <pt x="59" y="727" on="0"/>
        <pt x="70" y="761" on="0"/>
        <pt x="76" y="777" on="1"/>
        <pt x="153" y="777" on="1"/>
        <pt x="174" y="890" on="0"/>
        <pt x="260" y="1061" on="0"/>
        <pt x="384" y="1177" on="0"/>
        <pt x="541" y="1235" on="0"/>
        <pt x="633" y="1235" on="1"/>
        <pt x="683" y="1235" on="0"/>
        <pt x="761" y="1219" on="0"/>
        <pt x="826" y="1192" on="0"/>
        <pt x="880" y="1156" on="0"/>
        <pt x="906" y="1135" on="1"/>
        <pt x="912" y="1130" on="0"/>
        <pt x="894" y="1100" on="0"/>
        <pt x="863" y="1062" on="0"/>
        <pt x="828" y="1024" on="0"/>
        <pt x="816" y="1012" on="1"/>
        <pt x="781" y="1018" on="1"/>
        <pt x="756" y="1041" on="0"/>
        <pt x="711" y="1080" on="0"/>
        <pt x="659" y="1109" on="0"/>
        <pt x="594" y="1125" on="0"/>
        <pt x="549" y="1125" on="1"/>
        <pt x="515" y="1125" on="0"/>
        <pt x="439" y="1095" on="0"/>
        <pt x="369" y="1017" on="0"/>
        <pt x="313" y="882" on="0"/>
        <pt x="300" y="777" on="1"/>
        <pt x="655" y="777" on="1"/>
        <pt x="680" y="754" on="1"/>
        <pt x="655" y="687" on="1"/>
        <pt x="292" y="687" on="1"/>
        <pt x="291" y="666" on="0"/>
        <pt x="290" y="621" on="0"/>
        <pt x="290" y="598" on="1"/>
        <pt x="290" y="557" on="1"/>
        <pt x="625" y="557" on="1"/>
        <pt x="650" y="534" on="1"/>
      </contour>
    </TTGlyph>
    <TTGlyph name="F" xMin="50" yMin="0" xMax="897" yMax="1260">
      <contour>
        <pt x="50" y="0" on="1"/>
        <pt x="50" y="43" on="1"/>
        <pt x="118" y="57" on="0"/>
        <pt x="195" y="90" on="0"/>
        <pt x="195" y="104" on="1"/>
        <pt x="195" y="1155" on="1"/>
        <pt x="195" y="1167" on="0"/>
        <pt x="122" y="1203" on="0"/>
        <pt x="50" y="1217" on="1"/>
        <pt x="50" y="1260" on="1"/>
        <pt x="866" y="1260" on="1"/>
        <pt x="897" y="1235" on="1"/>
        <pt x="896" y="1209" on="0"/>
        <pt x="888" y="1147" on="0"/>
        <pt x="877" y="1085" on="0"/>
        <pt x="864" y="1029" on="0"/>
        <pt x="858" y="1010" on="1"/>
        <pt x="811" y="1010" on="1"/>
        <pt x="809" y="1056" on="0"/>
        <pt x="798" y="1118" on="0"/>
        <pt x="777" y="1155" on="0"/>
        <pt x="748" y="1170" on="0"/>
        <pt x="729" y="1170" on="1"/>
        <pt x="355" y="1170" on="1"/>
        <pt x="355" y="735" on="1"/>
        <pt x="729" y="735" on="1"/>
        <pt x="758" y="707" on="1"/>
        <pt x="749" y="693" on="0"/>
        <pt x="725" y="661" on="0"/>
        <pt x="699" y="630" on="0"/>
        <pt x="674" y="604" on="0"/>
        <pt x="664" y="596" on="1"/>
        <pt x="649" y="611" on="0"/>
        <pt x="615" y="631" on="0"/>
        <pt x="570" y="645" on="0"/>
        <pt x="509" y="651" on="0"/>
        <pt x="467" y="651" on="1"/>
        <pt x="355" y="651" on="1"/>
        <pt x="355" y="104" on="1"/>
        <pt x="355" y="92" on="0"/>
        <pt x="432" y="62" on="0"/>
        <pt x="530" y="43" on="1"/>
        <pt x="530" y="0" on="1"/>
      </contour>
    </TTGlyph>
    <TTGlyph name="G" xMin="70" yMin="-30" xMax="1145" yMax="1290">
      <contour>
        <pt x="1042" y="1188" on="1"/>
        <pt x="1049" y="1183" on="0"/>
        <pt x="1031" y="1154" on="0"/>
        <pt x="998" y="1118" on="0"/>
        <pt x="959" y="1083" on="0"/>
        <pt x="946" y="1071" on="1"/>
        <pt x="913" y="1077" on="1"/>
        <pt x="880" y="1108" on="0"/>
        <pt x="810" y="1149" on="0"/>
        <pt x="733" y="1171" on="0"/>
        <pt x="647" y="1180" on="0"/>
        <pt x="598" y="1180" on="1"/>
        <pt x="573" y="1180" on="0"/>
        <pt x="498" y="1157" on="0"/>
        <pt x="415" y="1106" on="0"/>
        <pt x="333" y="1023" on="0"/>
        <pt x="266" y="902" on="0"/>
        <pt x="225" y="741" on="0"/>
        <pt x="225" y="637" on="1"/>
        <pt x="225" y="498" on="0"/>
        <pt x="299" y="292" on="0"/>
        <pt x="419" y="157" on="0"/>
        <pt x="569" y="90" on="0"/>
        <pt x="645" y="90" on="1"/>
        <pt x="718" y="90" on="0"/>
        <pt x="841" y="119" on="0"/>
        <pt x="890" y="146" on="1"/>
        <pt x="890" y="485" on="1"/>
        <pt x="890" y="496" on="0"/>
        <pt x="871" y="517" on="0"/>
        <pt x="824" y="537" on="0"/>
        <pt x="745" y="557" on="0"/>
        <pt x="684" y="567" on="1"/>
        <pt x="684" y="610" on="1"/>
        <pt x="1145" y="610" on="1"/>
        <pt x="1145" y="567" on="1"/>
        <pt x="1088" y="553" on="0"/>
        <pt x="1040" y="508" on="0"/>
        <pt x="1040" y="485" on="1"/>
        <pt x="1040" y="154" on="1"/>
        <pt x="966" y="93" on="0"/>
        <pt x="849" y="21" on="0"/>
        <pt x="751" y="-18" on="0"/>
        <pt x="663" y="-30" on="0"/>
        <pt x="618" y="-30" on="1"/>
        <pt x="517" y="-30" on="0"/>
        <pt x="321" y="45" on="0"/>
        <pt x="166" y="198" on="0"/>
        <pt x="70" y="427" on="0"/>
        <pt x="70" y="582" on="1"/>
        <pt x="70" y="748" on="0"/>
        <pt x="175" y="1011" on="0"/>
        <pt x="357" y="1194" on="0"/>
        <pt x="600" y="1290" on="0"/>
        <pt x="737" y="1290" on="1"/>
        <pt x="770" y="1290" on="0"/>
        <pt x="849" y="1276" on="0"/>
        <pt x="931" y="1250" on="0"/>
        <pt x="1010" y="1212" on="0"/>
      </contour>
    </TTGlyph>
    <TTGlyph name="Gbreve" xMin="70" yMin="-30" xMax="1145" yMax="1725">
      <component glyphName="G" x="0" y="0" flags="0x0"/>
      <component glyphName="uni0306" x="1155" y="320" flags="0x0"/>
    </TTGlyph>
    <TTGlyph name="Gcaron" xMin="70" yMin="-30" xMax="1145" yMax="1745">
      <component glyphName="G" x="0" y="0" flags="0x0"/>
      <component glyphName="uni030C.LP" x="1154" y="320" flags="0x0"/>
    </TTGlyph>
    <TTGlyph name="Gcircumflex" xMin="70" yMin="-30" xMax="1145" yMax="1721">
      <component glyphName="G" x="0" y="0" flags="0x0"/>
      <component glyphName="uni0302.LP" x="1154" y="320" flags="0x0"/>
    </TTGlyph>
    <TTGlyph name="Gdotaccent" xMin="70" yMin="-30" xMax="1145" yMax="1636">
      <component glyphName="G" x="0" y="0" flags="0x0"/>
      <component glyphName="uni0307.LP" x="1155" y="320" flags="0x0"/>
    </TTGlyph>
    <TTGlyph name="H" xMin="50" yMin="0" xMax="1270" yMax="1260">
      <contour>
        <pt x="50" y="0" on="1"/>
        <pt x="50" y="43" on="1"/>
        <pt x="118" y="57" on="0"/>
        <pt x="195" y="90" on="0"/>
        <pt x="195" y="104" on="1"/>
        <pt x="195" y="1155" on="1"/>
        <pt x="195" y="1167" on="0"/>
        <pt x="122" y="1203" on="0"/>
        <pt x="50" y="1217" on="1"/>
        <pt x="50" y="1260" on="1"/>
        <pt x="500" y="1260" on="1"/>
        <pt x="500" y="1217" on="1"/>
        <pt x="432" y="1203" on="0"/>
        <pt x="355" y="1169" on="0"/>
        <pt x="355" y="1155" on="1"/>
        <pt x="355" y="705" on="1"/>
        <pt x="965" y="705" on="1"/>
        <pt x="965" y="1155" on="1"/>
        <pt x="965" y="1167" on="0"/>
        <pt x="892" y="1203" on="0"/>
        <pt x="820" y="1217" on="1"/>
        <pt x="820" y="1260" on="1"/>
        <pt x="1270" y="1260" on="1"/>
        <pt x="1270" y="1217" on="1"/>
        <pt x="1202" y="1203" on="0"/>
        <pt x="1125" y="1169" on="0"/>
        <pt x="1125" y="1155" on="1"/>
        <pt x="1125" y="104" on="1"/>
        <pt x="1125" y="92" on="0"/>
        <pt x="1198" y="57" on="0"/>
        <pt x="1270" y="43" on="1"/>
        <pt x="1270" y="0" on="1"/>
        <pt x="820" y="0" on="1"/>
        <pt x="820" y="43" on="1"/>
        <pt x="888" y="57" on="0"/>
        <pt x="965" y="90" on="0"/>
        <pt x="965" y="104" on="1"/>
        <pt x="965" y="615" on="1"/>
        <pt x="355" y="615" on="1"/>
        <pt x="355" y="104" on="1"/>
        <pt x="355" y="92" on="0"/>
        <pt x="427" y="57" on="0"/>
        <pt x="500" y="43" on="1"/>
        <pt x="500" y="0" on="1"/>
      </contour>
    </TTGlyph>
    <TTGlyph name="Hcircumflex" xMin="50" yMin="0" xMax="1270" yMax="1721">
      <component glyphName="H" x="0" y="0" flags="0x0"/>
      <component glyphName="uni0302.LP" x="1174" y="320" flags="0x0"/>
    </TTGlyph>
    <TTGlyph name="I" xMin="70" yMin="0" xMax="520" yMax="1260">
      <contour>
        <pt x="70" y="0" on="1"/>
        <pt x="70" y="43" on="1"/>
        <pt x="138" y="57" on="0"/>
        <pt x="215" y="90" on="0"/>
        <pt x="215" y="104" on="1"/>
        <pt x="215" y="1155" on="1"/>
        <pt x="215" y="1167" on="0"/>
        <pt x="142" y="1203" on="0"/>
        <pt x="70" y="1217" on="1"/>
        <pt x="70" y="1260" on="1"/>
        <pt x="520" y="1260" on="1"/>
        <pt x="520" y="1217" on="1"/>
        <pt x="452" y="1203" on="0"/>
        <pt x="375" y="1169" on="0"/>
        <pt x="375" y="1155" on="1"/>
        <pt x="375" y="104" on="1"/>
        <pt x="375" y="92" on="0"/>
        <pt x="448" y="57" on="0"/>
        <pt x="520" y="43" on="1"/>
        <pt x="520" y="0" on="1"/>
      </contour>
    </TTGlyph>
    <TTGlyph name="IJ" xMin="70" yMin="-380" xMax="1165" yMax="1260">
      <component glyphName="I" x="0" y="0" flags="0x0"/>
      <component glyphName="J" x="610" y="0" flags="0x0"/>
    </TTGlyph>
    <TTGlyph name="Iacute" xMin="70" yMin="0" xMax="632" yMax="1729">
      <component glyphName="I" x="0" y="0" flags="0x0"/>
      <component glyphName="acutecomb.LP" x="838" y="320" flags="0x0"/>
    </TTGlyph>
    <TTGlyph name="Ibreve" xMin="-30" yMin="0" xMax="620" yMax="1725">
      <component glyphName="I" x="0" y="0" flags="0x0"/>
      <component glyphName="uni0306" x="810" y="320" flags="0x0"/>
    </TTGlyph>
    <TTGlyph name="Icircumflex" xMin="-22" yMin="0" xMax="611" yMax="1721">
      <component glyphName="I" x="0" y="0" flags="0x0"/>
      <component glyphName="uni0302.LP" x="809" y="320" flags="0x0"/>
    </TTGlyph>
    <TTGlyph name="Idieresis" xMin="-5" yMin="0" xMax="595" yMax="1636">
      <component glyphName="I" x="0" y="0" flags="0x0"/>
      <component glyphName="uni0308.LP" x="810" y="320" flags="0x0"/>
    </TTGlyph>
    <TTGlyph name="Idotaccent" xMin="70" yMin="0" xMax="520" yMax="1636">
      <component glyphName="I" x="0" y="0" flags="0x0"/>
      <component glyphName="uni0307.LP" x="810" y="320" flags="0x0"/>
    </TTGlyph>
    <TTGlyph name="Igrave" xMin="-42" yMin="0" xMax="520" yMax="1729">
      <component glyphName="I" x="0" y="0" flags="0x0"/>
      <component glyphName="gravecomb.LP" x="728" y="320" flags="0x0"/>
    </TTGlyph>
    <TTGlyph name="Imacron" xMin="47" yMin="0" xMax="563" yMax="1625">
      <component glyphName="I" x="0" y="0" flags="0x0"/>
      <component glyphName="uni0304.Short" x="820" y="320" flags="0x0"/>
    </TTGlyph>
    <TTGlyph name="Itilde" xMin="-46" yMin="0" xMax="636" yMax="1649">
      <component glyphName="I" x="0" y="0" flags="0x0"/>
      <component glyphName="tildecomb.LP" x="810" y="320" flags="0x0"/>
    </TTGlyph>
    <TTGlyph name="J" xMin="-190" yMin="-380" xMax="555" yMax="1260">
      <contour>
        <pt x="555" y="1217" on="1"/>
        <pt x="487" y="1203" on="0"/>
        <pt x="410" y="1169" on="0"/>
        <pt x="410" y="1155" on="1"/>
        <pt x="410" y="205" on="1"/>
        <pt x="410" y="86" on="0"/>
        <pt x="377" y="-73" on="0"/>
        <pt x="322" y="-183" on="0"/>
        <pt x="250" y="-256" on="0"/>
        <pt x="211" y="-288" on="1"/>
        <pt x="184" y="-310" on="0"/>
        <pt x="119" y="-344" on="0"/>
        <pt x="53" y="-368" on="0"/>
        <pt x="-6" y="-380" on="0"/>
        <pt x="-25" y="-380" on="1"/>
        <pt x="-55" y="-380" on="0"/>
        <pt x="-115" y="-361" on="0"/>
        <pt x="-161" y="-336" on="0"/>
        <pt x="-190" y="-309" on="0"/>
        <pt x="-190" y="-300" on="1"/>
        <pt x="-190" y="-292" on="0"/>
        <pt x="-164" y="-262" on="0"/>
        <pt x="-128" y="-232" on="0"/>
        <pt x="-88" y="-205" on="0"/>
        <pt x="-74" y="-200" on="1"/>
        <pt x="-46" y="-218" on="0"/>
        <pt x="-4" y="-241" on="0"/>
        <pt x="32" y="-253" on="0"/>
        <pt x="65" y="-257" on="0"/>
        <pt x="84" y="-257" on="1"/>
        <pt x="110" y="-257" on="0"/>
        <pt x="169" y="-223" on="0"/>
        <pt x="218" y="-136" on="0"/>
        <pt x="250" y="16" on="0"/>
        <pt x="250" y="133" on="1"/>
        <pt x="250" y="1155" on="1"/>
        <pt x="250" y="1161" on="0"/>
        <pt x="234" y="1175" on="0"/>
        <pt x="191" y="1191" on="0"/>
        <pt x="115" y="1208" on="0"/>
        <pt x="55" y="1217" on="1"/>
        <pt x="55" y="1260" on="1"/>
        <pt x="555" y="1260" on="1"/>
      </contour>
    </TTGlyph>
    <TTGlyph name="K" xMin="50" yMin="-14" xMax="1174" yMax="1260">
      <contour>
        <pt x="50" y="0" on="1"/>
        <pt x="50" y="43" on="1"/>
        <pt x="118" y="57" on="0"/>
        <pt x="195" y="90" on="0"/>
        <pt x="195" y="104" on="1"/>
        <pt x="195" y="1155" on="1"/>
        <pt x="195" y="1167" on="0"/>
        <pt x="122" y="1203" on="0"/>
        <pt x="50" y="1217" on="1"/>
        <pt x="50" y="1260" on="1"/>
        <pt x="500" y="1260" on="1"/>
        <pt x="500" y="1217" on="1"/>
        <pt x="432" y="1203" on="0"/>
        <pt x="355" y="1169" on="0"/>
        <pt x="355" y="1155" on="1"/>
        <pt x="355" y="646" on="1"/>
        <pt x="764" y="1128" on="1"/>
        <pt x="787" y="1155" on="0"/>
        <pt x="799" y="1187" on="0"/>
        <pt x="779" y="1205" on="0"/>
        <pt x="729" y="1214" on="0"/>
        <pt x="690" y="1217" on="1"/>
        <pt x="690" y="1260" on="1"/>
        <pt x="1110" y="1260" on="1"/>
        <pt x="1110" y="1217" on="1"/>
        <pt x="1078" y="1213" on="0"/>
        <pt x="1028" y="1205" on="0"/>
        <pt x="988" y="1192" on="0"/>
        <pt x="955" y="1172" on="0"/>
        <pt x="940" y="1155" on="1"/>
        <pt x="502" y="671" on="1"/>
        <pt x="985" y="127" on="1"/>
        <pt x="1003" y="107" on="0"/>
        <pt x="1044" y="85" on="0"/>
        <pt x="1091" y="76" on="0"/>
        <pt x="1141" y="77" on="0"/>
        <pt x="1167" y="80" on="1"/>
        <pt x="1174" y="37" on="1"/>
        <pt x="1115" y="18" on="0"/>
        <pt x="996" y="-14" on="0"/>
        <pt x="948" y="-14" on="1"/>
        <pt x="919" y="-14" on="0"/>
        <pt x="874" y="4" on="0"/>
        <pt x="854" y="29" on="1"/>
        <pt x="355" y="639" on="1"/>
        <pt x="355" y="104" on="1"/>
        <pt x="355" y="92" on="0"/>
        <pt x="427" y="57" on="0"/>
        <pt x="500" y="43" on="1"/>
        <pt x="500" y="0" on="1"/>
      </contour>
    </TTGlyph>
    <TTGlyph name="L" xMin="50" yMin="0" xMax="944" yMax="1260">
      <contour>
        <pt x="944" y="244" on="1"/>
        <pt x="936" y="157" on="0"/>
        <pt x="911" y="29" on="0"/>
        <pt x="903" y="0" on="1"/>
        <pt x="50" y="0" on="1"/>
        <pt x="50" y="43" on="1"/>
        <pt x="118" y="57" on="0"/>
        <pt x="195" y="90" on="0"/>
        <pt x="195" y="104" on="1"/>
        <pt x="195" y="1155" on="1"/>
        <pt x="195" y="1167" on="0"/>
        <pt x="122" y="1203" on="0"/>
        <pt x="50" y="1217" on="1"/>
        <pt x="50" y="1260" on="1"/>
        <pt x="500" y="1260" on="1"/>
        <pt x="500" y="1217" on="1"/>
        <pt x="432" y="1203" on="0"/>
        <pt x="355" y="1169" on="0"/>
        <pt x="355" y="1155" on="1"/>
        <pt x="355" y="164" on="1"/>
        <pt x="355" y="146" on="0"/>
        <pt x="372" y="119" on="0"/>
        <pt x="414" y="100" on="0"/>
        <pt x="486" y="90" on="0"/>
        <pt x="541" y="90" on="1"/>
        <pt x="684" y="90" on="1"/>
        <pt x="730" y="90" on="0"/>
        <pt x="793" y="100" on="0"/>
        <pt x="841" y="135" on="0"/>
        <pt x="880" y="203" on="0"/>
        <pt x="901" y="262" on="1"/>
      </contour>
    </TTGlyph>
    <TTGlyph name="Lacute" xMin="50" yMin="0" xMax="944" yMax="1729">
      <component glyphName="L" x="0" y="0" flags="0x0"/>
      <component glyphName="acutecomb.LP" x="1010" y="320" flags="0x0"/>
    </TTGlyph>
    <TTGlyph name="Lslash" xMin="41" yMin="0" xMax="944" yMax="1260">
      <contour>
        <pt x="944" y="244" on="1"/>
        <pt x="936" y="157" on="0"/>
        <pt x="911" y="29" on="0"/>
        <pt x="903" y="0" on="1"/>
        <pt x="50" y="0" on="1"/>
        <pt x="50" y="43" on="1"/>
        <pt x="118" y="57" on="0"/>
        <pt x="195" y="90" on="0"/>
        <pt x="195" y="104" on="1"/>
        <pt x="195" y="533" on="1"/>
        <pt x="68" y="469" on="1"/>
        <pt x="41" y="491" on="1"/>
        <pt x="44" y="500" on="0"/>
        <pt x="56" y="526" on="0"/>
        <pt x="71" y="552" on="0"/>
        <pt x="86" y="574" on="0"/>
        <pt x="92" y="580" on="1"/>
        <pt x="195" y="632" on="1"/>
        <pt x="195" y="1155" on="1"/>
        <pt x="195" y="1167" on="0"/>
        <pt x="122" y="1203" on="0"/>
        <pt x="50" y="1217" on="1"/>
        <pt x="50" y="1260" on="1"/>
        <pt x="500" y="1260" on="1"/>
        <pt x="500" y="1217" on="1"/>
        <pt x="432" y="1203" on="0"/>
        <pt x="355" y="1169" on="0"/>
        <pt x="355" y="1155" on="1"/>
        <pt x="355" y="712" on="1"/>
        <pt x="633" y="853" on="1"/>
        <pt x="659" y="828" on="1"/>
        <pt x="651" y="810" on="0"/>
        <pt x="620" y="758" on="0"/>
        <pt x="606" y="741" on="1"/>
        <pt x="355" y="614" on="1"/>
        <pt x="355" y="164" on="1"/>
        <pt x="355" y="146" on="0"/>
        <pt x="372" y="119" on="0"/>
        <pt x="414" y="100" on="0"/>
        <pt x="486" y="90" on="0"/>
        <pt x="541" y="90" on="1"/>
        <pt x="684" y="90" on="1"/>
        <pt x="730" y="90" on="0"/>
        <pt x="793" y="100" on="0"/>
        <pt x="841" y="135" on="0"/>
        <pt x="880" y="203" on="0"/>
        <pt x="901" y="262" on="1"/>
      </contour>
    </TTGlyph>
    <TTGlyph name="M" xMin="60" yMin="0" xMax="1570" yMax="1260">
      <contour>
        <pt x="1550" y="1217" on="1"/>
        <pt x="1521" y="1217" on="0"/>
        <pt x="1450" y="1198" on="0"/>
        <pt x="1415" y="1181" on="1"/>
        <pt x="1425" y="104" on="1"/>
        <pt x="1425" y="92" on="0"/>
        <pt x="1498" y="57" on="0"/>
        <pt x="1570" y="43" on="1"/>
        <pt x="1570" y="0" on="1"/>
        <pt x="1115" y="0" on="1"/>
        <pt x="1115" y="43" on="1"/>
        <pt x="1183" y="57" on="0"/>
        <pt x="1270" y="90" on="0"/>
        <pt x="1270" y="104" on="1"/>
        <pt x="1261" y="1040" on="1"/>
        <pt x="823" y="0" on="1"/>
        <pt x="774" y="0" on="1"/>
        <pt x="329" y="1033" on="1"/>
        <pt x="320" y="104" on="1"/>
        <pt x="320" y="92" on="0"/>
        <pt x="393" y="57" on="0"/>
        <pt x="465" y="43" on="1"/>
        <pt x="465" y="0" on="1"/>
        <pt x="60" y="0" on="1"/>
        <pt x="60" y="43" on="1"/>
        <pt x="129" y="57" on="0"/>
        <pt x="205" y="90" on="0"/>
        <pt x="205" y="104" on="1"/>
        <pt x="215" y="1177" on="1"/>
        <pt x="177" y="1199" on="0"/>
        <pt x="100" y="1217" on="0"/>
        <pt x="70" y="1217" on="1"/>
        <pt x="70" y="1260" on="1"/>
        <pt x="356" y="1260" on="1"/>
        <pt x="366" y="1260" on="0"/>
        <pt x="380" y="1254" on="0"/>
        <pt x="393" y="1236" on="0"/>
        <pt x="408" y="1203" on="0"/>
        <pt x="420" y="1176" on="1"/>
        <pt x="818" y="274" on="1"/>
        <pt x="1200" y="1176" on="1"/>
        <pt x="1213" y="1206" on="0"/>
        <pt x="1229" y="1240" on="0"/>
        <pt x="1242" y="1256" on="0"/>
        <pt x="1255" y="1260" on="0"/>
        <pt x="1264" y="1260" on="1"/>
        <pt x="1550" y="1260" on="1"/>
      </contour>
    </TTGlyph>
    <TTGlyph name="N" xMin="50" yMin="-30" xMax="1280" yMax="1260">
      <contour>
        <pt x="50" y="0" on="1"/>
        <pt x="50" y="43" on="1"/>
        <pt x="124" y="52" on="0"/>
        <pt x="195" y="90" on="0"/>
        <pt x="195" y="104" on="1"/>
        <pt x="195" y="1149" on="1"/>
        <pt x="162" y="1180" on="0"/>
        <pt x="89" y="1211" on="0"/>
        <pt x="50" y="1217" on="1"/>
        <pt x="50" y="1260" on="1"/>
        <pt x="262" y="1260" on="1"/>
        <pt x="277" y="1260" on="0"/>
        <pt x="296" y="1255" on="0"/>
        <pt x="316" y="1239" on="0"/>
        <pt x="339" y="1208" on="0"/>
        <pt x="358" y="1182" on="1"/>
        <pt x="1015" y="276" on="1"/>
        <pt x="1015" y="1155" on="1"/>
        <pt x="1015" y="1167" on="0"/>
        <pt x="950" y="1206" on="0"/>
        <pt x="870" y="1217" on="1"/>
        <pt x="870" y="1260" on="1"/>
        <pt x="1280" y="1260" on="1"/>
        <pt x="1280" y="1217" on="1"/>
        <pt x="1208" y="1207" on="0"/>
        <pt x="1135" y="1169" on="0"/>
        <pt x="1135" y="1155" on="1"/>
        <pt x="1135" y="-30" on="1"/>
        <pt x="1085" y="-24" on="0"/>
        <pt x="1028" y="4" on="0"/>
        <pt x="1016" y="21" on="1"/>
        <pt x="315" y="993" on="1"/>
        <pt x="315" y="104" on="1"/>
        <pt x="315" y="92" on="0"/>
        <pt x="382" y="54" on="0"/>
        <pt x="460" y="43" on="1"/>
        <pt x="460" y="0" on="1"/>
      </contour>
    </TTGlyph>
    <TTGlyph name="Nacute" xMin="50" yMin="-30" xMax="1280" yMax="1729">
      <component glyphName="N" x="0" y="0" flags="0x0"/>
      <component glyphName="acutecomb.LP" x="1208" y="320" flags="0x0"/>
    </TTGlyph>
    <TTGlyph name="Ncaron" xMin="50" yMin="-30" xMax="1280" yMax="1745">
      <component glyphName="N" x="0" y="0" flags="0x0"/>
      <component glyphName="uni030C.LP" x="1179" y="320" flags="0x0"/>
    </TTGlyph>
    <TTGlyph name="Ntilde" xMin="50" yMin="-30" xMax="1280" yMax="1649">
      <component glyphName="N" x="0" y="0" flags="0x0"/>
      <component glyphName="tildecomb.LP" x="1180" y="320" flags="0x0"/>
    </TTGlyph>
    <TTGlyph name="O" xMin="70" yMin="-30" xMax="1138" yMax="1290">
      <contour>
        <pt x="983" y="629" on="1"/>
        <pt x="983" y="698" on="0"/>
        <pt x="958" y="833" on="0"/>
        <pt x="912" y="954" on="0"/>
        <pt x="845" y="1057" on="0"/>
        <pt x="761" y="1132" on="0"/>
        <pt x="661" y="1175" on="0"/>
        <pt x="604" y="1175" on="1"/>
        <pt x="515" y="1175" on="0"/>
        <pt x="374" y="1100" on="0"/>
        <pt x="277" y="961" on="0"/>
        <pt x="225" y="763" on="0"/>
        <pt x="225" y="641" on="1"/>
        <pt x="225" y="529" on="0"/>
        <pt x="286" y="329" on="0"/>
        <pt x="389" y="178" on="0"/>
        <pt x="527" y="90" on="0"/>
        <pt x="604" y="90" on="1"/>
        <pt x="687" y="90" on="0"/>
        <pt x="826" y="159" on="0"/>
        <pt x="927" y="295" on="0"/>
        <pt x="983" y="497" on="0"/>
      </contour>
      <contour>
        <pt x="1138" y="647" on="1"/>
        <pt x="1138" y="511" on="0"/>
        <pt x="1048" y="266" on="0"/>
        <pt x="893" y="80" on="0"/>
        <pt x="689" y="-30" on="0"/>
        <pt x="575" y="-30" on="1"/>
        <pt x="455" y="-30" on="0"/>
        <pt x="267" y="76" on="0"/>
        <pt x="138" y="254" on="0"/>
        <pt x="70" y="486" on="0"/>
        <pt x="70" y="612" on="1"/>
        <pt x="70" y="748" on="0"/>
        <pt x="158" y="994" on="0"/>
        <pt x="310" y="1180" on="0"/>
        <pt x="515" y="1290" on="0"/>
        <pt x="633" y="1290" on="1"/>
        <pt x="757" y="1290" on="0"/>
        <pt x="945" y="1181" on="0"/>
        <pt x="1073" y="1001" on="0"/>
        <pt x="1138" y="769" on="0"/>
      </contour>
    </TTGlyph>
    <TTGlyph name="OE" xMin="70" yMin="-30" xMax="1575" yMax="1290">
      <contour>
        <pt x="604" y="90" on="1"/>
        <pt x="644" y="90" on="0"/>
        <pt x="714" y="93" on="0"/>
        <pt x="775" y="103" on="0"/>
        <pt x="829" y="122" on="0"/>
        <pt x="854" y="139" on="1"/>
        <pt x="854" y="1099" on="1"/>
        <pt x="801" y="1140" on="0"/>
        <pt x="675" y="1176" on="0"/>
        <pt x="604" y="1176" on="1"/>
        <pt x="515" y="1176" on="0"/>
        <pt x="374" y="1100" on="0"/>
        <pt x="277" y="961" on="0"/>
        <pt x="225" y="763" on="0"/>
        <pt x="225" y="641" on="1"/>
        <pt x="225" y="529" on="0"/>
        <pt x="286" y="329" on="0"/>
        <pt x="389" y="178" on="0"/>
        <pt x="527" y="90" on="0"/>
      </contour>
      <contour>
        <pt x="1575" y="244" on="1"/>
        <pt x="1567" y="157" on="0"/>
        <pt x="1542" y="29" on="0"/>
        <pt x="1534" y="0" on="1"/>
        <pt x="880" y="0" on="1"/>
        <pt x="827" y="-1" on="0"/>
        <pt x="751" y="-10" on="0"/>
        <pt x="685" y="-21" on="0"/>
        <pt x="619" y="-30" on="0"/>
        <pt x="575" y="-30" on="1"/>
        <pt x="455" y="-30" on="0"/>
        <pt x="267" y="76" on="0"/>
        <pt x="138" y="254" on="0"/>
        <pt x="70" y="486" on="0"/>
        <pt x="70" y="612" on="1"/>
        <pt x="70" y="748" on="0"/>
        <pt x="158" y="994" on="0"/>
        <pt x="310" y="1180" on="0"/>
        <pt x="515" y="1290" on="0"/>
        <pt x="633" y="1290" on="1"/>
        <pt x="673" y="1290" on="0"/>
        <pt x="732" y="1281" on="0"/>
        <pt x="786" y="1270" on="0"/>
        <pt x="845" y="1261" on="0"/>
        <pt x="885" y="1260" on="1"/>
        <pt x="1477" y="1260" on="1"/>
        <pt x="1507" y="1235" on="1"/>
        <pt x="1505" y="1209" on="0"/>
        <pt x="1498" y="1147" on="0"/>
        <pt x="1487" y="1085" on="0"/>
        <pt x="1474" y="1029" on="0"/>
        <pt x="1468" y="1010" on="1"/>
        <pt x="1421" y="1010" on="1"/>
        <pt x="1419" y="1056" on="0"/>
        <pt x="1407" y="1117" on="0"/>
        <pt x="1387" y="1154" on="0"/>
        <pt x="1358" y="1169" on="0"/>
        <pt x="1339" y="1169" on="1"/>
        <pt x="1016" y="1169" on="1"/>
        <pt x="1016" y="735" on="1"/>
        <pt x="1378" y="735" on="1"/>
        <pt x="1407" y="707" on="1"/>
        <pt x="1398" y="693" on="0"/>
        <pt x="1374" y="662" on="0"/>
        <pt x="1349" y="633" on="0"/>
        <pt x="1325" y="608" on="0"/>
        <pt x="1315" y="600" on="1"/>
        <pt x="1300" y="615" on="0"/>
        <pt x="1265" y="635" on="0"/>
        <pt x="1220" y="649" on="0"/>
        <pt x="1158" y="655" on="0"/>
        <pt x="1116" y="655" on="1"/>
        <pt x="1016" y="655" on="1"/>
        <pt x="1016" y="154" on="1"/>
        <pt x="1016" y="139" on="0"/>
        <pt x="1018" y="116" on="0"/>
        <pt x="1046" y="99" on="0"/>
        <pt x="1114" y="90" on="0"/>
        <pt x="1180" y="90" on="1"/>
        <pt x="1309" y="90" on="1"/>
        <pt x="1355" y="90" on="0"/>
        <pt x="1420" y="100" on="0"/>
        <pt x="1469" y="135" on="0"/>
        <pt x="1510" y="203" on="0"/>
        <pt x="1532" y="262" on="1"/>
      </contour>
    </TTGlyph>
    <TTGlyph name="Oacute" xMin="70" yMin="-30" xMax="1138" yMax="1729">
      <component glyphName="O" x="0" y="0" flags="0x0"/>
      <component glyphName="acutecomb.LP" x="1158" y="320" flags="0x0"/>
    </TTGlyph>
    <TTGlyph name="Obreve" xMin="70" yMin="-30" xMax="1138" yMax="1725">
      <component glyphName="O" x="0" y="0" flags="0x0"/>
      <component glyphName="uni0306" x="1130" y="320" flags="0x0"/>
    </TTGlyph>
    <TTGlyph name="Ocircumflex" xMin="70" yMin="-30" xMax="1138" yMax="1721">
      <component glyphName="O" x="0" y="0" flags="0x0"/>
      <component glyphName="uni0302.LP" x="1129" y="320" flags="0x0"/>
    </TTGlyph>
    <TTGlyph name="Odieresis" xMin="70" yMin="-30" xMax="1138" yMax="1636">
      <component glyphName="O" x="0" y="0" flags="0x0"/>
      <component glyphName="uni0308.LP" x="1130" y="320" flags="0x0"/>
    </TTGlyph>
    <TTGlyph name="Ograve" xMin="70" yMin="-30" xMax="1138" yMax="1729">
      <component glyphName="O" x="0" y="0" flags="0x0"/>
      <component glyphName="gravecomb.LP" x="1048" y="320" flags="0x0"/>
    </TTGlyph>
    <TTGlyph name="Ohorn" xMin="70" yMin="-30" xMax="1220" yMax="1495">
      <contour>
        <pt x="983" y="629" on="1"/>
        <pt x="983" y="698" on="0"/>
        <pt x="958" y="833" on="0"/>
        <pt x="912" y="954" on="0"/>
        <pt x="845" y="1057" on="0"/>
        <pt x="761" y="1132" on="0"/>
        <pt x="661" y="1175" on="0"/>
        <pt x="604" y="1175" on="1"/>
        <pt x="515" y="1175" on="0"/>
        <pt x="374" y="1100" on="0"/>
        <pt x="277" y="961" on="0"/>
        <pt x="225" y="763" on="0"/>
        <pt x="225" y="641" on="1"/>
        <pt x="225" y="529" on="0"/>
        <pt x="286" y="329" on="0"/>
        <pt x="389" y="178" on="0"/>
        <pt x="527" y="90" on="0"/>
        <pt x="604" y="90" on="1"/>
        <pt x="687" y="90" on="0"/>
        <pt x="826" y="159" on="0"/>
        <pt x="927" y="295" on="0"/>
        <pt x="983" y="497" on="0"/>
      </contour>
      <contour>
        <pt x="1220" y="1392" on="1"/>
        <pt x="1220" y="1368" on="0"/>
        <pt x="1198" y="1306" on="0"/>
        <pt x="1144" y="1235" on="0"/>
        <pt x="1053" y="1160" on="0"/>
        <pt x="984" y="1123" on="1"/>
        <pt x="1060" y="1030" on="0"/>
        <pt x="1138" y="781" on="0"/>
        <pt x="1138" y="647" on="1"/>
        <pt x="1138" y="511" on="0"/>
        <pt x="1048" y="266" on="0"/>
        <pt x="893" y="80" on="0"/>
        <pt x="689" y="-30" on="0"/>
        <pt x="575" y="-30" on="1"/>
        <pt x="455" y="-30" on="0"/>
        <pt x="267" y="76" on="0"/>
        <pt x="138" y="254" on="0"/>
        <pt x="70" y="486" on="0"/>
        <pt x="70" y="612" on="1"/>
        <pt x="70" y="748" on="0"/>
        <pt x="158" y="994" on="0"/>
        <pt x="310" y="1180" on="0"/>
        <pt x="515" y="1290" on="0"/>
        <pt x="633" y="1290" on="1"/>
        <pt x="725" y="1290" on="0"/>
        <pt x="875" y="1228" on="0"/>
        <pt x="935" y="1174" on="1"/>
        <pt x="995" y="1211" on="0"/>
        <pt x="1048" y="1285" on="0"/>
        <pt x="1048" y="1311" on="1"/>
        <pt x="1048" y="1340" on="0"/>
        <pt x="1018" y="1392" on="0"/>
        <pt x="990" y="1415" on="1"/>
        <pt x="1168" y="1495" on="1"/>
        <pt x="1191" y="1473" on="0"/>
        <pt x="1220" y="1421" on="0"/>
      </contour>
    </TTGlyph>
    <TTGlyph name="Ohungarumlaut" xMin="70" yMin="-30" xMax="1138" yMax="1809">
      <component glyphName="O" x="0" y="0" flags="0x0"/>
      <component glyphName="uni030B" x="1115" y="320" flags="0x0"/>
    </TTGlyph>
    <TTGlyph name="Omacron" xMin="70" yMin="-30" xMax="1138" yMax="1585">
      <component glyphName="O" x="0" y="0" flags="0x0"/>
      <component glyphName="uni0304.LP" x="1140" y="320" flags="0x0"/>
    </TTGlyph>
    <TTGlyph name="Omega" xMin="80" yMin="0" xMax="1176" yMax="1290">
      <component glyphName="uni03A9" x="0" y="0" flags="0x0"/>
    </TTGlyph>
    <TTGlyph name="Oslash" xMin="70" yMin="-53" xMax="1138" yMax="1313">
      <contour>
        <pt x="983" y="629" on="1"/>
        <pt x="983" y="718" on="0"/>
        <pt x="943" y="887" on="0"/>
        <pt x="905" y="959" on="1"/>
        <pt x="377" y="203" on="1"/>
        <pt x="425" y="149" on="0"/>
        <pt x="541" y="90" on="0"/>
        <pt x="604" y="90" on="1"/>
        <pt x="687" y="90" on="0"/>
        <pt x="826" y="159" on="0"/>
        <pt x="927" y="295" on="0"/>
        <pt x="983" y="497" on="0"/>
      </contour>
      <contour>
        <pt x="225" y="641" on="1"/>
        <pt x="225" y="547" on="0"/>
        <pt x="267" y="377" on="0"/>
        <pt x="305" y="307" on="1"/>
        <pt x="834" y="1063" on="1"/>
        <pt x="788" y="1115" on="0"/>
        <pt x="672" y="1175" on="0"/>
        <pt x="604" y="1175" on="1"/>
        <pt x="515" y="1175" on="0"/>
        <pt x="374" y="1100" on="0"/>
        <pt x="277" y="961" on="0"/>
        <pt x="225" y="763" on="0"/>
      </contour>
      <contour>
        <pt x="1003" y="1099" on="1"/>
        <pt x="1070" y="1008" on="0"/>
        <pt x="1138" y="772" on="0"/>
        <pt x="1138" y="647" on="1"/>
        <pt x="1138" y="511" on="0"/>
        <pt x="1048" y="266" on="0"/>
        <pt x="893" y="80" on="0"/>
        <pt x="689" y="-30" on="0"/>
        <pt x="575" y="-30" on="1"/>
        <pt x="488" y="-30" on="0"/>
        <pt x="345" y="25" on="0"/>
        <pt x="286" y="74" on="1"/>
        <pt x="233" y="-2" on="1"/>
        <pt x="224" y="-10" on="0"/>
        <pt x="191" y="-25" on="0"/>
        <pt x="153" y="-38" on="0"/>
        <pt x="116" y="-49" on="0"/>
        <pt x="104" y="-53" on="1"/>
        <pt x="76" y="-20" on="1"/>
        <pt x="204" y="162" on="1"/>
        <pt x="138" y="252" on="0"/>
        <pt x="70" y="484" on="0"/>
        <pt x="70" y="612" on="1"/>
        <pt x="70" y="748" on="0"/>
        <pt x="158" y="994" on="0"/>
        <pt x="310" y="1180" on="0"/>
        <pt x="515" y="1290" on="0"/>
        <pt x="633" y="1290" on="1"/>
        <pt x="720" y="1290" on="0"/>
        <pt x="863" y="1235" on="0"/>
        <pt x="921" y="1187" on="1"/>
        <pt x="975" y="1264" on="1"/>
        <pt x="1003" y="1281" on="0"/>
        <pt x="1071" y="1305" on="0"/>
        <pt x="1102" y="1313" on="1"/>
        <pt x="1130" y="1280" on="1"/>
      </contour>
    </TTGlyph>
    <TTGlyph name="Oslashacute" xMin="70" yMin="-53" xMax="1138" yMax="1729">
      <component glyphName="Oslash" x="0" y="0" flags="0x0"/>
      <component glyphName="acutecomb.LP" x="1147" y="320" flags="0x0"/>
    </TTGlyph>
    <TTGlyph name="Otilde" xMin="70" yMin="-30" xMax="1138" yMax="1649">
      <component glyphName="O" x="0" y="0" flags="0x0"/>
      <component glyphName="tildecomb.LP" x="1130" y="320" flags="0x0"/>
    </TTGlyph>
    <TTGlyph name="P" xMin="41" yMin="0" xMax="982" yMax="1290">
      <contour>
        <pt x="50" y="0" on="1"/>
        <pt x="50" y="43" on="1"/>
        <pt x="118" y="57" on="0"/>
        <pt x="195" y="90" on="0"/>
        <pt x="195" y="104" on="1"/>
        <pt x="195" y="1190" on="1"/>
        <pt x="158" y="1185" on="0"/>
        <pt x="85" y="1174" on="0"/>
        <pt x="50" y="1168" on="1"/>
        <pt x="41" y="1230" on="1"/>
        <pt x="89" y="1243" on="0"/>
        <pt x="202" y="1265" on="0"/>
        <pt x="324" y="1281" on="0"/>
        <pt x="449" y="1290" on="0"/>
        <pt x="510" y="1290" on="1"/>
        <pt x="618" y="1290" on="0"/>
        <pt x="792" y="1244" on="0"/>
        <pt x="915" y="1154" on="0"/>
        <pt x="982" y="1022" on="0"/>
        <pt x="982" y="936" on="1"/>
        <pt x="982" y="867" on="0"/>
        <pt x="943" y="753" on="0"/>
        <pt x="878" y="664" on="0"/>
        <pt x="794" y="599" on="0"/>
        <pt x="703" y="556" on="0"/>
        <pt x="612" y="535" on="0"/>
        <pt x="573" y="535" on="1"/>
        <pt x="479" y="535" on="0"/>
        <pt x="412" y="565" on="1"/>
        <pt x="389" y="640" on="1"/>
        <pt x="431" y="621" on="0"/>
        <pt x="508" y="610" on="0"/>
        <pt x="543" y="610" on="1"/>
        <pt x="589" y="610" on="0"/>
        <pt x="689" y="646" on="0"/>
        <pt x="773" y="718" on="0"/>
        <pt x="827" y="824" on="0"/>
        <pt x="827" y="895" on="1"/>
        <pt x="827" y="977" on="0"/>
        <pt x="768" y="1095" on="0"/>
        <pt x="666" y="1170" on="0"/>
        <pt x="530" y="1206" on="0"/>
        <pt x="453" y="1206" on="1"/>
        <pt x="428" y="1206" on="0"/>
        <pt x="379" y="1205" on="0"/>
        <pt x="355" y="1204" on="1"/>
        <pt x="355" y="104" on="1"/>
        <pt x="355" y="98" on="0"/>
        <pt x="371" y="84" on="0"/>
        <pt x="410" y="68" on="0"/>
        <pt x="478" y="52" on="0"/>
        <pt x="530" y="43" on="1"/>
        <pt x="530" y="0" on="1"/>
      </contour>
    </TTGlyph>
    <TTGlyph name="Pi" xMin="49" yMin="0" xMax="1221" yMax="1260">
      <contour>
        <pt x="49" y="0" on="1"/>
        <pt x="49" y="43" on="1"/>
        <pt x="117" y="57" on="0"/>
        <pt x="195" y="90" on="0"/>
        <pt x="195" y="104" on="1"/>
        <pt x="195" y="1155" on="1"/>
        <pt x="195" y="1167" on="0"/>
        <pt x="121" y="1203" on="0"/>
        <pt x="49" y="1217" on="1"/>
        <pt x="49" y="1260" on="1"/>
        <pt x="1221" y="1260" on="1"/>
        <pt x="1221" y="1217" on="1"/>
        <pt x="1152" y="1203" on="0"/>
        <pt x="1075" y="1169" on="0"/>
        <pt x="1075" y="1155" on="1"/>
        <pt x="1075" y="104" on="1"/>
        <pt x="1075" y="92" on="0"/>
        <pt x="1148" y="57" on="0"/>
        <pt x="1221" y="43" on="1"/>
        <pt x="1221" y="0" on="1"/>
        <pt x="770" y="0" on="1"/>
        <pt x="770" y="43" on="1"/>
        <pt x="838" y="57" on="0"/>
        <pt x="915" y="90" on="0"/>
        <pt x="915" y="104" on="1"/>
        <pt x="915" y="1107" on="1"/>
        <pt x="915" y="1119" on="0"/>
        <pt x="888" y="1143" on="0"/>
        <pt x="836" y="1163" on="0"/>
        <pt x="759" y="1176" on="0"/>
        <pt x="710" y="1176" on="1"/>
        <pt x="544" y="1176" on="1"/>
        <pt x="497" y="1175" on="0"/>
        <pt x="426" y="1162" on="0"/>
        <pt x="379" y="1143" on="0"/>
        <pt x="355" y="1119" on="0"/>
        <pt x="355" y="1107" on="1"/>
        <pt x="355" y="104" on="1"/>
        <pt x="355" y="92" on="0"/>
        <pt x="427" y="57" on="0"/>
        <pt x="500" y="43" on="1"/>
        <pt x="500" y="0" on="1"/>
      </contour>
    </TTGlyph>
    <TTGlyph name="Q" xMin="70" yMin="-305" xMax="1282" yMax="1290">
      <contour>
        <pt x="983" y="629" on="1"/>
        <pt x="983" y="698" on="0"/>
        <pt x="958" y="833" on="0"/>
        <pt x="912" y="954" on="0"/>
        <pt x="845" y="1057" on="0"/>
        <pt x="761" y="1132" on="0"/>
        <pt x="661" y="1175" on="0"/>
        <pt x="604" y="1175" on="1"/>
        <pt x="515" y="1175" on="0"/>
        <pt x="374" y="1100" on="0"/>
        <pt x="277" y="961" on="0"/>
        <pt x="225" y="763" on="0"/>
        <pt x="225" y="641" on="1"/>
        <pt x="225" y="529" on="0"/>
        <pt x="286" y="329" on="0"/>
        <pt x="389" y="178" on="0"/>
        <pt x="527" y="90" on="0"/>
        <pt x="604" y="90" on="1"/>
        <pt x="687" y="90" on="0"/>
        <pt x="826" y="159" on="0"/>
        <pt x="927" y="295" on="0"/>
        <pt x="983" y="497" on="0"/>
      </contour>
      <contour>
        <pt x="1282" y="-117" on="1"/>
        <pt x="1258" y="-161" on="0"/>
        <pt x="1208" y="-230" on="0"/>
        <pt x="1160" y="-279" on="0"/>
        <pt x="1117" y="-305" on="0"/>
        <pt x="1102" y="-305" on="1"/>
        <pt x="1040" y="-305" on="0"/>
        <pt x="919" y="-244" on="0"/>
        <pt x="799" y="-157" on="0"/>
        <pt x="680" y="-62" on="0"/>
        <pt x="620" y="-27" on="1"/>
        <pt x="597" y="-30" on="0"/>
        <pt x="575" y="-30" on="1"/>
        <pt x="465" y="-30" on="0"/>
        <pt x="279" y="72" on="0"/>
        <pt x="145" y="246" on="0"/>
        <pt x="70" y="480" on="0"/>
        <pt x="70" y="612" on="1"/>
        <pt x="70" y="748" on="0"/>
        <pt x="158" y="994" on="0"/>
        <pt x="310" y="1180" on="0"/>
        <pt x="515" y="1290" on="0"/>
        <pt x="633" y="1290" on="1"/>
        <pt x="757" y="1290" on="0"/>
        <pt x="945" y="1181" on="0"/>
        <pt x="1073" y="1001" on="0"/>
        <pt x="1138" y="769" on="0"/>
        <pt x="1138" y="647" on="1"/>
        <pt x="1138" y="541" on="0"/>
        <pt x="1082" y="343" on="0"/>
        <pt x="982" y="176" on="0"/>
        <pt x="845" y="48" on="0"/>
        <pt x="765" y="12" on="1"/>
        <pt x="811" y="-12" on="0"/>
        <pt x="902" y="-72" on="0"/>
        <pt x="989" y="-124" on="0"/>
        <pt x="1071" y="-160" on="0"/>
        <pt x="1108" y="-160" on="1"/>
        <pt x="1120" y="-160" on="0"/>
        <pt x="1147" y="-152" on="0"/>
        <pt x="1181" y="-134" on="0"/>
        <pt x="1225" y="-104" on="0"/>
        <pt x="1255" y="-82" on="1"/>
      </contour>
    </TTGlyph>
    <TTGlyph name="R" xMin="41" yMin="-14" xMax="1139" yMax="1290">
      <contour>
        <pt x="50" y="0" on="1"/>
        <pt x="50" y="43" on="1"/>
        <pt x="118" y="57" on="0"/>
        <pt x="195" y="90" on="0"/>
        <pt x="195" y="104" on="1"/>
        <pt x="195" y="1189" on="1"/>
        <pt x="160" y="1184" on="0"/>
        <pt x="87" y="1173" on="0"/>
        <pt x="50" y="1168" on="1"/>
        <pt x="41" y="1230" on="1"/>
        <pt x="88" y="1242" on="0"/>
        <pt x="184" y="1263" on="0"/>
        <pt x="288" y="1280" on="0"/>
        <pt x="403" y="1290" on="0"/>
        <pt x="469" y="1290" on="1"/>
        <pt x="585" y="1290" on="0"/>
        <pt x="757" y="1244" on="0"/>
        <pt x="871" y="1162" on="0"/>
        <pt x="927" y="1051" on="0"/>
        <pt x="927" y="987" on="1"/>
        <pt x="927" y="915" on="0"/>
        <pt x="886" y="798" on="0"/>
        <pt x="811" y="708" on="0"/>
        <pt x="707" y="644" on="0"/>
        <pt x="645" y="625" on="1"/>
        <pt x="948" y="139" on="1"/>
        <pt x="963" y="117" on="0"/>
        <pt x="998" y="91" on="0"/>
        <pt x="1041" y="78" on="0"/>
        <pt x="1094" y="77" on="0"/>
        <pt x="1128" y="80" on="1"/>
        <pt x="1139" y="37" on="1"/>
        <pt x="1073" y="15" on="0"/>
        <pt x="954" y="-14" on="0"/>
        <pt x="915" y="-14" on="1"/>
        <pt x="886" y="-14" on="0"/>
        <pt x="831" y="18" on="0"/>
        <pt x="817" y="41" on="1"/>
        <pt x="514" y="602" on="1"/>
        <pt x="501" y="600" on="0"/>
        <pt x="488" y="600" on="1"/>
        <pt x="461" y="600" on="1"/>
        <pt x="435" y="600" on="0"/>
        <pt x="383" y="605" on="0"/>
        <pt x="355" y="611" on="1"/>
        <pt x="355" y="104" on="1"/>
        <pt x="355" y="92" on="0"/>
        <pt x="427" y="57" on="0"/>
        <pt x="500" y="43" on="1"/>
        <pt x="500" y="0" on="1"/>
      </contour>
      <contour>
        <pt x="432" y="1206" on="1"/>
        <pt x="394" y="1206" on="0"/>
        <pt x="355" y="1203" on="1"/>
        <pt x="355" y="691" on="1"/>
        <pt x="382" y="686" on="0"/>
        <pt x="422" y="684" on="0"/>
        <pt x="444" y="684" on="1"/>
        <pt x="602" y="684" on="0"/>
        <pt x="772" y="823" on="0"/>
        <pt x="772" y="956" on="1"/>
        <pt x="772" y="1011" on="0"/>
        <pt x="733" y="1103" on="0"/>
        <pt x="650" y="1169" on="0"/>
        <pt x="521" y="1206" on="0"/>
      </contour>
    </TTGlyph>
    <TTGlyph name="Racute" xMin="41" yMin="-14" xMax="1139" yMax="1729">
      <component glyphName="R" x="0" y="0" flags="0x0"/>
      <component glyphName="acutecomb.LP" x="1063" y="320" flags="0x0"/>
    </TTGlyph>
    <TTGlyph name="Rcaron" xMin="41" yMin="-14" xMax="1139" yMax="1745">
      <component glyphName="R" x="0" y="0" flags="0x0"/>
      <component glyphName="uni030C.LP" x="1034" y="320" flags="0x0"/>
    </TTGlyph>
    <TTGlyph name="S" xMin="117" yMin="-30" xMax="885" yMax="1290">
      <contour>
        <pt x="885" y="377" on="1"/>
        <pt x="885" y="332" on="0"/>
        <pt x="861" y="238" on="0"/>
        <pt x="812" y="147" on="0"/>
        <pt x="739" y="66" on="0"/>
        <pt x="640" y="6" on="0"/>
        <pt x="515" y="-30" on="0"/>
        <pt x="440" y="-30" on="1"/>
        <pt x="407" y="-30" on="0"/>
        <pt x="329" y="-16" on="0"/>
        <pt x="247" y="9" on="0"/>
        <pt x="166" y="45" on="0"/>
        <pt x="131" y="68" on="1"/>
        <pt x="124" y="72" on="0"/>
        <pt x="117" y="132" on="0"/>
        <pt x="117" y="213" on="0"/>
        <pt x="123" y="297" on="0"/>
        <pt x="131" y="324" on="1"/>
        <pt x="172" y="319" on="1"/>
        <pt x="195" y="260" on="0"/>
        <pt x="264" y="174" on="0"/>
        <pt x="348" y="117" on="0"/>
        <pt x="445" y="90" on="0"/>
        <pt x="496" y="90" on="1"/>
        <pt x="541" y="90" on="0"/>
        <pt x="632" y="127" on="0"/>
        <pt x="704" y="191" on="0"/>
        <pt x="750" y="276" on="0"/>
        <pt x="750" y="324" on="1"/>
        <pt x="750" y="385" on="0"/>
        <pt x="696" y="473" on="0"/>
        <pt x="609" y="541" on="0"/>
        <pt x="497" y="595" on="0"/>
        <pt x="380" y="649" on="0"/>
        <pt x="268" y="709" on="0"/>
        <pt x="181" y="789" on="0"/>
        <pt x="127" y="894" on="0"/>
        <pt x="127" y="967" on="1"/>
        <pt x="127" y="998" on="0"/>
        <pt x="145" y="1070" on="0"/>
        <pt x="185" y="1142" on="0"/>
        <pt x="248" y="1209" on="0"/>
        <pt x="337" y="1260" on="0"/>
        <pt x="453" y="1290" on="0"/>
        <pt x="526" y="1290" on="1"/>
        <pt x="571" y="1290" on="0"/>
        <pt x="662" y="1276" on="0"/>
        <pt x="741" y="1252" on="0"/>
        <pt x="805" y="1218" on="0"/>
        <pt x="823" y="1198" on="1"/>
        <pt x="830" y="1192" on="0"/>
        <pt x="817" y="1157" on="0"/>
        <pt x="790" y="1116" on="0"/>
        <pt x="757" y="1076" on="0"/>
        <pt x="745" y="1065" on="1"/>
        <pt x="709" y="1071" on="1"/>
        <pt x="681" y="1104" on="0"/>
        <pt x="620" y="1149" on="0"/>
        <pt x="557" y="1178" on="0"/>
        <pt x="495" y="1190" on="0"/>
        <pt x="467" y="1190" on="1"/>
        <pt x="411" y="1190" on="0"/>
        <pt x="332" y="1156" on="0"/>
        <pt x="281" y="1105" on="0"/>
        <pt x="257" y="1042" on="0"/>
        <pt x="257" y="1014" on="1"/>
        <pt x="257" y="967" on="0"/>
        <pt x="311" y="894" on="0"/>
        <pt x="399" y="833" on="0"/>
        <pt x="512" y="779" on="0"/>
        <pt x="630" y="720" on="0"/>
        <pt x="743" y="652" on="0"/>
        <pt x="831" y="564" on="0"/>
        <pt x="885" y="451" on="0"/>
      </contour>
    </TTGlyph>
    <TTGlyph name="Sacute" xMin="117" yMin="-30" xMax="885" yMax="1729">
      <component glyphName="S" x="0" y="0" flags="0x0"/>
      <component glyphName="acutecomb.LP" x="1043" y="320" flags="0x0"/>
    </TTGlyph>
    <TTGlyph name="Scaron" xMin="117" yMin="-30" xMax="885" yMax="1745">
      <component glyphName="S" x="0" y="0" flags="0x0"/>
      <component glyphName="uni030C.LP" x="1014" y="320" flags="0x0"/>
    </TTGlyph>
    <TTGlyph name="Scircumflex" xMin="117" yMin="-30" xMax="885" yMax="1721">
      <component glyphName="S" x="0" y="0" flags="0x0"/>
      <component glyphName="uni0302.LP" x="1014" y="320" flags="0x0"/>
    </TTGlyph>
    <TTGlyph name="T" xMin="10" yMin="0" xMax="1083" yMax="1260">
      <contour>
        <pt x="307" y="0" on="1"/>
        <pt x="307" y="43" on="1"/>
        <pt x="353" y="52" on="0"/>
        <pt x="416" y="72" on="0"/>
        <pt x="454" y="91" on="0"/>
        <pt x="471" y="108" on="0"/>
        <pt x="471" y="115" on="1"/>
        <pt x="471" y="1170" on="1"/>
        <pt x="172" y="1170" on="1"/>
        <pt x="157" y="1170" on="0"/>
        <pt x="132" y="1159" on="0"/>
        <pt x="107" y="1123" on="0"/>
        <pt x="75" y="1053" on="0"/>
        <pt x="53" y="995" on="1"/>
        <pt x="10" y="1014" on="1"/>
        <pt x="15" y="1073" on="0"/>
        <pt x="32" y="1207" on="0"/>
        <pt x="43" y="1260" on="1"/>
        <pt x="1053" y="1260" on="1"/>
        <pt x="1083" y="1235" on="1"/>
        <pt x="1081" y="1184" on="0"/>
        <pt x="1065" y="1063" on="0"/>
        <pt x="1053" y="1000" on="1"/>
        <pt x="1008" y="1000" on="1"/>
        <pt x="998" y="1046" on="0"/>
        <pt x="983" y="1111" on="0"/>
        <pt x="963" y="1152" on="0"/>
        <pt x="936" y="1170" on="0"/>
        <pt x="915" y="1170" on="1"/>
        <pt x="631" y="1170" on="1"/>
        <pt x="631" y="115" on="1"/>
        <pt x="631" y="102" on="0"/>
        <pt x="703" y="62" on="0"/>
        <pt x="795" y="43" on="1"/>
        <pt x="795" y="0" on="1"/>
      </contour>
    </TTGlyph>
    <TTGlyph name="Tcaron" xMin="10" yMin="0" xMax="1083" yMax="1745">
      <component glyphName="T" x="0" y="0" flags="0x0"/>
      <component glyphName="uni030C.LP" x="1060" y="320" flags="0x0"/>
    </TTGlyph>
    <TTGlyph name="Thorn" xMin="49" yMin="0" xMax="982" yMax="1260">
      <contour>
        <pt x="49" y="0" on="1"/>
        <pt x="49" y="43" on="1"/>
        <pt x="117" y="57" on="0"/>
        <pt x="195" y="90" on="0"/>
        <pt x="195" y="104" on="1"/>
        <pt x="195" y="1155" on="1"/>
        <pt x="195" y="1167" on="0"/>
        <pt x="121" y="1203" on="0"/>
        <pt x="49" y="1217" on="1"/>
        <pt x="49" y="1260" on="1"/>
        <pt x="530" y="1260" on="1"/>
        <pt x="530" y="1217" on="1"/>
        <pt x="479" y="1208" on="0"/>
        <pt x="411" y="1192" on="0"/>
        <pt x="371" y="1177" on="0"/>
        <pt x="355" y="1162" on="0"/>
        <pt x="355" y="1155" on="1"/>
        <pt x="355" y="1014" on="1"/>
        <pt x="418" y="1020" on="0"/>
        <pt x="510" y="1020" on="1"/>
        <pt x="618" y="1020" on="0"/>
        <pt x="792" y="974" on="0"/>
        <pt x="915" y="884" on="0"/>
        <pt x="982" y="752" on="0"/>
        <pt x="982" y="666" on="1"/>
        <pt x="982" y="597" on="0"/>
        <pt x="943" y="483" on="0"/>
        <pt x="878" y="394" on="0"/>
        <pt x="794" y="329" on="0"/>
        <pt x="703" y="286" on="0"/>
        <pt x="612" y="265" on="0"/>
        <pt x="573" y="265" on="1"/>
        <pt x="527" y="265" on="0"/>
        <pt x="446" y="281" on="0"/>
        <pt x="412" y="298" on="1"/>
        <pt x="389" y="369" on="1"/>
        <pt x="431" y="350" on="0"/>
        <pt x="508" y="340" on="0"/>
        <pt x="543" y="340" on="1"/>
        <pt x="589" y="340" on="0"/>
        <pt x="689" y="376" on="0"/>
        <pt x="773" y="447" on="0"/>
        <pt x="827" y="554" on="0"/>
        <pt x="827" y="625" on="1"/>
        <pt x="827" y="708" on="0"/>
        <pt x="768" y="826" on="0"/>
        <pt x="666" y="901" on="0"/>
        <pt x="530" y="936" on="0"/>
        <pt x="453" y="936" on="1"/>
        <pt x="403" y="936" on="0"/>
        <pt x="355" y="933" on="1"/>
        <pt x="355" y="104" on="1"/>
        <pt x="355" y="98" on="0"/>
        <pt x="371" y="84" on="0"/>
        <pt x="410" y="68" on="0"/>
        <pt x="478" y="52" on="0"/>
        <pt x="530" y="43" on="1"/>
        <pt x="530" y="0" on="1"/>
      </contour>
    </TTGlyph>
    <TTGlyph name="U" xMin="50" yMin="-30" xMax="1275" yMax="1260">
      <contour>
        <pt x="1275" y="1217" on="1"/>
        <pt x="1207" y="1203" on="0"/>
        <pt x="1130" y="1169" on="0"/>
        <pt x="1130" y="1155" on="1"/>
        <pt x="1130" y="524" on="1"/>
        <pt x="1130" y="393" on="0"/>
        <pt x="1066" y="187" on="0"/>
        <pt x="946" y="45" on="0"/>
        <pt x="774" y="-30" on="0"/>
        <pt x="666" y="-30" on="1"/>
        <pt x="563" y="-30" on="0"/>
        <pt x="390" y="27" on="0"/>
        <pt x="265" y="144" on="0"/>
        <pt x="195" y="322" on="0"/>
        <pt x="195" y="444" on="1"/>
        <pt x="195" y="1155" on="1"/>
        <pt x="195" y="1167" on="0"/>
        <pt x="122" y="1203" on="0"/>
        <pt x="50" y="1217" on="1"/>
        <pt x="50" y="1260" on="1"/>
        <pt x="500" y="1260" on="1"/>
        <pt x="500" y="1217" on="1"/>
        <pt x="432" y="1203" on="0"/>
        <pt x="355" y="1169" on="0"/>
        <pt x="355" y="1155" on="1"/>
        <pt x="355" y="494" on="1"/>
        <pt x="355" y="398" on="0"/>
        <pt x="400" y="246" on="0"/>
        <pt x="489" y="141" on="0"/>
        <pt x="619" y="85" on="0"/>
        <pt x="705" y="85" on="1"/>
        <pt x="776" y="85" on="0"/>
        <pt x="886" y="154" on="0"/>
        <pt x="961" y="266" on="0"/>
        <pt x="1000" y="409" on="0"/>
        <pt x="1000" y="483" on="1"/>
        <pt x="1000" y="1155" on="1"/>
        <pt x="1000" y="1167" on="0"/>
        <pt x="927" y="1203" on="0"/>
        <pt x="855" y="1217" on="1"/>
        <pt x="855" y="1260" on="1"/>
        <pt x="1275" y="1260" on="1"/>
      </contour>
    </TTGlyph>
    <TTGlyph name="Uacute" xMin="50" yMin="-30" xMax="1275" yMax="1729">
      <component glyphName="U" x="0" y="0" flags="0x0"/>
      <component glyphName="acutecomb.LP" x="1220" y="320" flags="0x0"/>
    </TTGlyph>
    <TTGlyph name="Ubreve" xMin="50" yMin="-30" xMax="1275" yMax="1725">
      <component glyphName="U" x="0" y="0" flags="0x0"/>
      <component glyphName="uni0306" x="1192" y="320" flags="0x0"/>
    </TTGlyph>
    <TTGlyph name="Ucircumflex" xMin="50" yMin="-30" xMax="1275" yMax="1721">
      <component glyphName="U" x="0" y="0" flags="0x0"/>
      <component glyphName="uni0302.LP" x="1191" y="320" flags="0x0"/>
    </TTGlyph>
    <TTGlyph name="Udieresis" xMin="50" yMin="-30" xMax="1275" yMax="1636">
      <component glyphName="U" x="0" y="0" flags="0x0"/>
      <component glyphName="uni0308.LP" x="1192" y="320" flags="0x0"/>
    </TTGlyph>
    <TTGlyph name="Ugrave" xMin="50" yMin="-30" xMax="1275" yMax="1729">
      <component glyphName="U" x="0" y="0" flags="0x0"/>
      <component glyphName="gravecomb.LP" x="1110" y="320" flags="0x0"/>
    </TTGlyph>
    <TTGlyph name="Uhorn" xMin="50" yMin="-30" xMax="1400" yMax="1495">
      <contour>
        <pt x="1400" y="1392" on="1"/>
        <pt x="1400" y="1367" on="0"/>
        <pt x="1375" y="1300" on="0"/>
        <pt x="1313" y="1224" on="0"/>
        <pt x="1209" y="1143" on="0"/>
        <pt x="1130" y="1105" on="1"/>
        <pt x="1130" y="524" on="1"/>
        <pt x="1130" y="393" on="0"/>
        <pt x="1066" y="187" on="0"/>
        <pt x="946" y="45" on="0"/>
        <pt x="774" y="-30" on="0"/>
        <pt x="666" y="-30" on="1"/>
        <pt x="563" y="-30" on="0"/>
        <pt x="390" y="27" on="0"/>
        <pt x="265" y="144" on="0"/>
        <pt x="195" y="322" on="0"/>
        <pt x="195" y="444" on="1"/>
        <pt x="195" y="1155" on="1"/>
        <pt x="195" y="1167" on="0"/>
        <pt x="122" y="1203" on="0"/>
        <pt x="50" y="1217" on="1"/>
        <pt x="50" y="1260" on="1"/>
        <pt x="500" y="1260" on="1"/>
        <pt x="500" y="1217" on="1"/>
        <pt x="432" y="1203" on="0"/>
        <pt x="355" y="1169" on="0"/>
        <pt x="355" y="1155" on="1"/>
        <pt x="355" y="494" on="1"/>
        <pt x="355" y="398" on="0"/>
        <pt x="400" y="246" on="0"/>
        <pt x="489" y="141" on="0"/>
        <pt x="619" y="85" on="0"/>
        <pt x="705" y="85" on="1"/>
        <pt x="776" y="85" on="0"/>
        <pt x="886" y="154" on="0"/>
        <pt x="961" y="266" on="0"/>
        <pt x="1000" y="409" on="0"/>
        <pt x="1000" y="483" on="1"/>
        <pt x="1000" y="1155" on="1"/>
        <pt x="1000" y="1167" on="0"/>
        <pt x="927" y="1203" on="0"/>
        <pt x="855" y="1217" on="1"/>
        <pt x="855" y="1260" on="1"/>
        <pt x="1210" y="1260" on="1"/>
        <pt x="1228" y="1288" on="0"/>
        <pt x="1228" y="1311" on="1"/>
        <pt x="1228" y="1340" on="0"/>
        <pt x="1198" y="1392" on="0"/>
        <pt x="1170" y="1415" on="1"/>
        <pt x="1348" y="1495" on="1"/>
        <pt x="1371" y="1473" on="0"/>
        <pt x="1400" y="1421" on="0"/>
      </contour>
    </TTGlyph>
    <TTGlyph name="Uhungarumlaut" xMin="50" yMin="-30" xMax="1275" yMax="1809">
      <component glyphName="U" x="0" y="0" flags="0x0"/>
      <component glyphName="uni030B" x="1177" y="320" flags="0x0"/>
    </TTGlyph>
    <TTGlyph name="Umacron" xMin="50" yMin="-30" xMax="1275" yMax="1585">
      <component glyphName="U" x="0" y="0" flags="0x0"/>
      <component glyphName="uni0304.LP" x="1202" y="320" flags="0x0"/>
    </TTGlyph>
    <TTGlyph name="Uring" xMin="50" yMin="-30" xMax="1275" yMax="1760">
      <component glyphName="U" x="0" y="0" flags="0x0"/>
      <component glyphName="uni030A" x="1192" y="320" flags="0x0"/>
    </TTGlyph>
    <TTGlyph name="Utilde" xMin="50" yMin="-30" xMax="1275" yMax="1649">
      <component glyphName="U" x="0" y="0" flags="0x0"/>
      <component glyphName="tildecomb.LP" x="1192" y="320" flags="0x0"/>
    </TTGlyph>
    <TTGlyph name="V" xMin="20" yMin="-30" xMax="1290" yMax="1260">
      <contour>
        <pt x="1290" y="1217" on="1"/>
        <pt x="1222" y="1204" on="0"/>
        <pt x="1145" y="1179" on="0"/>
        <pt x="1135" y="1151" on="1"/>
        <pt x="752" y="59" on="1"/>
        <pt x="744" y="37" on="0"/>
        <pt x="705" y="6" on="0"/>
        <pt x="659" y="-15" on="0"/>
        <pt x="615" y="-27" on="0"/>
        <pt x="602" y="-30" on="1"/>
        <pt x="162" y="1151" on="1"/>
        <pt x="152" y="1177" on="0"/>
        <pt x="83" y="1209" on="0"/>
        <pt x="20" y="1217" on="1"/>
        <pt x="20" y="1260" on="1"/>
        <pt x="455" y="1260" on="1"/>
        <pt x="455" y="1217" on="1"/>
        <pt x="375" y="1211" on="0"/>
        <pt x="316" y="1182" on="0"/>
        <pt x="327" y="1153" on="1"/>
        <pt x="680" y="203" on="1"/>
        <pt x="1016" y="1151" on="1"/>
        <pt x="1027" y="1180" on="0"/>
        <pt x="956" y="1207" on="0"/>
        <pt x="874" y="1217" on="1"/>
        <pt x="874" y="1260" on="1"/>
        <pt x="1290" y="1260" on="1"/>
      </contour>
    </TTGlyph>
    <TTGlyph name="W" xMin="20" yMin="-30" xMax="1702" yMax="1260">
      <contour>
        <pt x="1702" y="1217" on="1"/>
        <pt x="1658" y="1208" on="0"/>
        <pt x="1600" y="1192" on="0"/>
        <pt x="1566" y="1177" on="0"/>
        <pt x="1551" y="1163" on="0"/>
        <pt x="1550" y="1155" on="1"/>
        <pt x="1321" y="59" on="1"/>
        <pt x="1316" y="38" on="0"/>
        <pt x="1283" y="7" on="0"/>
        <pt x="1241" y="-14" on="0"/>
        <pt x="1197" y="-27" on="0"/>
        <pt x="1182" y="-30" on="1"/>
        <pt x="856" y="944" on="1"/>
        <pt x="569" y="59" on="1"/>
        <pt x="562" y="38" on="0"/>
        <pt x="528" y="8" on="0"/>
        <pt x="485" y="-13" on="0"/>
        <pt x="438" y="-26" on="0"/>
        <pt x="418" y="-30" on="1"/>
        <pt x="158" y="1147" on="1"/>
        <pt x="153" y="1172" on="0"/>
        <pt x="91" y="1204" on="0"/>
        <pt x="20" y="1217" on="1"/>
        <pt x="20" y="1260" on="1"/>
        <pt x="449" y="1260" on="1"/>
        <pt x="449" y="1217" on="1"/>
        <pt x="400" y="1212" on="0"/>
        <pt x="344" y="1197" on="0"/>
        <pt x="316" y="1179" on="0"/>
        <pt x="311" y="1158" on="0"/>
        <pt x="313" y="1147" on="1"/>
        <pt x="512" y="250" on="1"/>
        <pt x="836" y="1260" on="1"/>
        <pt x="891" y="1260" on="1"/>
        <pt x="1245" y="250" on="1"/>
        <pt x="1432" y="1155" on="1"/>
        <pt x="1434" y="1167" on="0"/>
        <pt x="1412" y="1185" on="0"/>
        <pt x="1370" y="1199" on="0"/>
        <pt x="1312" y="1211" on="0"/>
        <pt x="1278" y="1217" on="1"/>
        <pt x="1278" y="1260" on="1"/>
        <pt x="1702" y="1260" on="1"/>
      </contour>
    </TTGlyph>
    <TTGlyph name="Wacute" xMin="20" yMin="-30" xMax="1702" yMax="1729">
      <component glyphName="W" x="0" y="0" flags="0x0"/>
      <component glyphName="acutecomb.LP" x="1404" y="320" flags="0x0"/>
    </TTGlyph>
    <TTGlyph name="Wcircumflex" xMin="20" yMin="-30" xMax="1702" yMax="1721">
      <component glyphName="W" x="0" y="0" flags="0x0"/>
      <component glyphName="uni0302.LP" x="1375" y="320" flags="0x0"/>
    </TTGlyph>
    <TTGlyph name="Wdieresis" xMin="20" yMin="-30" xMax="1702" yMax="1636">
      <component glyphName="W" x="0" y="0" flags="0x0"/>
      <component glyphName="uni0308.LP" x="1376" y="320" flags="0x0"/>
    </TTGlyph>
    <TTGlyph name="Wgrave" xMin="20" yMin="-30" xMax="1702" yMax="1729">
      <component glyphName="W" x="0" y="0" flags="0x0"/>
      <component glyphName="gravecomb.LP" x="1294" y="320" flags="0x0"/>
    </TTGlyph>
    <TTGlyph name="X" xMin="31" yMin="0" xMax="1229" yMax="1260">
      <contour>
        <pt x="778" y="0" on="1"/>
        <pt x="778" y="43" on="1"/>
        <pt x="822" y="47" on="0"/>
        <pt x="876" y="60" on="0"/>
        <pt x="900" y="79" on="0"/>
        <pt x="897" y="107" on="0"/>
        <pt x="883" y="127" on="1"/>
        <pt x="604" y="535" on="1"/>
        <pt x="352" y="127" on="1"/>
        <pt x="324" y="83" on="0"/>
        <pt x="389" y="49" on="0"/>
        <pt x="481" y="43" on="1"/>
        <pt x="481" y="0" on="1"/>
        <pt x="31" y="0" on="1"/>
        <pt x="31" y="43" on="1"/>
        <pt x="96" y="48" on="0"/>
        <pt x="188" y="85" on="0"/>
        <pt x="213" y="127" on="1"/>
        <pt x="530" y="644" on="1"/>
        <pt x="197" y="1133" on="1"/>
        <pt x="182" y="1155" on="0"/>
        <pt x="154" y="1183" on="0"/>
        <pt x="119" y="1201" on="0"/>
        <pt x="74" y="1212" on="0"/>
        <pt x="41" y="1217" on="1"/>
        <pt x="41" y="1260" on="1"/>
        <pt x="492" y="1260" on="1"/>
        <pt x="492" y="1217" on="1"/>
        <pt x="407" y="1209" on="0"/>
        <pt x="355" y="1176" on="0"/>
        <pt x="385" y="1133" on="1"/>
        <pt x="632" y="770" on="1"/>
        <pt x="858" y="1133" on="1"/>
        <pt x="872" y="1156" on="0"/>
        <pt x="868" y="1185" on="0"/>
        <pt x="834" y="1204" on="0"/>
        <pt x="772" y="1214" on="0"/>
        <pt x="727" y="1217" on="1"/>
        <pt x="727" y="1260" on="1"/>
        <pt x="1180" y="1260" on="1"/>
        <pt x="1180" y="1217" on="1"/>
        <pt x="1144" y="1213" on="0"/>
        <pt x="1087" y="1202" on="0"/>
        <pt x="1043" y="1183" on="0"/>
        <pt x="1010" y="1154" on="0"/>
        <pt x="997" y="1133" on="1"/>
        <pt x="706" y="662" on="1"/>
        <pt x="1071" y="127" on="1"/>
        <pt x="1086" y="106" on="0"/>
        <pt x="1117" y="77" on="0"/>
        <pt x="1154" y="58" on="0"/>
        <pt x="1200" y="47" on="0"/>
        <pt x="1229" y="43" on="1"/>
        <pt x="1229" y="0" on="1"/>
      </contour>
    </TTGlyph>
    <TTGlyph name="Y" xMin="0" yMin="0" xMax="1176" yMax="1270">
      <contour>
        <pt x="360" y="0" on="1"/>
        <pt x="360" y="43" on="1"/>
        <pt x="451" y="62" on="0"/>
        <pt x="524" y="101" on="0"/>
        <pt x="524" y="115" on="1"/>
        <pt x="524" y="537" on="1"/>
        <pt x="487" y="618" on="0"/>
        <pt x="393" y="794" on="0"/>
        <pt x="295" y="960" on="0"/>
        <pt x="203" y="1103" on="0"/>
        <pt x="168" y="1151" on="1"/>
        <pt x="159" y="1162" on="0"/>
        <pt x="136" y="1182" on="0"/>
        <pt x="100" y="1197" on="0"/>
        <pt x="46" y="1206" on="0"/>
        <pt x="4" y="1206" on="1"/>
        <pt x="0" y="1249" on="1"/>
        <pt x="59" y="1257" on="0"/>
        <pt x="177" y="1270" on="0"/>
        <pt x="219" y="1270" on="1"/>
        <pt x="265" y="1270" on="0"/>
        <pt x="297" y="1231" on="1"/>
        <pt x="334" y="1183" on="0"/>
        <pt x="420" y="1052" on="0"/>
        <pt x="506" y="906" on="0"/>
        <pt x="588" y="752" on="0"/>
        <pt x="623" y="680" on="1"/>
        <pt x="891" y="1151" on="1"/>
        <pt x="906" y="1177" on="0"/>
        <pt x="857" y="1207" on="0"/>
        <pt x="780" y="1217" on="1"/>
        <pt x="780" y="1260" on="1"/>
        <pt x="1176" y="1260" on="1"/>
        <pt x="1176" y="1217" on="1"/>
        <pt x="1107" y="1204" on="0"/>
        <pt x="1034" y="1177" on="0"/>
        <pt x="1020" y="1151" on="1"/>
        <pt x="684" y="541" on="1"/>
        <pt x="684" y="115" on="1"/>
        <pt x="684" y="109" on="0"/>
        <pt x="701" y="92" on="0"/>
        <pt x="740" y="72" on="0"/>
        <pt x="803" y="52" on="0"/>
        <pt x="850" y="43" on="1"/>
        <pt x="850" y="0" on="1"/>
      </contour>
    </TTGlyph>
    <TTGlyph name="Yacute" xMin="0" yMin="0" xMax="1176" yMax="1729">
      <component glyphName="Y" x="0" y="0" flags="0x0"/>
      <component glyphName="acutecomb.LP" x="1147" y="320" flags="0x0"/>
    </TTGlyph>
    <TTGlyph name="Ycircumflex" xMin="0" yMin="0" xMax="1176" yMax="1721">
      <component glyphName="Y" x="0" y="0" flags="0x0"/>
      <component glyphName="uni0302.LP" x="1118" y="320" flags="0x0"/>
    </TTGlyph>
    <TTGlyph name="Ydieresis" xMin="0" yMin="0" xMax="1176" yMax="1636">
      <component glyphName="Y" x="0" y="0" flags="0x0"/>
      <component glyphName="uni0308.LP" x="1119" y="320" flags="0x0"/>
    </TTGlyph>
    <TTGlyph name="Ygrave" xMin="0" yMin="0" xMax="1176" yMax="1729">
      <component glyphName="Y" x="0" y="0" flags="0x0"/>
      <component glyphName="gravecomb.LP" x="1037" y="320" flags="0x0"/>
    </TTGlyph>
    <TTGlyph name="Z" xMin="59" yMin="0" xMax="991" yMax="1276">
      <contour>
        <pt x="991" y="293" on="1"/>
        <pt x="989" y="261" on="0"/>
        <pt x="986" y="183" on="0"/>
        <pt x="983" y="104" on="0"/>
        <pt x="980" y="29" on="0"/>
        <pt x="979" y="0" on="1"/>
        <pt x="88" y="0" on="1"/>
        <pt x="59" y="45" on="1"/>
        <pt x="770" y="1160" on="1"/>
        <pt x="311" y="1160" on="1"/>
        <pt x="295" y="1160" on="0"/>
        <pt x="257" y="1138" on="0"/>
        <pt x="221" y="1090" on="0"/>
        <pt x="189" y="1015" on="0"/>
        <pt x="178" y="963" on="1"/>
        <pt x="121" y="975" on="1"/>
        <pt x="150" y="1276" on="1"/>
        <pt x="177" y="1270" on="0"/>
        <pt x="222" y="1263" on="0"/>
        <pt x="265" y="1260" on="0"/>
        <pt x="288" y="1260" on="1"/>
        <pt x="956" y="1260" on="1"/>
        <pt x="981" y="1217" on="1"/>
        <pt x="276" y="100" on="1"/>
        <pt x="799" y="100" on="1"/>
        <pt x="820" y="100" on="0"/>
        <pt x="854" y="119" on="0"/>
        <pt x="885" y="165" on="0"/>
        <pt x="917" y="245" on="0"/>
        <pt x="936" y="307" on="1"/>
      </contour>
    </TTGlyph>
    <TTGlyph name="Zacute" xMin="59" yMin="0" xMax="991" yMax="1729">
      <component glyphName="Z" x="0" y="0" flags="0x0"/>
      <component glyphName="acutecomb.LP" x="1098" y="320" flags="0x0"/>
    </TTGlyph>
    <TTGlyph name="Zcaron" xMin="59" yMin="0" xMax="991" yMax="1745">
      <component glyphName="Z" x="0" y="0" flags="0x0"/>
      <component glyphName="uni030C.LP" x="1069" y="320" flags="0x0"/>
    </TTGlyph>
    <TTGlyph name="Zdotaccent" xMin="59" yMin="0" xMax="991" yMax="1636">
      <component glyphName="Z" x="0" y="0" flags="0x0"/>
      <component glyphName="uni0307.LP" x="1070" y="320" flags="0x0"/>
    </TTGlyph>
    <TTGlyph name="a" xMin="80" yMin="-30" xMax="926" yMax="960">
      <contour>
        <pt x="352" y="100" on="1"/>
        <pt x="412" y="100" on="0"/>
        <pt x="547" y="161" on="0"/>
        <pt x="623" y="227" on="1"/>
        <pt x="623" y="486" on="1"/>
        <pt x="539" y="472" on="0"/>
        <pt x="430" y="446" on="0"/>
        <pt x="360" y="419" on="0"/>
        <pt x="318" y="389" on="0"/>
        <pt x="302" y="372" on="1"/>
        <pt x="276" y="345" on="0"/>
        <pt x="244" y="276" on="0"/>
        <pt x="244" y="229" on="1"/>
        <pt x="244" y="189" on="0"/>
        <pt x="268" y="139" on="0"/>
        <pt x="302" y="110" on="0"/>
        <pt x="339" y="100" on="0"/>
      </contour>
      <contour>
        <pt x="926" y="82" on="1"/>
        <pt x="841" y="23" on="0"/>
        <pt x="730" y="-30" on="0"/>
        <pt x="702" y="-30" on="1"/>
        <pt x="669" y="-30" on="0"/>
        <pt x="625" y="62" on="0"/>
        <pt x="623" y="143" on="1"/>
        <pt x="578" y="98" on="0"/>
        <pt x="488" y="32" on="0"/>
        <pt x="402" y="-10" on="0"/>
        <pt x="325" y="-30" on="0"/>
        <pt x="293" y="-30" on="1"/>
        <pt x="257" y="-30" on="0"/>
        <pt x="181" y="-6" on="0"/>
        <pt x="120" y="46" on="0"/>
        <pt x="80" y="128" on="0"/>
        <pt x="80" y="186" on="1"/>
        <pt x="80" y="262" on="0"/>
        <pt x="133" y="364" on="0"/>
        <pt x="170" y="401" on="1"/>
        <pt x="194" y="425" on="0"/>
        <pt x="255" y="468" on="0"/>
        <pt x="356" y="508" on="0"/>
        <pt x="508" y="544" on="0"/>
        <pt x="623" y="561" on="1"/>
        <pt x="623" y="702" on="1"/>
        <pt x="623" y="736" on="0"/>
        <pt x="607" y="795" on="0"/>
        <pt x="569" y="838" on="0"/>
        <pt x="504" y="861" on="0"/>
        <pt x="455" y="860" on="1"/>
        <pt x="423" y="859" on="0"/>
        <pt x="361" y="839" on="0"/>
        <pt x="315" y="803" on="0"/>
        <pt x="289" y="754" on="0"/>
        <pt x="292" y="724" on="1"/>
        <pt x="293" y="715" on="0"/>
        <pt x="250" y="692" on="0"/>
        <pt x="191" y="674" on="0"/>
        <pt x="134" y="664" on="0"/>
        <pt x="122" y="667" on="1"/>
        <pt x="108" y="706" on="1"/>
        <pt x="131" y="756" on="0"/>
        <pt x="225" y="848" on="0"/>
        <pt x="346" y="918" on="0"/>
        <pt x="481" y="960" on="0"/>
        <pt x="544" y="960" on="1"/>
        <pt x="654" y="960" on="0"/>
        <pt x="773" y="845" on="0"/>
        <pt x="773" y="742" on="1"/>
        <pt x="773" y="178" on="1"/>
        <pt x="773" y="136" on="0"/>
        <pt x="795" y="100" on="0"/>
        <pt x="813" y="100" on="1"/>
        <pt x="827" y="100" on="0"/>
        <pt x="871" y="110" on="0"/>
        <pt x="911" y="127" on="1"/>
      </contour>
    </TTGlyph>
    <TTGlyph name="a.SngStory" xMin="80" yMin="-30" xMax="1009" yMax="960">
      <contour>
        <pt x="1009" y="84" on="1"/>
        <pt x="922" y="25" on="0"/>
        <pt x="802" y="-30" on="0"/>
        <pt x="788" y="-30" on="1"/>
        <pt x="746" y="-30" on="0"/>
        <pt x="710" y="57" on="0"/>
        <pt x="706" y="162" on="1"/>
        <pt x="664" y="109" on="0"/>
        <pt x="593" y="35" on="0"/>
        <pt x="522" y="-10" on="0"/>
        <pt x="448" y="-30" on="0"/>
        <pt x="405" y="-30" on="1"/>
        <pt x="350" y="-30" on="0"/>
        <pt x="235" y="35" on="0"/>
        <pt x="140" y="157" on="0"/>
        <pt x="80" y="333" on="0"/>
        <pt x="80" y="444" on="1"/>
        <pt x="80" y="501" on="0"/>
        <pt x="110" y="623" on="0"/>
        <pt x="166" y="737" on="0"/>
        <pt x="247" y="839" on="0"/>
        <pt x="349" y="916" on="0"/>
        <pt x="471" y="960" on="0"/>
        <pt x="540" y="960" on="1"/>
        <pt x="567" y="960" on="0"/>
        <pt x="613" y="953" on="0"/>
        <pt x="659" y="933" on="0"/>
        <pt x="710" y="896" on="0"/>
        <pt x="742" y="866" on="1"/>
        <pt x="770" y="882" on="0"/>
        <pt x="826" y="927" on="0"/>
        <pt x="856" y="960" on="1"/>
        <pt x="884" y="930" on="1"/>
        <pt x="875" y="901" on="0"/>
        <pt x="869" y="868" on="1"/>
        <pt x="864" y="839" on="0"/>
        <pt x="855" y="765" on="0"/>
        <pt x="855" y="723" on="1"/>
        <pt x="855" y="254" on="1"/>
        <pt x="855" y="194" on="0"/>
        <pt x="864" y="118" on="0"/>
        <pt x="872" y="109" on="1"/>
        <pt x="881" y="96" on="0"/>
        <pt x="946" y="106" on="0"/>
        <pt x="997" y="129" on="1"/>
        <pt x="997" y="130" on="0"/>
        <pt x="1001" y="115" on="0"/>
        <pt x="1003" y="107" on="1"/>
        <pt x="1006" y="96" on="0"/>
      </contour>
      <contour>
        <pt x="705" y="256" on="1"/>
        <pt x="705" y="730" on="1"/>
        <pt x="673" y="787" on="0"/>
        <pt x="581" y="850" on="0"/>
        <pt x="510" y="850" on="1"/>
        <pt x="446" y="850" on="0"/>
        <pt x="343" y="803" on="0"/>
        <pt x="270" y="709" on="0"/>
        <pt x="230" y="569" on="0"/>
        <pt x="230" y="475" on="1"/>
        <pt x="230" y="390" on="0"/>
        <pt x="276" y="251" on="0"/>
        <pt x="348" y="153" on="0"/>
        <pt x="435" y="100" on="0"/>
        <pt x="477" y="100" on="1"/>
        <pt x="525" y="100" on="0"/>
        <pt x="629" y="176" on="0"/>
      </contour>
    </TTGlyph>
    <TTGlyph name="aacute" xMin="80" yMin="-30" xMax="926" yMax="1489">
      <component glyphName="a" x="0" y="0" flags="0x0"/>
      <component glyphName="acutecomb" x="1023" y="0" flags="0x0"/>
    </TTGlyph>
    <TTGlyph name="aacute.SngStory" xMin="80" yMin="-30" xMax="1009" yMax="1489">
      <component glyphName="a.SngStory" x="0" y="0" flags="0x0"/>
      <component glyphName="acutecomb" x="1087" y="0" flags="0x0"/>
    </TTGlyph>
    <TTGlyph name="abreve" xMin="80" yMin="-30" xMax="926" yMax="1405">
      <component glyphName="a" x="0" y="0" flags="0x0"/>
      <component glyphName="uni0306" x="995" y="0" flags="0x0"/>
    </TTGlyph>
    <TTGlyph name="abreve.SngStory" xMin="80" yMin="-30" xMax="1009" yMax="1405">
      <component glyphName="a.SngStory" x="0" y="0" flags="0x0"/>
      <component glyphName="uni0306" x="1059" y="0" flags="0x0"/>
    </TTGlyph>
    <TTGlyph name="acircumflex" xMin="80" yMin="-30" xMax="926" yMax="1471">
      <component glyphName="a" x="0" y="0" flags="0x0"/>
      <component glyphName="uni0302" x="994" y="0" flags="0x0"/>
    </TTGlyph>
    <TTGlyph name="acircumflex.SngStory" xMin="80" yMin="-30" xMax="1009" yMax="1471">
      <component glyphName="a.SngStory" x="0" y="0" flags="0x0"/>
      <component glyphName="uni0302" x="1058" y="0" flags="0x0"/>
    </TTGlyph>
    <TTGlyph name="acute" xMin="217" yMin="1047" xMax="619" yMax="1489">
      <contour>
        <pt x="274" y="1047" on="1"/>
        <pt x="256" y="1051" on="0"/>
        <pt x="229" y="1066" on="0"/>
        <pt x="217" y="1075" on="1"/>
        <pt x="451" y="1489" on="1"/>
        <pt x="463" y="1488" on="0"/>
        <pt x="503" y="1483" on="0"/>
        <pt x="546" y="1476" on="0"/>
        <pt x="585" y="1469" on="0"/>
        <pt x="596" y="1466" on="1"/>
        <pt x="619" y="1427" on="1"/>
      </contour>
    </TTGlyph>
    <TTGlyph name="acutecomb" xMin="-643" yMin="1047" xMax="-241" yMax="1489">
      <contour>
        <pt x="-586" y="1047" on="1"/>
        <pt x="-604" y="1050" on="0"/>
        <pt x="-632" y="1066" on="0"/>
        <pt x="-643" y="1075" on="1"/>
        <pt x="-409" y="1489" on="1"/>
        <pt x="-397" y="1488" on="0"/>
        <pt x="-358" y="1483" on="0"/>
        <pt x="-315" y="1477" on="0"/>
        <pt x="-275" y="1469" on="0"/>
        <pt x="-264" y="1466" on="1"/>
        <pt x="-241" y="1427" on="1"/>
      </contour>
    </TTGlyph>
    <TTGlyph name="acutecomb.LP" xMin="-720" yMin="1047" xMax="-206" yMax="1409">
      <contour>
        <pt x="-675" y="1047" on="1"/>
        <pt x="-692" y="1054" on="0"/>
        <pt x="-707" y="1073" on="0"/>
        <pt x="-720" y="1092" on="1"/>
        <pt x="-333" y="1409" on="1"/>
        <pt x="-323" y="1403" on="0"/>
        <pt x="-289" y="1384" on="0"/>
        <pt x="-253" y="1363" on="0"/>
        <pt x="-223" y="1343" on="0"/>
        <pt x="-215" y="1335" on="1"/>
        <pt x="-206" y="1290" on="1"/>
      </contour>
    </TTGlyph>
    <TTGlyph name="adieresis" xMin="80" yMin="-30" xMax="926" yMax="1356">
      <component glyphName="a" x="0" y="0" flags="0x0"/>
      <component glyphName="uni0308" x="995" y="0" flags="0x0"/>
    </TTGlyph>
    <TTGlyph name="adieresis.SngStory" xMin="80" yMin="-30" xMax="1009" yMax="1356">
      <component glyphName="a.SngStory" x="0" y="0" flags="0x0"/>
      <component glyphName="uni0308" x="1059" y="0" flags="0x0"/>
    </TTGlyph>
    <TTGlyph name="ae" xMin="80" yMin="-30" xMax="1337" yMax="960">
      <contour>
        <pt x="1337" y="557" on="1"/>
        <pt x="1317" y="537" on="0"/>
        <pt x="1257" y="502" on="0"/>
        <pt x="1225" y="489" on="1"/>
        <pt x="776" y="489" on="1"/>
        <pt x="774" y="472" on="0"/>
        <pt x="774" y="454" on="1"/>
        <pt x="774" y="418" on="1"/>
        <pt x="774" y="360" on="0"/>
        <pt x="805" y="247" on="0"/>
        <pt x="865" y="157" on="0"/>
        <pt x="952" y="102" on="0"/>
        <pt x="1008" y="102" on="1"/>
        <pt x="1039" y="102" on="0"/>
        <pt x="1096" y="109" on="0"/>
        <pt x="1161" y="136" on="0"/>
        <pt x="1239" y="190" on="0"/>
        <pt x="1292" y="236" on="1"/>
        <pt x="1305" y="229" on="0"/>
        <pt x="1324" y="203" on="0"/>
        <pt x="1329" y="195" on="1"/>
        <pt x="1269" y="123" on="0"/>
        <pt x="1169" y="35" on="0"/>
        <pt x="1078" y="-13" on="0"/>
        <pt x="991" y="-30" on="0"/>
        <pt x="944" y="-30" on="1"/>
        <pt x="900" y="-30" on="0"/>
        <pt x="815" y="-2" on="0"/>
        <pt x="740" y="52" on="0"/>
        <pt x="679" y="129" on="0"/>
        <pt x="658" y="179" on="1"/>
        <pt x="615" y="127" on="0"/>
        <pt x="514" y="49" on="0"/>
        <pt x="414" y="-4" on="0"/>
        <pt x="324" y="-30" on="0"/>
        <pt x="293" y="-30" on="1"/>
        <pt x="257" y="-30" on="0"/>
        <pt x="181" y="-6" on="0"/>
        <pt x="120" y="46" on="0"/>
        <pt x="80" y="128" on="0"/>
        <pt x="80" y="186" on="1"/>
        <pt x="80" y="245" on="0"/>
        <pt x="127" y="354" on="0"/>
        <pt x="221" y="448" on="0"/>
        <pt x="365" y="525" on="0"/>
        <pt x="463" y="553" on="1"/>
        <pt x="496" y="562" on="0"/>
        <pt x="579" y="573" on="0"/>
        <pt x="623" y="576" on="1"/>
        <pt x="623" y="662" on="1"/>
        <pt x="623" y="701" on="0"/>
        <pt x="611" y="773" on="0"/>
        <pt x="577" y="827" on="0"/>
        <pt x="516" y="860" on="0"/>
        <pt x="467" y="860" on="1"/>
        <pt x="435" y="860" on="0"/>
        <pt x="362" y="831" on="0"/>
        <pt x="305" y="780" on="0"/>
        <pt x="277" y="713" on="0"/>
        <pt x="292" y="676" on="1"/>
        <pt x="295" y="667" on="0"/>
        <pt x="252" y="645" on="0"/>
        <pt x="193" y="627" on="0"/>
        <pt x="134" y="618" on="0"/>
        <pt x="122" y="621" on="1"/>
        <pt x="108" y="657" on="1"/>
        <pt x="113" y="696" on="0"/>
        <pt x="161" y="772" on="0"/>
        <pt x="233" y="839" on="0"/>
        <pt x="322" y="896" on="0"/>
        <pt x="413" y="937" on="0"/>
        <pt x="501" y="960" on="0"/>
        <pt x="535" y="960" on="1"/>
        <pt x="623" y="960" on="0"/>
        <pt x="726" y="888" on="0"/>
        <pt x="749" y="816" on="1"/>
        <pt x="781" y="856" on="0"/>
        <pt x="853" y="912" on="0"/>
        <pt x="926" y="945" on="0"/>
        <pt x="995" y="960" on="0"/>
        <pt x="1024" y="960" on="1"/>
        <pt x="1085" y="960" on="0"/>
        <pt x="1179" y="925" on="0"/>
        <pt x="1248" y="866" on="0"/>
        <pt x="1296" y="786" on="0"/>
        <pt x="1325" y="697" on="0"/>
        <pt x="1337" y="602" on="0"/>
      </contour>
      <contour>
        <pt x="637" y="243" on="1"/>
        <pt x="630" y="272" on="0"/>
        <pt x="623" y="332" on="0"/>
        <pt x="623" y="365" on="1"/>
        <pt x="623" y="485" on="1"/>
        <pt x="590" y="483" on="0"/>
        <pt x="538" y="477" on="0"/>
        <pt x="526" y="473" on="1"/>
        <pt x="376" y="436" on="0"/>
        <pt x="244" y="311" on="0"/>
        <pt x="244" y="229" on="1"/>
        <pt x="244" y="189" on="0"/>
        <pt x="268" y="139" on="0"/>
        <pt x="302" y="110" on="0"/>
        <pt x="339" y="100" on="0"/>
        <pt x="352" y="100" on="1"/>
        <pt x="379" y="100" on="0"/>
        <pt x="447" y="118" on="0"/>
        <pt x="522" y="153" on="0"/>
        <pt x="600" y="207" on="0"/>
      </contour>
      <contour>
        <pt x="995" y="860" on="1"/>
        <pt x="972" y="860" on="0"/>
        <pt x="911" y="838" on="0"/>
        <pt x="851" y="777" on="0"/>
        <pt x="798" y="667" on="0"/>
        <pt x="785" y="580" on="1"/>
        <pt x="1133" y="580" on="1"/>
        <pt x="1154" y="580" on="0"/>
        <pt x="1171" y="595" on="0"/>
        <pt x="1171" y="616" on="1"/>
        <pt x="1171" y="664" on="0"/>
        <pt x="1151" y="752" on="0"/>
        <pt x="1109" y="819" on="0"/>
        <pt x="1042" y="860" on="0"/>
      </contour>
    </TTGlyph>
    <TTGlyph name="aeacute" xMin="80" yMin="-30" xMax="1337" yMax="1489">
      <component glyphName="ae" x="0" y="0" flags="0x0"/>
      <component glyphName="acutecomb" x="1281" y="0" flags="0x0"/>
    </TTGlyph>
    <TTGlyph name="agrave" xMin="80" yMin="-30" xMax="926" yMax="1489">
      <component glyphName="a" x="0" y="0" flags="0x0"/>
      <component glyphName="gravecomb" x="913" y="0" flags="0x0"/>
    </TTGlyph>
    <TTGlyph name="agrave.SngStory" xMin="80" yMin="-30" xMax="1009" yMax="1489">
      <component glyphName="a.SngStory" x="0" y="0" flags="0x0"/>
      <component glyphName="gravecomb" x="977" y="0" flags="0x0"/>
    </TTGlyph>
    <TTGlyph name="amacron" xMin="80" yMin="-30" xMax="926" yMax="1305">
      <component glyphName="a" x="0" y="0" flags="0x0"/>
      <component glyphName="uni0304" x="1005" y="0" flags="0x0"/>
    </TTGlyph>
    <TTGlyph name="amacron.SngStory" xMin="80" yMin="-30" xMax="1009" yMax="1305">
      <component glyphName="a.SngStory" x="0" y="0" flags="0x0"/>
      <component glyphName="uni0304" x="1069" y="0" flags="0x0"/>
    </TTGlyph>
    <TTGlyph name="ampersand" xMin="80" yMin="-30" xMax="1346" yMax="1450">
      <contour>
        <pt x="444" y="1130" on="1"/>
        <pt x="444" y="1072" on="0"/>
        <pt x="478" y="945" on="0"/>
        <pt x="508" y="879" on="1"/>
        <pt x="576" y="918" on="0"/>
        <pt x="662" y="994" on="0"/>
        <pt x="711" y="1068" on="0"/>
        <pt x="729" y="1138" on="0"/>
        <pt x="729" y="1171" on="1"/>
        <pt x="729" y="1206" on="0"/>
        <pt x="711" y="1268" on="0"/>
        <pt x="676" y="1315" on="0"/>
        <pt x="623" y="1343" on="0"/>
        <pt x="588" y="1343" on="1"/>
        <pt x="552" y="1343" on="0"/>
        <pt x="498" y="1306" on="0"/>
        <pt x="462" y="1246" on="0"/>
        <pt x="444" y="1169" on="0"/>
      </contour>
      <contour>
        <pt x="528" y="84" on="1"/>
        <pt x="613" y="84" on="0"/>
        <pt x="755" y="138" on="0"/>
        <pt x="812" y="183" on="1"/>
        <pt x="762" y="235" on="0"/>
        <pt x="656" y="356" on="0"/>
        <pt x="555" y="489" on="0"/>
        <pt x="462" y="631" on="0"/>
        <pt x="425" y="703" on="1"/>
        <pt x="374" y="659" on="0"/>
        <pt x="304" y="577" on="0"/>
        <pt x="261" y="496" on="0"/>
        <pt x="242" y="415" on="0"/>
        <pt x="242" y="373" on="1"/>
        <pt x="242" y="303" on="0"/>
        <pt x="290" y="195" on="0"/>
        <pt x="370" y="122" on="0"/>
        <pt x="473" y="84" on="0"/>
      </contour>
      <contour>
        <pt x="1346" y="748" on="1"/>
        <pt x="1321" y="717" on="0"/>
        <pt x="1272" y="676" on="0"/>
        <pt x="1247" y="659" on="1"/>
        <pt x="1229" y="668" on="0"/>
        <pt x="1183" y="682" on="0"/>
        <pt x="1136" y="693" on="0"/>
        <pt x="1092" y="699" on="0"/>
        <pt x="1075" y="700" on="1"/>
        <pt x="1086" y="682" on="0"/>
        <pt x="1099" y="651" on="0"/>
        <pt x="1106" y="615" on="0"/>
        <pt x="1108" y="572" on="0"/>
        <pt x="1108" y="543" on="1"/>
        <pt x="1108" y="472" on="0"/>
        <pt x="1046" y="314" on="0"/>
        <pt x="989" y="239" on="1"/>
        <pt x="1058" y="173" on="0"/>
        <pt x="1116" y="127" on="1"/>
        <pt x="1154" y="95" on="0"/>
        <pt x="1242" y="74" on="0"/>
        <pt x="1300" y="88" on="1"/>
        <pt x="1309" y="45" on="1"/>
        <pt x="1222" y="7" on="0"/>
        <pt x="1103" y="-30" on="0"/>
        <pt x="1081" y="-30" on="1"/>
        <pt x="1059" y="-30" on="0"/>
        <pt x="949" y="50" on="0"/>
        <pt x="877" y="119" on="1"/>
        <pt x="799" y="53" on="0"/>
        <pt x="607" y="-30" on="0"/>
        <pt x="498" y="-30" on="1"/>
        <pt x="405" y="-30" on="0"/>
        <pt x="251" y="19" on="0"/>
        <pt x="141" y="115" on="0"/>
        <pt x="80" y="258" on="0"/>
        <pt x="80" y="352" on="1"/>
        <pt x="80" y="408" on="0"/>
        <pt x="120" y="524" on="0"/>
        <pt x="196" y="638" on="0"/>
        <pt x="308" y="748" on="0"/>
        <pt x="380" y="799" on="1"/>
        <pt x="351" y="870" on="0"/>
        <pt x="317" y="1007" on="0"/>
        <pt x="317" y="1073" on="1"/>
        <pt x="317" y="1154" on="0"/>
        <pt x="371" y="1292" on="0"/>
        <pt x="461" y="1393" on="0"/>
        <pt x="578" y="1450" on="0"/>
        <pt x="641" y="1450" on="1"/>
        <pt x="705" y="1450" on="0"/>
        <pt x="792" y="1409" on="0"/>
        <pt x="845" y="1341" on="0"/>
        <pt x="868" y="1252" on="0"/>
        <pt x="868" y="1204" on="1"/>
        <pt x="868" y="1099" on="0"/>
        <pt x="737" y="916" on="0"/>
        <pt x="618" y="842" on="1"/>
        <pt x="599" y="830" on="0"/>
        <pt x="565" y="807" on="0"/>
        <pt x="549" y="796" on="1"/>
        <pt x="584" y="731" on="0"/>
        <pt x="671" y="601" on="0"/>
        <pt x="768" y="475" on="0"/>
        <pt x="871" y="357" on="0"/>
        <pt x="922" y="305" on="1"/>
        <pt x="954" y="355" on="0"/>
        <pt x="987" y="457" on="0"/>
        <pt x="987" y="502" on="1"/>
        <pt x="987" y="544" on="0"/>
        <pt x="959" y="618" on="0"/>
        <pt x="914" y="673" on="0"/>
        <pt x="856" y="705" on="0"/>
        <pt x="827" y="705" on="1"/>
        <pt x="805" y="733" on="1"/>
        <pt x="816" y="746" on="0"/>
        <pt x="859" y="776" on="0"/>
        <pt x="879" y="784" on="1"/>
        <pt x="1323" y="784" on="1"/>
      </contour>
    </TTGlyph>
    <TTGlyph name="approxequal" xMin="56" yMin="320" xMax="843" yMax="803">
      <contour>
        <pt x="843" y="485" on="1"/>
        <pt x="742" y="323" on="0"/>
        <pt x="601" y="323" on="1"/>
        <pt x="559" y="323" on="0"/>
        <pt x="477" y="354" on="0"/>
        <pt x="396" y="390" on="0"/>
        <pt x="315" y="421" on="0"/>
        <pt x="275" y="421" on="1"/>
        <pt x="228" y="421" on="0"/>
        <pt x="153" y="368" on="0"/>
        <pt x="109" y="320" on="1"/>
        <pt x="56" y="375" on="1"/>
        <pt x="156" y="538" on="0"/>
        <pt x="298" y="538" on="1"/>
        <pt x="343" y="538" on="0"/>
        <pt x="432" y="507" on="0"/>
        <pt x="515" y="471" on="0"/>
        <pt x="590" y="440" on="0"/>
        <pt x="622" y="440" on="1"/>
        <pt x="645" y="440" on="0"/>
        <pt x="692" y="457" on="0"/>
        <pt x="735" y="485" on="0"/>
        <pt x="774" y="522" on="0"/>
        <pt x="789" y="543" on="1"/>
      </contour>
      <contour>
        <pt x="843" y="745" on="1"/>
        <pt x="742" y="583" on="0"/>
        <pt x="601" y="583" on="1"/>
        <pt x="559" y="583" on="0"/>
        <pt x="477" y="614" on="0"/>
        <pt x="396" y="650" on="0"/>
        <pt x="315" y="681" on="0"/>
        <pt x="275" y="681" on="1"/>
        <pt x="228" y="681" on="0"/>
        <pt x="153" y="628" on="0"/>
        <pt x="109" y="580" on="1"/>
        <pt x="56" y="635" on="1"/>
        <pt x="156" y="798" on="0"/>
        <pt x="298" y="798" on="1"/>
        <pt x="343" y="798" on="0"/>
        <pt x="432" y="767" on="0"/>
        <pt x="515" y="731" on="0"/>
        <pt x="590" y="700" on="0"/>
        <pt x="622" y="700" on="1"/>
        <pt x="645" y="700" on="0"/>
        <pt x="692" y="717" on="0"/>
        <pt x="735" y="745" on="0"/>
        <pt x="774" y="782" on="0"/>
        <pt x="789" y="803" on="1"/>
      </contour>
    </TTGlyph>
    <TTGlyph name="aring" xMin="80" yMin="-30" xMax="926" yMax="1440">
      <component glyphName="a" x="0" y="0" flags="0x0"/>
      <component glyphName="uni030A" x="995" y="0" flags="0x0"/>
    </TTGlyph>
    <TTGlyph name="aring.SngStory" xMin="80" yMin="-30" xMax="1009" yMax="1440">
      <component glyphName="a.SngStory" x="0" y="0" flags="0x0"/>
      <component glyphName="uni030A" x="1059" y="0" flags="0x0"/>
    </TTGlyph>
    <TTGlyph name="aringacute" xMin="80" yMin="-30" xMax="926" yMax="1929">
      <component glyphName="a" x="0" y="0" flags="0x0"/>
      <component glyphName="uni030A" x="995" y="0" flags="0x0"/>
      <component glyphName="acutecomb" x="1023" y="440" flags="0x0"/>
    </TTGlyph>
    <TTGlyph name="aringacute.SngStory" xMin="80" yMin="-30" xMax="1009" yMax="1929">
      <component glyphName="a.SngStory" x="0" y="0" flags="0x0"/>
      <component glyphName="uni030A" x="1059" y="0" flags="0x0"/>
      <component glyphName="acutecomb" x="1087" y="440" flags="0x0"/>
    </TTGlyph>
    <TTGlyph name="asciicircum" xMin="100" yMin="565" xMax="907" yMax="1550">
      <contour>
        <pt x="907" y="635" on="1"/>
        <pt x="882" y="612" on="0"/>
        <pt x="835" y="581" on="0"/>
        <pt x="801" y="565" on="1"/>
        <pt x="764" y="592" on="1"/>
        <pt x="481" y="1315" on="1"/>
        <pt x="231" y="635" on="1"/>
        <pt x="220" y="625" on="0"/>
        <pt x="192" y="604" on="0"/>
        <pt x="162" y="585" on="0"/>
        <pt x="133" y="570" on="0"/>
        <pt x="123" y="565" on="1"/>
        <pt x="100" y="592" on="1"/>
        <pt x="422" y="1462" on="1"/>
        <pt x="434" y="1474" on="0"/>
        <pt x="469" y="1499" on="0"/>
        <pt x="505" y="1523" on="0"/>
        <pt x="541" y="1543" on="0"/>
        <pt x="555" y="1550" on="1"/>
      </contour>
    </TTGlyph>
    <TTGlyph name="asciitilde" xMin="49" yMin="475" xMax="950" yMax="799">
      <contour>
        <pt x="950" y="774" on="1"/>
        <pt x="929" y="725" on="0"/>
        <pt x="865" y="620" on="0"/>
        <pt x="786" y="533" on="0"/>
        <pt x="695" y="477" on="0"/>
        <pt x="647" y="477" on="1"/>
        <pt x="605" y="477" on="0"/>
        <pt x="511" y="527" on="0"/>
        <pt x="414" y="587" on="0"/>
        <pt x="319" y="637" on="0"/>
        <pt x="276" y="637" on="1"/>
        <pt x="227" y="637" on="0"/>
        <pt x="144" y="559" on="0"/>
        <pt x="102" y="475" on="1"/>
        <pt x="49" y="502" on="1"/>
        <pt x="70" y="551" on="0"/>
        <pt x="135" y="656" on="0"/>
        <pt x="214" y="743" on="0"/>
        <pt x="304" y="799" on="0"/>
        <pt x="352" y="799" on="1"/>
        <pt x="398" y="799" on="0"/>
        <pt x="495" y="749" on="0"/>
        <pt x="590" y="689" on="0"/>
        <pt x="681" y="639" on="0"/>
        <pt x="721" y="639" on="1"/>
        <pt x="769" y="639" on="0"/>
        <pt x="855" y="717" on="0"/>
        <pt x="897" y="799" on="1"/>
      </contour>
    </TTGlyph>
    <TTGlyph name="asterisk" xMin="70" yMin="709" xMax="846" yMax="1561">
      <contour>
        <pt x="489" y="1188" on="1"/>
        <pt x="750" y="1384" on="1"/>
        <pt x="771" y="1370" on="0"/>
        <pt x="828" y="1334" on="0"/>
        <pt x="844" y="1317" on="1"/>
        <pt x="846" y="1276" on="1"/>
        <pt x="520" y="1135" on="1"/>
        <pt x="821" y="1006" on="1"/>
        <pt x="819" y="981" on="0"/>
        <pt x="817" y="913" on="0"/>
        <pt x="809" y="891" on="1"/>
        <pt x="772" y="868" on="1"/>
        <pt x="490" y="1079" on="1"/>
        <pt x="528" y="756" on="1"/>
        <pt x="517" y="750" on="0"/>
        <pt x="491" y="735" on="0"/>
        <pt x="462" y="722" on="0"/>
        <pt x="435" y="711" on="0"/>
        <pt x="424" y="709" on="1"/>
        <pt x="385" y="727" on="1"/>
        <pt x="427" y="1079" on="1"/>
        <pt x="166" y="883" on="1"/>
        <pt x="155" y="890" on="0"/>
        <pt x="128" y="907" on="0"/>
        <pt x="102" y="925" on="0"/>
        <pt x="79" y="942" on="0"/>
        <pt x="72" y="950" on="1"/>
        <pt x="70" y="993" on="1"/>
        <pt x="396" y="1133" on="1"/>
        <pt x="94" y="1262" on="1"/>
        <pt x="95" y="1274" on="0"/>
        <pt x="96" y="1305" on="0"/>
        <pt x="98" y="1337" on="0"/>
        <pt x="102" y="1366" on="0"/>
        <pt x="106" y="1376" on="1"/>
        <pt x="141" y="1399" on="1"/>
        <pt x="426" y="1187" on="1"/>
        <pt x="387" y="1513" on="1"/>
        <pt x="398" y="1519" on="0"/>
        <pt x="426" y="1533" on="0"/>
        <pt x="455" y="1547" on="0"/>
        <pt x="483" y="1558" on="0"/>
        <pt x="494" y="1561" on="1"/>
        <pt x="530" y="1540" on="1"/>
      </contour>
    </TTGlyph>
    <TTGlyph name="at" xMin="70" yMin="-375" xMax="1583" yMax="1333">
      <contour>
        <pt x="1014" y="731" on="1"/>
        <pt x="986" y="787" on="0"/>
        <pt x="918" y="850" on="0"/>
        <pt x="858" y="850" on="1"/>
        <pt x="803" y="850" on="0"/>
        <pt x="712" y="803" on="0"/>
        <pt x="646" y="709" on="0"/>
        <pt x="610" y="569" on="0"/>
        <pt x="610" y="475" on="1"/>
        <pt x="610" y="390" on="0"/>
        <pt x="651" y="251" on="0"/>
        <pt x="714" y="153" on="0"/>
        <pt x="790" y="100" on="0"/>
        <pt x="825" y="100" on="1"/>
        <pt x="844" y="100" on="0"/>
        <pt x="880" y="113" on="0"/>
        <pt x="922" y="147" on="0"/>
        <pt x="976" y="205" on="0"/>
        <pt x="1014" y="250" on="1"/>
      </contour>
      <contour>
        <pt x="1583" y="549" on="1"/>
        <pt x="1583" y="462" on="0"/>
        <pt x="1544" y="309" on="0"/>
        <pt x="1477" y="181" on="0"/>
        <pt x="1390" y="79" on="0"/>
        <pt x="1296" y="8" on="0"/>
        <pt x="1200" y="-30" on="0"/>
        <pt x="1157" y="-30" on="1"/>
        <pt x="1133" y="-30" on="0"/>
        <pt x="1089" y="-9" on="0"/>
        <pt x="1053" y="37" on="0"/>
        <pt x="1027" y="110" on="0"/>
        <pt x="1020" y="162" on="1"/>
        <pt x="979" y="105" on="0"/>
        <pt x="916" y="31" on="0"/>
        <pt x="856" y="-13" on="0"/>
        <pt x="794" y="-30" on="0"/>
        <pt x="754" y="-30" on="1"/>
        <pt x="703" y="-30" on="0"/>
        <pt x="598" y="35" on="0"/>
        <pt x="514" y="157" on="0"/>
        <pt x="460" y="333" on="0"/>
        <pt x="460" y="444" on="1"/>
        <pt x="460" y="501" on="0"/>
        <pt x="487" y="623" on="0"/>
        <pt x="539" y="737" on="0"/>
        <pt x="615" y="839" on="0"/>
        <pt x="710" y="916" on="0"/>
        <pt x="824" y="960" on="0"/>
        <pt x="889" y="960" on="1"/>
        <pt x="912" y="960" on="0"/>
        <pt x="950" y="953" on="0"/>
        <pt x="987" y="933" on="0"/>
        <pt x="1029" y="897" on="0"/>
        <pt x="1055" y="868" on="1"/>
        <pt x="1081" y="884" on="0"/>
        <pt x="1135" y="929" on="0"/>
        <pt x="1163" y="960" on="1"/>
        <pt x="1194" y="930" on="1"/>
        <pt x="1185" y="901" on="0"/>
        <pt x="1179" y="868" on="1"/>
        <pt x="1173" y="839" on="0"/>
        <pt x="1164" y="765" on="0"/>
        <pt x="1164" y="723" on="1"/>
        <pt x="1164" y="285" on="1"/>
        <pt x="1164" y="195" on="0"/>
        <pt x="1224" y="109" on="0"/>
        <pt x="1272" y="109" on="1"/>
        <pt x="1297" y="109" on="0"/>
        <pt x="1363" y="172" on="0"/>
        <pt x="1422" y="281" on="0"/>
        <pt x="1463" y="428" on="0"/>
        <pt x="1463" y="512" on="1"/>
        <pt x="1463" y="680" on="0"/>
        <pt x="1377" y="942" on="0"/>
        <pt x="1224" y="1120" on="0"/>
        <pt x="1012" y="1213" on="0"/>
        <pt x="885" y="1213" on="1"/>
        <pt x="783" y="1213" on="0"/>
        <pt x="605" y="1161" on="0"/>
        <pt x="457" y="1068" on="0"/>
        <pt x="342" y="940" on="0"/>
        <pt x="262" y="787" on="0"/>
        <pt x="220" y="614" on="0"/>
        <pt x="220" y="524" on="1"/>
        <pt x="220" y="403" on="0"/>
        <pt x="271" y="194" on="0"/>
        <pt x="362" y="21" on="0"/>
        <pt x="489" y="-114" on="0"/>
        <pt x="641" y="-207" on="0"/>
        <pt x="813" y="-255" on="0"/>
        <pt x="903" y="-255" on="1"/>
        <pt x="987" y="-255" on="0"/>
        <pt x="1148" y="-220" on="0"/>
        <pt x="1286" y="-168" on="0"/>
        <pt x="1393" y="-108" on="0"/>
        <pt x="1423" y="-82" on="1"/>
        <pt x="1450" y="-137" on="1"/>
        <pt x="1414" y="-175" on="0"/>
        <pt x="1299" y="-259" on="0"/>
        <pt x="1148" y="-329" on="0"/>
        <pt x="962" y="-375" on="0"/>
        <pt x="854" y="-375" on="1"/>
        <pt x="682" y="-375" on="0"/>
        <pt x="394" y="-257" on="0"/>
        <pt x="186" y="-38" on="0"/>
        <pt x="70" y="273" on="0"/>
        <pt x="70" y="465" on="1"/>
        <pt x="70" y="578" on="0"/>
        <pt x="131" y="795" on="0"/>
        <pt x="243" y="988" on="0"/>
        <pt x="399" y="1150" on="0"/>
        <pt x="589" y="1267" on="0"/>
        <pt x="807" y="1333" on="0"/>
        <pt x="924" y="1333" on="1"/>
        <pt x="1073" y="1333" on="0"/>
        <pt x="1316" y="1232" on="0"/>
        <pt x="1489" y="1034" on="0"/>
        <pt x="1583" y="741" on="0"/>
      </contour>
    </TTGlyph>
    <TTGlyph name="atilde" xMin="80" yMin="-30" xMax="926" yMax="1369">
      <component glyphName="a" x="0" y="0" flags="0x0"/>
      <component glyphName="tildecomb" x="995" y="0" flags="0x0"/>
    </TTGlyph>
    <TTGlyph name="atilde.SngStory" xMin="80" yMin="-30" xMax="1009" yMax="1369">
      <component glyphName="a.SngStory" x="0" y="0" flags="0x0"/>
      <component glyphName="tildecomb" x="1059" y="0" flags="0x0"/>
    </TTGlyph>
    <TTGlyph name="b" xMin="10" yMin="-30" xMax="950" yMax="1550">
      <contour>
        <pt x="950" y="492" on="1"/>
        <pt x="950" y="434" on="0"/>
        <pt x="920" y="312" on="0"/>
        <pt x="862" y="196" on="0"/>
        <pt x="778" y="92" on="0"/>
        <pt x="671" y="15" on="0"/>
        <pt x="543" y="-30" on="0"/>
        <pt x="469" y="-30" on="1"/>
        <pt x="450" y="-30" on="0"/>
        <pt x="383" y="-13" on="0"/>
        <pt x="296" y="19" on="0"/>
        <pt x="194" y="66" on="0"/>
        <pt x="140" y="96" on="1"/>
        <pt x="140" y="1296" on="1"/>
        <pt x="140" y="1342" on="0"/>
        <pt x="130" y="1392" on="0"/>
        <pt x="102" y="1417" on="0"/>
        <pt x="51" y="1425" on="0"/>
        <pt x="10" y="1430" on="1"/>
        <pt x="10" y="1470" on="1"/>
        <pt x="76" y="1486" on="0"/>
        <pt x="196" y="1519" on="0"/>
        <pt x="253" y="1550" on="1"/>
        <pt x="263" y="1540" on="1"/>
        <pt x="269" y="1534" on="0"/>
        <pt x="275" y="1529" on="1"/>
        <pt x="282" y="1523" on="0"/>
        <pt x="290" y="1516" on="1"/>
        <pt x="290" y="727" on="1"/>
        <pt x="340" y="787" on="0"/>
        <pt x="439" y="875" on="0"/>
        <pt x="530" y="932" on="0"/>
        <pt x="608" y="960" on="0"/>
        <pt x="637" y="960" on="1"/>
        <pt x="705" y="960" on="0"/>
        <pt x="820" y="896" on="0"/>
        <pt x="903" y="775" on="0"/>
        <pt x="950" y="601" on="0"/>
      </contour>
      <contour>
        <pt x="815" y="408" on="1"/>
        <pt x="815" y="508" on="0"/>
        <pt x="774" y="663" on="0"/>
        <pt x="705" y="769" on="0"/>
        <pt x="615" y="825" on="0"/>
        <pt x="567" y="825" on="1"/>
        <pt x="549" y="825" on="0"/>
        <pt x="490" y="804" on="0"/>
        <pt x="416" y="755" on="0"/>
        <pt x="332" y="672" on="0"/>
        <pt x="290" y="610" on="1"/>
        <pt x="290" y="203" on="1"/>
        <pt x="330" y="173" on="0"/>
        <pt x="413" y="133" on="0"/>
        <pt x="488" y="110" on="0"/>
        <pt x="549" y="100" on="0"/>
        <pt x="567" y="100" on="1"/>
        <pt x="628" y="100" on="0"/>
        <pt x="720" y="153" on="0"/>
        <pt x="783" y="240" on="0"/>
        <pt x="815" y="350" on="0"/>
      </contour>
    </TTGlyph>
    <TTGlyph name="backslash" xMin="55" yMin="-335" xMax="905" yMax="1600">
      <contour>
        <pt x="870" y="-335" on="1"/>
        <pt x="858" y="-331" on="0"/>
        <pt x="826" y="-319" on="0"/>
        <pt x="794" y="-306" on="0"/>
        <pt x="765" y="-291" on="0"/>
        <pt x="756" y="-284" on="1"/>
        <pt x="55" y="1578" on="1"/>
        <pt x="92" y="1600" on="1"/>
        <pt x="150" y="1585" on="0"/>
        <pt x="205" y="1551" on="1"/>
        <pt x="905" y="-310" on="1"/>
      </contour>
    </TTGlyph>
    <TTGlyph name="bar" xMin="180" yMin="-405" xMax="320" yMax="1670">
      <contour>
        <pt x="320" y="-353" on="1"/>
        <pt x="302" y="-369" on="0"/>
        <pt x="240" y="-397" on="0"/>
        <pt x="215" y="-405" on="1"/>
        <pt x="180" y="-382" on="1"/>
        <pt x="180" y="1621" on="1"/>
        <pt x="208" y="1638" on="0"/>
        <pt x="255" y="1662" on="0"/>
        <pt x="284" y="1670" on="1"/>
        <pt x="320" y="1648" on="1"/>
      </contour>
    </TTGlyph>
    <TTGlyph name="braceleft" xMin="102" yMin="-315" xMax="649" yMax="1600">
      <contour>
        <pt x="649" y="1553" on="1"/>
        <pt x="610" y="1529" on="0"/>
        <pt x="543" y="1467" on="0"/>
        <pt x="493" y="1392" on="0"/>
        <pt x="465" y="1304" on="0"/>
        <pt x="465" y="1252" on="1"/>
        <pt x="465" y="1194" on="0"/>
        <pt x="478" y="1120" on="0"/>
        <pt x="493" y="1055" on="0"/>
        <pt x="506" y="981" on="0"/>
        <pt x="506" y="923" on="1"/>
        <pt x="506" y="881" on="0"/>
        <pt x="481" y="800" on="0"/>
        <pt x="435" y="729" on="0"/>
        <pt x="368" y="671" on="0"/>
        <pt x="326" y="653" on="1"/>
        <pt x="376" y="644" on="0"/>
        <pt x="445" y="599" on="0"/>
        <pt x="487" y="531" on="0"/>
        <pt x="506" y="440" on="0"/>
        <pt x="506" y="385" on="1"/>
        <pt x="506" y="325" on="0"/>
        <pt x="493" y="241" on="0"/>
        <pt x="478" y="167" on="0"/>
        <pt x="465" y="93" on="0"/>
        <pt x="465" y="43" on="1"/>
        <pt x="465" y="-12" on="0"/>
        <pt x="480" y="-97" on="0"/>
        <pt x="519" y="-166" on="0"/>
        <pt x="586" y="-225" on="0"/>
        <pt x="639" y="-254" on="1"/>
        <pt x="616" y="-315" on="1"/>
        <pt x="532" y="-281" on="0"/>
        <pt x="412" y="-206" on="0"/>
        <pt x="335" y="-114" on="0"/>
        <pt x="299" y="0" on="0"/>
        <pt x="299" y="72" on="1"/>
        <pt x="299" y="131" on="0"/>
        <pt x="312" y="208" on="0"/>
        <pt x="327" y="279" on="0"/>
        <pt x="340" y="360" on="0"/>
        <pt x="340" y="422" on="1"/>
        <pt x="340" y="503" on="0"/>
        <pt x="259" y="586" on="0"/>
        <pt x="184" y="586" on="1"/>
        <pt x="163" y="586" on="1"/>
        <pt x="157" y="586" on="0"/>
        <pt x="147" y="585" on="0"/>
        <pt x="134" y="582" on="0"/>
        <pt x="119" y="580" on="1"/>
        <pt x="102" y="633" on="1"/>
        <pt x="220" y="664" on="0"/>
        <pt x="340" y="788" on="0"/>
        <pt x="340" y="863" on="1"/>
        <pt x="340" y="903" on="0"/>
        <pt x="334" y="961" on="0"/>
        <pt x="325" y="1008" on="0"/>
        <pt x="314" y="1049" on="0"/>
        <pt x="305" y="1095" on="0"/>
        <pt x="299" y="1154" on="0"/>
        <pt x="299" y="1195" on="1"/>
        <pt x="299" y="1262" on="0"/>
        <pt x="344" y="1381" on="0"/>
        <pt x="428" y="1482" on="0"/>
        <pt x="548" y="1566" on="0"/>
        <pt x="623" y="1600" on="1"/>
      </contour>
    </TTGlyph>
    <TTGlyph name="braceright" xMin="39" yMin="-315" xMax="588" yMax="1600">
      <contour>
        <pt x="588" y="651" on="1"/>
        <pt x="469" y="620" on="0"/>
        <pt x="350" y="499" on="0"/>
        <pt x="350" y="422" on="1"/>
        <pt x="350" y="381" on="0"/>
        <pt x="356" y="324" on="0"/>
        <pt x="364" y="278" on="0"/>
        <pt x="375" y="238" on="0"/>
        <pt x="383" y="191" on="0"/>
        <pt x="389" y="133" on="0"/>
        <pt x="389" y="92" on="1"/>
        <pt x="389" y="24" on="0"/>
        <pt x="344" y="-94" on="0"/>
        <pt x="260" y="-196" on="0"/>
        <pt x="140" y="-281" on="0"/>
        <pt x="66" y="-315" on="1"/>
        <pt x="39" y="-266" on="1"/>
        <pt x="78" y="-242" on="0"/>
        <pt x="145" y="-181" on="0"/>
        <pt x="195" y="-106" on="0"/>
        <pt x="223" y="-17" on="0"/>
        <pt x="223" y="35" on="1"/>
        <pt x="223" y="93" on="0"/>
        <pt x="211" y="166" on="0"/>
        <pt x="196" y="231" on="0"/>
        <pt x="184" y="306" on="0"/>
        <pt x="184" y="365" on="1"/>
        <pt x="184" y="406" on="0"/>
        <pt x="208" y="486" on="0"/>
        <pt x="255" y="556" on="0"/>
        <pt x="322" y="613" on="0"/>
        <pt x="365" y="631" on="1"/>
        <pt x="314" y="641" on="0"/>
        <pt x="245" y="686" on="0"/>
        <pt x="202" y="755" on="0"/>
        <pt x="184" y="846" on="0"/>
        <pt x="184" y="902" on="1"/>
        <pt x="184" y="961" on="0"/>
        <pt x="196" y="1045" on="0"/>
        <pt x="211" y="1119" on="0"/>
        <pt x="223" y="1193" on="0"/>
        <pt x="223" y="1242" on="1"/>
        <pt x="223" y="1298" on="0"/>
        <pt x="208" y="1384" on="0"/>
        <pt x="169" y="1453" on="0"/>
        <pt x="101" y="1510" on="0"/>
        <pt x="49" y="1539" on="1"/>
        <pt x="72" y="1600" on="1"/>
        <pt x="156" y="1567" on="0"/>
        <pt x="277" y="1492" on="0"/>
        <pt x="353" y="1400" on="0"/>
        <pt x="389" y="1287" on="0"/>
        <pt x="389" y="1215" on="1"/>
        <pt x="389" y="1156" on="0"/>
        <pt x="377" y="1078" on="0"/>
        <pt x="362" y="1007" on="0"/>
        <pt x="350" y="926" on="0"/>
        <pt x="350" y="865" on="1"/>
        <pt x="350" y="784" on="0"/>
        <pt x="431" y="700" on="0"/>
        <pt x="506" y="700" on="1"/>
        <pt x="525" y="700" on="1"/>
        <pt x="531" y="700" on="0"/>
        <pt x="541" y="701" on="0"/>
        <pt x="548" y="702" on="1"/>
        <pt x="571" y="707" on="1"/>
      </contour>
    </TTGlyph>
    <TTGlyph name="bracketleft" xMin="140" yMin="-335" xMax="590" yMax="1600">
      <contour>
        <pt x="590" y="-249" on="1"/>
        <pt x="585" y="-269" on="0"/>
        <pt x="569" y="-318" on="0"/>
        <pt x="561" y="-335" on="1"/>
        <pt x="140" y="-335" on="1"/>
        <pt x="140" y="1600" on="1"/>
        <pt x="555" y="1600" on="1"/>
        <pt x="588" y="1574" on="1"/>
        <pt x="583" y="1549" on="0"/>
        <pt x="567" y="1497" on="0"/>
        <pt x="561" y="1485" on="1"/>
        <pt x="280" y="1485" on="1"/>
        <pt x="280" y="-220" on="1"/>
        <pt x="555" y="-220" on="1"/>
      </contour>
    </TTGlyph>
    <TTGlyph name="bracketright" xMin="41" yMin="-335" xMax="490" yMax="1600">
      <contour>
        <pt x="76" y="-335" on="1"/>
        <pt x="43" y="-306" on="1"/>
        <pt x="46" y="-283" on="0"/>
        <pt x="61" y="-233" on="0"/>
        <pt x="68" y="-220" on="1"/>
        <pt x="350" y="-220" on="1"/>
        <pt x="350" y="1485" on="1"/>
        <pt x="76" y="1485" on="1"/>
        <pt x="41" y="1511" on="1"/>
        <pt x="44" y="1533" on="0"/>
        <pt x="61" y="1583" on="0"/>
        <pt x="68" y="1600" on="1"/>
        <pt x="490" y="1600" on="1"/>
        <pt x="490" y="-335" on="1"/>
      </contour>
    </TTGlyph>
    <TTGlyph name="breve" xMin="40" yMin="1070" xMax="690" yMax="1405">
      <contour>
        <pt x="690" y="1360" on="1"/>
        <pt x="660" y="1279" on="0"/>
        <pt x="585" y="1169" on="0"/>
        <pt x="502" y="1100" on="0"/>
        <pt x="412" y="1070" on="0"/>
        <pt x="367" y="1070" on="1"/>
        <pt x="318" y="1070" on="0"/>
        <pt x="226" y="1100" on="0"/>
        <pt x="143" y="1169" on="0"/>
        <pt x="70" y="1279" on="0"/>
        <pt x="40" y="1360" on="1"/>
        <pt x="52" y="1378" on="0"/>
        <pt x="76" y="1397" on="0"/>
        <pt x="93" y="1405" on="1"/>
        <pt x="118" y="1348" on="0"/>
        <pt x="183" y="1270" on="0"/>
        <pt x="255" y="1223" on="0"/>
        <pt x="330" y="1202" on="0"/>
        <pt x="363" y="1202" on="1"/>
        <pt x="398" y="1202" on="0"/>
        <pt x="475" y="1223" on="0"/>
        <pt x="548" y="1270" on="0"/>
        <pt x="613" y="1348" on="0"/>
        <pt x="637" y="1405" on="1"/>
        <pt x="654" y="1397" on="0"/>
        <pt x="678" y="1378" on="0"/>
      </contour>
    </TTGlyph>
    <TTGlyph name="brokenbar" xMin="174" yMin="-406" xMax="326" yMax="1670">
      <contour>
        <pt x="326" y="-354" on="1"/>
        <pt x="316" y="-362" on="0"/>
        <pt x="287" y="-377" on="0"/>
        <pt x="255" y="-391" on="0"/>
        <pt x="223" y="-402" on="0"/>
        <pt x="211" y="-406" on="1"/>
        <pt x="174" y="-383" on="1"/>
        <pt x="174" y="489" on="1"/>
        <pt x="203" y="506" on="0"/>
        <pt x="258" y="531" on="0"/>
        <pt x="289" y="541" on="1"/>
        <pt x="326" y="516" on="1"/>
      </contour>
      <contour>
        <pt x="326" y="767" on="1"/>
        <pt x="316" y="759" on="0"/>
        <pt x="287" y="744" on="0"/>
        <pt x="255" y="731" on="0"/>
        <pt x="223" y="720" on="0"/>
        <pt x="211" y="716" on="1"/>
        <pt x="174" y="738" on="1"/>
        <pt x="174" y="1621" on="1"/>
        <pt x="203" y="1638" on="0"/>
        <pt x="258" y="1662" on="0"/>
        <pt x="289" y="1670" on="1"/>
        <pt x="326" y="1648" on="1"/>
      </contour>
    </TTGlyph>
    <TTGlyph name="bullet" xMin="70" yMin="389" xMax="498" yMax="885">
      <contour>
        <pt x="498" y="662" on="1"/>
        <pt x="498" y="601" on="0"/>
        <pt x="463" y="501" on="0"/>
        <pt x="400" y="429" on="0"/>
        <pt x="313" y="389" on="0"/>
        <pt x="260" y="389" on="1"/>
        <pt x="212" y="389" on="0"/>
        <pt x="141" y="422" on="0"/>
        <pt x="94" y="482" on="0"/>
        <pt x="70" y="564" on="0"/>
        <pt x="70" y="612" on="1"/>
        <pt x="70" y="672" on="0"/>
        <pt x="107" y="772" on="0"/>
        <pt x="171" y="845" on="0"/>
        <pt x="258" y="885" on="0"/>
        <pt x="309" y="885" on="1"/>
        <pt x="354" y="885" on="0"/>
        <pt x="425" y="852" on="0"/>
        <pt x="473" y="793" on="0"/>
        <pt x="498" y="711" on="0"/>
      </contour>
    </TTGlyph>
    <TTGlyph name="c" xMin="80" yMin="-30" xMax="840" yMax="960">
      <contour>
        <pt x="840" y="190" on="1"/>
        <pt x="775" y="113" on="0"/>
        <pt x="676" y="26" on="0"/>
        <pt x="592" y="-19" on="0"/>
        <pt x="512" y="-30" on="0"/>
        <pt x="465" y="-30" on="1"/>
        <pt x="392" y="-30" on="0"/>
        <pt x="253" y="35" on="0"/>
        <pt x="145" y="157" on="0"/>
        <pt x="80" y="333" on="0"/>
        <pt x="80" y="444" on="1"/>
        <pt x="80" y="552" on="0"/>
        <pt x="159" y="740" on="0"/>
        <pt x="296" y="879" on="0"/>
        <pt x="482" y="960" on="0"/>
        <pt x="590" y="960" on="1"/>
        <pt x="623" y="960" on="0"/>
        <pt x="692" y="949" on="0"/>
        <pt x="755" y="928" on="0"/>
        <pt x="808" y="899" on="0"/>
        <pt x="825" y="881" on="1"/>
        <pt x="827" y="869" on="0"/>
        <pt x="817" y="825" on="0"/>
        <pt x="799" y="776" on="0"/>
        <pt x="777" y="731" on="0"/>
        <pt x="768" y="717" on="1"/>
        <pt x="731" y="727" on="1"/>
        <pt x="723" y="745" on="0"/>
        <pt x="687" y="787" on="0"/>
        <pt x="630" y="825" on="0"/>
        <pt x="551" y="850" on="0"/>
        <pt x="500" y="850" on="1"/>
        <pt x="447" y="850" on="0"/>
        <pt x="350" y="803" on="0"/>
        <pt x="275" y="709" on="0"/>
        <pt x="230" y="569" on="0"/>
        <pt x="230" y="475" on="1"/>
        <pt x="230" y="390" on="0"/>
        <pt x="281" y="251" on="0"/>
        <pt x="366" y="153" on="0"/>
        <pt x="477" y="100" on="0"/>
        <pt x="537" y="100" on="1"/>
        <pt x="565" y="100" on="0"/>
        <pt x="613" y="105" on="0"/>
        <pt x="670" y="131" on="0"/>
        <pt x="745" y="183" on="0"/>
        <pt x="801" y="231" on="1"/>
      </contour>
    </TTGlyph>
    <TTGlyph name="cacute" xMin="80" yMin="-30" xMax="840" yMax="1489">
      <component glyphName="c" x="0" y="0" flags="0x0"/>
      <component glyphName="acutecomb" x="1033" y="0" flags="0x0"/>
    </TTGlyph>
    <TTGlyph name="caron" xMin="50" yMin="1071" xMax="683" yMax="1475">
      <contour>
        <pt x="421" y="1071" on="1"/>
        <pt x="314" y="1071" on="1"/>
        <pt x="50" y="1428" on="1"/>
        <pt x="57" y="1438" on="0"/>
        <pt x="67" y="1452" on="0"/>
        <pt x="76" y="1462" on="0"/>
        <pt x="87" y="1470" on="0"/>
        <pt x="95" y="1475" on="1"/>
        <pt x="370" y="1224" on="1"/>
        <pt x="640" y="1475" on="1"/>
        <pt x="657" y="1466" on="0"/>
        <pt x="671" y="1448" on="0"/>
        <pt x="683" y="1428" on="1"/>
      </contour>
    </TTGlyph>
    <TTGlyph name="ccaron" xMin="80" yMin="-30" xMax="840" yMax="1475">
      <component glyphName="c" x="0" y="0" flags="0x0"/>
      <component glyphName="uni030C" x="1004" y="0" flags="0x0"/>
    </TTGlyph>
    <TTGlyph name="ccedilla" xMin="80" yMin="-444" xMax="840" yMax="960">
      <contour>
        <pt x="655" y="-229" on="1"/>
        <pt x="655" y="-266" on="0"/>
        <pt x="620" y="-334" on="0"/>
        <pt x="546" y="-390" on="0"/>
        <pt x="429" y="-432" on="0"/>
        <pt x="347" y="-444" on="1"/>
        <pt x="325" y="-395" on="1"/>
        <pt x="377" y="-386" on="0"/>
        <pt x="450" y="-359" on="0"/>
        <pt x="496" y="-327" on="0"/>
        <pt x="517" y="-292" on="0"/>
        <pt x="517" y="-276" on="1"/>
        <pt x="517" y="-242" on="0"/>
        <pt x="465" y="-215" on="0"/>
        <pt x="403" y="-209" on="1"/>
        <pt x="405" y="-206" on="0"/>
        <pt x="413" y="-181" on="1"/>
        <pt x="420" y="-160" on="0"/>
        <pt x="434" y="-115" on="1"/>
        <pt x="445" y="-82" on="0"/>
        <pt x="462" y="-30" on="1"/>
        <pt x="390" y="-29" on="0"/>
        <pt x="322" y="2" on="1"/>
        <pt x="253" y="35" on="0"/>
        <pt x="145" y="157" on="0"/>
        <pt x="80" y="333" on="0"/>
        <pt x="80" y="444" on="1"/>
        <pt x="80" y="552" on="0"/>
        <pt x="159" y="740" on="0"/>
        <pt x="296" y="879" on="0"/>
        <pt x="482" y="960" on="0"/>
        <pt x="590" y="960" on="1"/>
        <pt x="623" y="960" on="0"/>
        <pt x="692" y="949" on="0"/>
        <pt x="755" y="928" on="0"/>
        <pt x="808" y="899" on="0"/>
        <pt x="825" y="881" on="1"/>
        <pt x="827" y="869" on="0"/>
        <pt x="817" y="825" on="0"/>
        <pt x="799" y="776" on="0"/>
        <pt x="777" y="731" on="0"/>
        <pt x="768" y="717" on="1"/>
        <pt x="731" y="727" on="1"/>
        <pt x="723" y="745" on="0"/>
        <pt x="687" y="787" on="0"/>
        <pt x="630" y="825" on="0"/>
        <pt x="551" y="850" on="0"/>
        <pt x="500" y="850" on="1"/>
        <pt x="447" y="850" on="0"/>
        <pt x="350" y="803" on="0"/>
        <pt x="275" y="709" on="0"/>
        <pt x="230" y="569" on="0"/>
        <pt x="230" y="475" on="1"/>
        <pt x="230" y="390" on="0"/>
        <pt x="281" y="251" on="0"/>
        <pt x="366" y="153" on="0"/>
        <pt x="477" y="100" on="0"/>
        <pt x="537" y="100" on="1"/>
        <pt x="565" y="100" on="0"/>
        <pt x="613" y="105" on="0"/>
        <pt x="670" y="131" on="0"/>
        <pt x="745" y="183" on="0"/>
        <pt x="801" y="231" on="1"/>
        <pt x="840" y="190" on="1"/>
        <pt x="775" y="113" on="0"/>
        <pt x="676" y="26" on="0"/>
        <pt x="592" y="-19" on="0"/>
        <pt x="552" y="-24" on="1"/>
        <pt x="547" y="-25" on="0"/>
        <pt x="541" y="-26" on="1"/>
        <pt x="515" y="-104" on="1"/>
        <pt x="541" y="-110" on="0"/>
        <pt x="592" y="-129" on="0"/>
        <pt x="631" y="-159" on="0"/>
        <pt x="655" y="-201" on="0"/>
      </contour>
    </TTGlyph>
    <TTGlyph name="ccircumflex" xMin="80" yMin="-30" xMax="840" yMax="1471">
      <component glyphName="c" x="0" y="0" flags="0x0"/>
      <component glyphName="uni0302" x="1004" y="0" flags="0x0"/>
    </TTGlyph>
    <TTGlyph name="cdotaccent" xMin="80" yMin="-30" xMax="840" yMax="1356">
      <component glyphName="c" x="0" y="0" flags="0x0"/>
      <component glyphName="uni0307" x="1005" y="0" flags="0x0"/>
    </TTGlyph>
    <TTGlyph name="cedilla" xMin="78" yMin="-444" xMax="408" yMax="14">
      <contour>
        <pt x="408" y="-229" on="1"/>
        <pt x="408" y="-266" on="0"/>
        <pt x="373" y="-334" on="0"/>
        <pt x="299" y="-390" on="0"/>
        <pt x="182" y="-432" on="0"/>
        <pt x="100" y="-444" on="1"/>
        <pt x="78" y="-395" on="1"/>
        <pt x="130" y="-386" on="0"/>
        <pt x="203" y="-359" on="0"/>
        <pt x="249" y="-327" on="0"/>
        <pt x="270" y="-292" on="0"/>
        <pt x="270" y="-276" on="1"/>
        <pt x="270" y="-242" on="0"/>
        <pt x="218" y="-215" on="0"/>
        <pt x="156" y="-209" on="1"/>
        <pt x="158" y="-206" on="0"/>
        <pt x="166" y="-181" on="1"/>
        <pt x="173" y="-160" on="0"/>
        <pt x="202" y="-70" on="0"/>
        <pt x="229" y="14" on="1"/>
        <pt x="307" y="12" on="1"/>
        <pt x="268" y="-104" on="1"/>
        <pt x="294" y="-110" on="0"/>
        <pt x="345" y="-129" on="0"/>
        <pt x="384" y="-159" on="0"/>
        <pt x="408" y="-201" on="0"/>
      </contour>
    </TTGlyph>
    <TTGlyph name="cent" xMin="104" yMin="-41" xMax="864" yMax="1245">
      <contour>
        <pt x="256" y="616" on="1"/>
        <pt x="256" y="546" on="0"/>
        <pt x="290" y="432" on="0"/>
        <pt x="349" y="346" on="0"/>
        <pt x="429" y="289" on="0"/>
        <pt x="475" y="275" on="1"/>
        <pt x="475" y="966" on="1"/>
        <pt x="430" y="957" on="0"/>
        <pt x="351" y="907" on="0"/>
        <pt x="291" y="821" on="0"/>
        <pt x="256" y="698" on="0"/>
      </contour>
      <contour>
        <pt x="565" y="-8" on="1"/>
        <pt x="556" y="-16" on="0"/>
        <pt x="542" y="-25" on="0"/>
        <pt x="529" y="-32" on="0"/>
        <pt x="512" y="-37" on="0"/>
        <pt x="500" y="-41" on="1"/>
        <pt x="475" y="-16" on="1"/>
        <pt x="475" y="129" on="1"/>
        <pt x="404" y="132" on="0"/>
        <pt x="271" y="194" on="0"/>
        <pt x="167" y="309" on="0"/>
        <pt x="104" y="477" on="0"/>
        <pt x="104" y="586" on="1"/>
        <pt x="104" y="674" on="0"/>
        <pt x="159" y="830" on="0"/>
        <pt x="257" y="953" on="0"/>
        <pt x="394" y="1040" on="0"/>
        <pt x="475" y="1061" on="1"/>
        <pt x="475" y="1214" on="1"/>
        <pt x="489" y="1223" on="0"/>
        <pt x="501" y="1232" on="0"/>
        <pt x="510" y="1237" on="0"/>
        <pt x="524" y="1241" on="0"/>
        <pt x="539" y="1245" on="1"/>
        <pt x="565" y="1223" on="1"/>
        <pt x="565" y="1077" on="1"/>
        <pt x="577" y="1078" on="0"/>
        <pt x="601" y="1079" on="0"/>
        <pt x="614" y="1079" on="1"/>
        <pt x="647" y="1079" on="0"/>
        <pt x="716" y="1068" on="0"/>
        <pt x="780" y="1047" on="0"/>
        <pt x="833" y="1018" on="0"/>
        <pt x="850" y="999" on="1"/>
        <pt x="852" y="988" on="0"/>
        <pt x="842" y="944" on="0"/>
        <pt x="824" y="896" on="0"/>
        <pt x="802" y="851" on="0"/>
        <pt x="793" y="838" on="1"/>
        <pt x="758" y="848" on="1"/>
        <pt x="749" y="864" on="0"/>
        <pt x="718" y="902" on="0"/>
        <pt x="671" y="936" on="0"/>
        <pt x="607" y="963" on="0"/>
        <pt x="565" y="968" on="1"/>
        <pt x="565" y="262" on="1"/>
        <pt x="592" y="262" on="0"/>
        <pt x="640" y="267" on="0"/>
        <pt x="697" y="292" on="0"/>
        <pt x="771" y="344" on="0"/>
        <pt x="825" y="391" on="1"/>
        <pt x="864" y="350" on="1"/>
        <pt x="813" y="290" on="0"/>
        <pt x="731" y="210" on="0"/>
        <pt x="660" y="161" on="0"/>
        <pt x="597" y="137" on="0"/>
        <pt x="565" y="133" on="1"/>
      </contour>
    </TTGlyph>
    <TTGlyph name="circumflex" xMin="49" yMin="1047" xMax="682" yMax="1471">
      <contour>
        <pt x="682" y="1092" on="1"/>
        <pt x="670" y="1073" on="0"/>
        <pt x="656" y="1055" on="0"/>
        <pt x="639" y="1047" on="1"/>
        <pt x="365" y="1315" on="1"/>
        <pt x="94" y="1047" on="1"/>
        <pt x="86" y="1051" on="0"/>
        <pt x="75" y="1059" on="0"/>
        <pt x="66" y="1069" on="0"/>
        <pt x="56" y="1083" on="0"/>
        <pt x="49" y="1092" on="1"/>
        <pt x="313" y="1471" on="1"/>
        <pt x="420" y="1471" on="1"/>
      </contour>
    </TTGlyph>
    <TTGlyph name="colon" xMin="131" yMin="-40" xMax="369" yMax="961">
      <component glyphName="period" x="0" y="0" flags="0x0"/>
      <component glyphName="period" x="0" y="725" flags="0x0"/>
    </TTGlyph>
    <TTGlyph name="comma" xMin="88" yMin="-305" xMax="390" yMax="230">
      <contour>
        <pt x="390" y="70" on="1"/>
        <pt x="390" y="31" on="0"/>
        <pt x="359" y="-67" on="0"/>
        <pt x="301" y="-169" on="0"/>
        <pt x="218" y="-266" on="0"/>
        <pt x="166" y="-305" on="1"/>
        <pt x="121" y="-270" on="1"/>
        <pt x="149" y="-238" on="0"/>
        <pt x="188" y="-178" on="0"/>
        <pt x="214" y="-114" on="0"/>
        <pt x="226" y="-43" on="0"/>
        <pt x="226" y="0" on="1"/>
        <pt x="226" y="44" on="0"/>
        <pt x="168" y="96" on="0"/>
        <pt x="104" y="92" on="1"/>
        <pt x="88" y="139" on="1"/>
        <pt x="97" y="151" on="0"/>
        <pt x="155" y="182" on="0"/>
        <pt x="224" y="211" on="0"/>
        <pt x="291" y="230" on="0"/>
        <pt x="309" y="229" on="1"/>
        <pt x="357" y="206" on="0"/>
        <pt x="390" y="127" on="0"/>
      </contour>
    </TTGlyph>
    <TTGlyph name="copyright" xMin="100" yMin="-30" xMax="1360" yMax="1290">
      <contour>
        <pt x="1018" y="369" on="1"/>
        <pt x="973" y="326" on="0"/>
        <pt x="892" y="268" on="0"/>
        <pt x="816" y="232" on="0"/>
        <pt x="743" y="217" on="0"/>
        <pt x="707" y="217" on="1"/>
        <pt x="642" y="217" on="0"/>
        <pt x="517" y="269" on="0"/>
        <pt x="419" y="368" on="0"/>
        <pt x="358" y="511" on="0"/>
        <pt x="358" y="602" on="1"/>
        <pt x="358" y="702" on="0"/>
        <pt x="425" y="866" on="0"/>
        <pt x="541" y="981" on="0"/>
        <pt x="694" y="1044" on="0"/>
        <pt x="780" y="1044" on="1"/>
        <pt x="856" y="1044" on="0"/>
        <pt x="968" y="1007" on="0"/>
        <pt x="1006" y="981" on="1"/>
        <pt x="1010" y="978" on="0"/>
        <pt x="997" y="952" on="0"/>
        <pt x="976" y="920" on="0"/>
        <pt x="951" y="890" on="0"/>
        <pt x="942" y="883" on="1"/>
        <pt x="918" y="887" on="1"/>
        <pt x="882" y="915" on="0"/>
        <pt x="792" y="963" on="0"/>
        <pt x="731" y="963" on="1"/>
        <pt x="699" y="963" on="0"/>
        <pt x="615" y="931" on="0"/>
        <pt x="540" y="854" on="0"/>
        <pt x="489" y="724" on="0"/>
        <pt x="489" y="627" on="1"/>
        <pt x="489" y="547" on="0"/>
        <pt x="548" y="427" on="0"/>
        <pt x="637" y="346" on="0"/>
        <pt x="738" y="305" on="0"/>
        <pt x="780" y="305" on="1"/>
        <pt x="802" y="305" on="0"/>
        <pt x="844" y="313" on="0"/>
        <pt x="894" y="333" on="0"/>
        <pt x="953" y="369" on="0"/>
        <pt x="991" y="397" on="1"/>
        <pt x="999" y="394" on="0"/>
        <pt x="1013" y="372" on="0"/>
      </contour>
      <contour>
        <pt x="1274" y="631" on="1"/>
        <pt x="1274" y="749" on="0"/>
        <pt x="1193" y="958" on="0"/>
        <pt x="1048" y="1114" on="0"/>
        <pt x="848" y="1204" on="0"/>
        <pt x="729" y="1204" on="1"/>
        <pt x="611" y="1204" on="0"/>
        <pt x="412" y="1114" on="0"/>
        <pt x="267" y="958" on="0"/>
        <pt x="186" y="749" on="0"/>
        <pt x="186" y="631" on="1"/>
        <pt x="186" y="512" on="0"/>
        <pt x="267" y="302" on="0"/>
        <pt x="412" y="146" on="0"/>
        <pt x="611" y="56" on="0"/>
        <pt x="729" y="56" on="1"/>
        <pt x="848" y="56" on="0"/>
        <pt x="1048" y="146" on="0"/>
        <pt x="1193" y="302" on="0"/>
        <pt x="1274" y="512" on="0"/>
      </contour>
      <contour>
        <pt x="1360" y="631" on="1"/>
        <pt x="1360" y="540" on="0"/>
        <pt x="1317" y="371" on="0"/>
        <pt x="1238" y="224" on="0"/>
        <pt x="1125" y="103" on="0"/>
        <pt x="985" y="17" on="0"/>
        <pt x="820" y="-30" on="0"/>
        <pt x="729" y="-30" on="1"/>
        <pt x="592" y="-30" on="0"/>
        <pt x="362" y="74" on="0"/>
        <pt x="194" y="253" on="0"/>
        <pt x="100" y="494" on="0"/>
        <pt x="100" y="631" on="1"/>
        <pt x="100" y="767" on="0"/>
        <pt x="194" y="1008" on="0"/>
        <pt x="362" y="1186" on="0"/>
        <pt x="592" y="1290" on="0"/>
        <pt x="729" y="1290" on="1"/>
        <pt x="820" y="1290" on="0"/>
        <pt x="985" y="1243" on="0"/>
        <pt x="1125" y="1157" on="0"/>
        <pt x="1238" y="1037" on="0"/>
        <pt x="1317" y="890" on="0"/>
        <pt x="1360" y="722" on="0"/>
      </contour>
    </TTGlyph>
    <TTGlyph name="currency" xMin="158" yMin="279" xMax="804" yMax="924">
      <contour>
        <pt x="363" y="721" on="1"/>
        <pt x="338" y="696" on="0"/>
        <pt x="313" y="633" on="0"/>
        <pt x="313" y="601" on="1"/>
        <pt x="313" y="569" on="0"/>
        <pt x="337" y="508" on="0"/>
        <pt x="362" y="484" on="1"/>
        <pt x="388" y="458" on="0"/>
        <pt x="450" y="434" on="0"/>
        <pt x="482" y="434" on="1"/>
        <pt x="514" y="434" on="0"/>
        <pt x="576" y="458" on="0"/>
        <pt x="601" y="483" on="1"/>
        <pt x="625" y="508" on="0"/>
        <pt x="650" y="570" on="0"/>
        <pt x="650" y="602" on="1"/>
        <pt x="650" y="634" on="0"/>
        <pt x="625" y="696" on="0"/>
        <pt x="600" y="721" on="1"/>
        <pt x="575" y="746" on="0"/>
        <pt x="514" y="770" on="0"/>
        <pt x="482" y="770" on="1"/>
        <pt x="450" y="770" on="0"/>
        <pt x="388" y="746" on="0"/>
      </contour>
      <contour>
        <pt x="738" y="280" on="1"/>
        <pt x="633" y="385" on="1"/>
        <pt x="599" y="362" on="0"/>
        <pt x="522" y="339" on="0"/>
        <pt x="482" y="339" on="1"/>
        <pt x="442" y="339" on="0"/>
        <pt x="364" y="362" on="0"/>
        <pt x="330" y="386" on="1"/>
        <pt x="222" y="279" on="1"/>
        <pt x="189" y="281" on="1"/>
        <pt x="181" y="295" on="0"/>
        <pt x="165" y="327" on="0"/>
        <pt x="158" y="343" on="1"/>
        <pt x="265" y="450" on="1"/>
        <pt x="241" y="483" on="0"/>
        <pt x="218" y="560" on="0"/>
        <pt x="218" y="600" on="1"/>
        <pt x="218" y="640" on="0"/>
        <pt x="242" y="718" on="0"/>
        <pt x="266" y="752" on="1"/>
        <pt x="159" y="860" on="1"/>
        <pt x="161" y="893" on="1"/>
        <pt x="175" y="901" on="0"/>
        <pt x="207" y="917" on="0"/>
        <pt x="223" y="924" on="1"/>
        <pt x="330" y="817" on="1"/>
        <pt x="364" y="841" on="0"/>
        <pt x="442" y="866" on="0"/>
        <pt x="482" y="866" on="1"/>
        <pt x="522" y="866" on="0"/>
        <pt x="598" y="842" on="0"/>
        <pt x="632" y="817" on="1"/>
        <pt x="738" y="923" on="1"/>
        <pt x="772" y="924" on="1"/>
        <pt x="802" y="858" on="1"/>
        <pt x="696" y="752" on="1"/>
        <pt x="720" y="718" on="0"/>
        <pt x="745" y="640" on="0"/>
        <pt x="745" y="600" on="1"/>
        <pt x="745" y="560" on="0"/>
        <pt x="721" y="483" on="0"/>
        <pt x="697" y="449" on="1"/>
        <pt x="803" y="344" on="1"/>
        <pt x="804" y="310" on="1"/>
      </contour>
    </TTGlyph>
    <TTGlyph name="d" xMin="80" yMin="-30" xMax="1051" yMax="1550">
      <contour>
        <pt x="1051" y="84" on="1"/>
        <pt x="1005" y="53" on="0"/>
        <pt x="934" y="10" on="0"/>
        <pt x="881" y="-17" on="0"/>
        <pt x="843" y="-30" on="0"/>
        <pt x="829" y="-30" on="1"/>
        <pt x="796" y="-30" on="0"/>
        <pt x="754" y="60" on="0"/>
        <pt x="747" y="169" on="1"/>
        <pt x="709" y="123" on="0"/>
        <pt x="634" y="49" on="0"/>
        <pt x="555" y="-2" on="0"/>
        <pt x="467" y="-30" on="0"/>
        <pt x="416" y="-30" on="1"/>
        <pt x="360" y="-30" on="0"/>
        <pt x="242" y="35" on="0"/>
        <pt x="143" y="157" on="0"/>
        <pt x="80" y="333" on="0"/>
        <pt x="80" y="444" on="1"/>
        <pt x="80" y="501" on="0"/>
        <pt x="111" y="623" on="0"/>
        <pt x="169" y="737" on="0"/>
        <pt x="253" y="839" on="0"/>
        <pt x="357" y="916" on="0"/>
        <pt x="481" y="960" on="0"/>
        <pt x="551" y="960" on="1"/>
        <pt x="598" y="960" on="0"/>
        <pt x="691" y="937" on="0"/>
        <pt x="745" y="897" on="1"/>
        <pt x="745" y="1274" on="1"/>
        <pt x="745" y="1329" on="0"/>
        <pt x="739" y="1394" on="0"/>
        <pt x="711" y="1429" on="0"/>
        <pt x="653" y="1442" on="0"/>
        <pt x="600" y="1446" on="1"/>
        <pt x="600" y="1485" on="1"/>
        <pt x="682" y="1496" on="0"/>
        <pt x="812" y="1533" on="0"/>
        <pt x="864" y="1550" on="1"/>
        <pt x="895" y="1520" on="1"/>
        <pt x="895" y="254" on="1"/>
        <pt x="895" y="219" on="0"/>
        <pt x="898" y="169" on="0"/>
        <pt x="904" y="135" on="0"/>
        <pt x="912" y="113" on="0"/>
        <pt x="918" y="106" on="1"/>
        <pt x="927" y="95" on="0"/>
        <pt x="978" y="104" on="0"/>
        <pt x="1038" y="127" on="1"/>
      </contour>
      <contour>
        <pt x="745" y="261" on="1"/>
        <pt x="745" y="730" on="1"/>
        <pt x="712" y="787" on="0"/>
        <pt x="592" y="850" on="0"/>
        <pt x="520" y="850" on="1"/>
        <pt x="456" y="850" on="0"/>
        <pt x="350" y="803" on="0"/>
        <pt x="273" y="709" on="0"/>
        <pt x="230" y="569" on="0"/>
        <pt x="230" y="475" on="1"/>
        <pt x="230" y="390" on="0"/>
        <pt x="279" y="251" on="0"/>
        <pt x="355" y="153" on="0"/>
        <pt x="446" y="100" on="0"/>
        <pt x="487" y="100" on="1"/>
        <pt x="521" y="100" on="0"/>
        <pt x="587" y="128" on="0"/>
        <pt x="651" y="173" on="0"/>
        <pt x="714" y="231" on="0"/>
      </contour>
    </TTGlyph>
    <TTGlyph name="dagger" xMin="70" yMin="-40" xMax="907" yMax="1480">
      <contour>
        <pt x="907" y="1074" on="1"/>
        <pt x="893" y="1040" on="0"/>
        <pt x="850" y="955" on="0"/>
        <pt x="825" y="917" on="1"/>
        <pt x="757" y="941" on="0"/>
        <pt x="618" y="962" on="0"/>
        <pt x="534" y="967" on="1"/>
        <pt x="535" y="897" on="0"/>
        <pt x="552" y="749" on="0"/>
        <pt x="571" y="680" on="1"/>
        <pt x="551" y="569" on="0"/>
        <pt x="536" y="346" on="0"/>
        <pt x="534" y="250" on="1"/>
        <pt x="533" y="192" on="0"/>
        <pt x="542" y="60" on="0"/>
        <pt x="547" y="-1" on="1"/>
        <pt x="528" y="-15" on="0"/>
        <pt x="478" y="-32" on="0"/>
        <pt x="453" y="-40" on="1"/>
        <pt x="424" y="-19" on="1"/>
        <pt x="430" y="48" on="0"/>
        <pt x="439" y="189" on="0"/>
        <pt x="438" y="250" on="1"/>
        <pt x="436" y="349" on="0"/>
        <pt x="421" y="570" on="0"/>
        <pt x="401" y="680" on="1"/>
        <pt x="420" y="749" on="0"/>
        <pt x="435" y="898" on="0"/>
        <pt x="437" y="967" on="1"/>
        <pt x="391" y="965" on="0"/>
        <pt x="306" y="957" on="0"/>
        <pt x="223" y="945" on="0"/>
        <pt x="140" y="928" on="0"/>
        <pt x="95" y="917" on="1"/>
        <pt x="70" y="960" on="1"/>
        <pt x="84" y="994" on="0"/>
        <pt x="127" y="1079" on="0"/>
        <pt x="152" y="1117" on="1"/>
        <pt x="219" y="1093" on="0"/>
        <pt x="355" y="1071" on="0"/>
        <pt x="437" y="1067" on="1"/>
        <pt x="435" y="1158" on="0"/>
        <pt x="412" y="1324" on="0"/>
        <pt x="386" y="1398" on="1"/>
        <pt x="424" y="1423" on="0"/>
        <pt x="509" y="1466" on="0"/>
        <pt x="543" y="1480" on="1"/>
        <pt x="586" y="1455" on="1"/>
        <pt x="563" y="1361" on="0"/>
        <pt x="539" y="1163" on="0"/>
        <pt x="535" y="1068" on="1"/>
        <pt x="581" y="1070" on="0"/>
        <pt x="668" y="1077" on="0"/>
        <pt x="752" y="1089" on="0"/>
        <pt x="837" y="1106" on="0"/>
        <pt x="882" y="1117" on="1"/>
      </contour>
    </TTGlyph>
    <TTGlyph name="daggerdbl" xMin="70" yMin="-40" xMax="907" yMax="1480">
      <contour>
        <pt x="907" y="1074" on="1"/>
        <pt x="893" y="1040" on="0"/>
        <pt x="850" y="955" on="0"/>
        <pt x="825" y="917" on="1"/>
        <pt x="756" y="939" on="0"/>
        <pt x="620" y="962" on="0"/>
        <pt x="536" y="967" on="1"/>
        <pt x="537" y="905" on="0"/>
        <pt x="554" y="788" on="0"/>
        <pt x="573" y="720" on="1"/>
        <pt x="555" y="654" on="0"/>
        <pt x="539" y="531" on="0"/>
        <pt x="537" y="473" on="1"/>
        <pt x="583" y="475" on="0"/>
        <pt x="668" y="483" on="0"/>
        <pt x="752" y="495" on="0"/>
        <pt x="837" y="512" on="0"/>
        <pt x="882" y="523" on="1"/>
        <pt x="907" y="480" on="1"/>
        <pt x="893" y="446" on="0"/>
        <pt x="850" y="361" on="0"/>
        <pt x="825" y="323" on="1"/>
        <pt x="758" y="341" on="0"/>
        <pt x="620" y="367" on="0"/>
        <pt x="536" y="372" on="1"/>
        <pt x="537" y="276" on="0"/>
        <pt x="561" y="118" on="0"/>
        <pt x="588" y="42" on="1"/>
        <pt x="550" y="17" on="0"/>
        <pt x="465" y="-26" on="0"/>
        <pt x="431" y="-40" on="1"/>
        <pt x="388" y="-15" on="1"/>
        <pt x="412" y="81" on="0"/>
        <pt x="437" y="271" on="0"/>
        <pt x="439" y="372" on="1"/>
        <pt x="393" y="370" on="0"/>
        <pt x="308" y="361" on="0"/>
        <pt x="224" y="349" on="0"/>
        <pt x="140" y="333" on="0"/>
        <pt x="95" y="323" on="1"/>
        <pt x="70" y="366" on="1"/>
        <pt x="84" y="400" on="0"/>
        <pt x="127" y="485" on="0"/>
        <pt x="152" y="523" on="1"/>
        <pt x="219" y="499" on="0"/>
        <pt x="356" y="477" on="0"/>
        <pt x="439" y="473" on="1"/>
        <pt x="437" y="531" on="0"/>
        <pt x="420" y="655" on="0"/>
        <pt x="403" y="720" on="1"/>
        <pt x="422" y="789" on="0"/>
        <pt x="437" y="905" on="0"/>
        <pt x="439" y="967" on="1"/>
        <pt x="347" y="962" on="0"/>
        <pt x="185" y="937" on="0"/>
        <pt x="95" y="917" on="1"/>
        <pt x="70" y="960" on="1"/>
        <pt x="84" y="994" on="0"/>
        <pt x="127" y="1079" on="0"/>
        <pt x="152" y="1117" on="1"/>
        <pt x="219" y="1093" on="0"/>
        <pt x="356" y="1071" on="0"/>
        <pt x="439" y="1067" on="1"/>
        <pt x="437" y="1162" on="0"/>
        <pt x="411" y="1323" on="0"/>
        <pt x="388" y="1398" on="1"/>
        <pt x="426" y="1423" on="0"/>
        <pt x="511" y="1466" on="0"/>
        <pt x="545" y="1480" on="1"/>
        <pt x="588" y="1455" on="1"/>
        <pt x="568" y="1361" on="0"/>
        <pt x="542" y="1168" on="0"/>
        <pt x="537" y="1068" on="1"/>
        <pt x="629" y="1072" on="0"/>
        <pt x="792" y="1094" on="0"/>
        <pt x="882" y="1117" on="1"/>
      </contour>
    </TTGlyph>
    <TTGlyph name="dcroat" xMin="80" yMin="-31" xMax="1063" yMax="1550">
      <contour>
        <pt x="1051" y="84" on="1"/>
        <pt x="1005" y="53" on="0"/>
        <pt x="934" y="10" on="0"/>
        <pt x="881" y="-18" on="0"/>
        <pt x="843" y="-31" on="0"/>
        <pt x="829" y="-31" on="1"/>
        <pt x="796" y="-31" on="0"/>
        <pt x="754" y="60" on="0"/>
        <pt x="747" y="169" on="1"/>
        <pt x="709" y="123" on="0"/>
        <pt x="634" y="49" on="0"/>
        <pt x="555" y="-2" on="0"/>
        <pt x="467" y="-30" on="0"/>
        <pt x="416" y="-30" on="1"/>
        <pt x="360" y="-30" on="0"/>
        <pt x="242" y="35" on="0"/>
        <pt x="143" y="157" on="0"/>
        <pt x="80" y="333" on="0"/>
        <pt x="80" y="444" on="1"/>
        <pt x="80" y="501" on="0"/>
        <pt x="111" y="623" on="0"/>
        <pt x="169" y="737" on="0"/>
        <pt x="253" y="839" on="0"/>
        <pt x="357" y="916" on="0"/>
        <pt x="481" y="960" on="0"/>
        <pt x="551" y="960" on="1"/>
        <pt x="598" y="960" on="0"/>
        <pt x="691" y="937" on="0"/>
        <pt x="745" y="897" on="1"/>
        <pt x="745" y="1140" on="1"/>
        <pt x="465" y="1140" on="1"/>
        <pt x="442" y="1162" on="1"/>
        <pt x="447" y="1178" on="0"/>
        <pt x="457" y="1214" on="0"/>
        <pt x="465" y="1230" on="1"/>
        <pt x="745" y="1230" on="1"/>
        <pt x="745" y="1274" on="1"/>
        <pt x="745" y="1329" on="0"/>
        <pt x="739" y="1394" on="0"/>
        <pt x="711" y="1429" on="0"/>
        <pt x="653" y="1442" on="0"/>
        <pt x="600" y="1446" on="1"/>
        <pt x="600" y="1485" on="1"/>
        <pt x="682" y="1496" on="0"/>
        <pt x="812" y="1533" on="0"/>
        <pt x="864" y="1550" on="1"/>
        <pt x="895" y="1520" on="1"/>
        <pt x="895" y="1230" on="1"/>
        <pt x="1040" y="1230" on="1"/>
        <pt x="1063" y="1205" on="1"/>
        <pt x="1040" y="1140" on="1"/>
        <pt x="895" y="1140" on="1"/>
        <pt x="895" y="254" on="1"/>
        <pt x="895" y="219" on="0"/>
        <pt x="898" y="169" on="0"/>
        <pt x="904" y="135" on="0"/>
        <pt x="912" y="113" on="0"/>
        <pt x="918" y="106" on="1"/>
        <pt x="927" y="95" on="0"/>
        <pt x="978" y="104" on="0"/>
        <pt x="1038" y="127" on="1"/>
      </contour>
      <contour>
        <pt x="745" y="261" on="1"/>
        <pt x="745" y="730" on="1"/>
        <pt x="712" y="787" on="0"/>
        <pt x="592" y="850" on="0"/>
        <pt x="520" y="850" on="1"/>
        <pt x="456" y="850" on="0"/>
        <pt x="350" y="803" on="0"/>
        <pt x="273" y="709" on="0"/>
        <pt x="230" y="569" on="0"/>
        <pt x="230" y="475" on="1"/>
        <pt x="230" y="390" on="0"/>
        <pt x="279" y="251" on="0"/>
        <pt x="355" y="153" on="0"/>
        <pt x="446" y="100" on="0"/>
        <pt x="487" y="100" on="1"/>
        <pt x="521" y="100" on="0"/>
        <pt x="587" y="128" on="0"/>
        <pt x="651" y="173" on="0"/>
        <pt x="714" y="231" on="0"/>
      </contour>
    </TTGlyph>
    <TTGlyph name="degree" xMin="140" yMin="759" xMax="593" yMax="1235">
      <contour>
        <pt x="484" y="995" on="1"/>
        <pt x="484" y="1024" on="0"/>
        <pt x="469" y="1077" on="0"/>
        <pt x="442" y="1118" on="0"/>
        <pt x="402" y="1142" on="0"/>
        <pt x="378" y="1142" on="1"/>
        <pt x="353" y="1142" on="0"/>
        <pt x="307" y="1122" on="0"/>
        <pt x="271" y="1084" on="0"/>
        <pt x="250" y="1031" on="0"/>
        <pt x="250" y="998" on="1"/>
        <pt x="250" y="970" on="0"/>
        <pt x="264" y="917" on="0"/>
        <pt x="291" y="876" on="0"/>
        <pt x="330" y="851" on="0"/>
        <pt x="355" y="851" on="1"/>
        <pt x="379" y="851" on="0"/>
        <pt x="425" y="870" on="0"/>
        <pt x="462" y="907" on="0"/>
        <pt x="484" y="960" on="0"/>
      </contour>
      <contour>
        <pt x="593" y="1045" on="1"/>
        <pt x="593" y="983" on="0"/>
        <pt x="545" y="879" on="0"/>
        <pt x="469" y="802" on="0"/>
        <pt x="375" y="759" on="0"/>
        <pt x="329" y="759" on="1"/>
        <pt x="288" y="759" on="0"/>
        <pt x="218" y="789" on="0"/>
        <pt x="168" y="841" on="0"/>
        <pt x="140" y="909" on="0"/>
        <pt x="140" y="948" on="1"/>
        <pt x="140" y="1010" on="0"/>
        <pt x="187" y="1115" on="0"/>
        <pt x="263" y="1192" on="0"/>
        <pt x="357" y="1235" on="0"/>
        <pt x="404" y="1235" on="1"/>
        <pt x="443" y="1235" on="0"/>
        <pt x="512" y="1204" on="0"/>
        <pt x="563" y="1152" on="0"/>
        <pt x="593" y="1083" on="0"/>
      </contour>
    </TTGlyph>
    <TTGlyph name="dieresis" xMin="100" yMin="1124" xMax="700" yMax="1356">
      <contour>
        <pt x="700" y="1261" on="1"/>
        <pt x="700" y="1233" on="0"/>
        <pt x="682" y="1183" on="0"/>
        <pt x="651" y="1146" on="0"/>
        <pt x="609" y="1124" on="0"/>
        <pt x="584" y="1124" on="1"/>
        <pt x="539" y="1124" on="0"/>
        <pt x="500" y="1174" on="0"/>
        <pt x="500" y="1220" on="1"/>
        <pt x="500" y="1248" on="0"/>
        <pt x="518" y="1298" on="0"/>
        <pt x="550" y="1335" on="0"/>
        <pt x="591" y="1356" on="0"/>
        <pt x="615" y="1356" on="1"/>
        <pt x="700" y="1356" on="0"/>
      </contour>
      <contour>
        <pt x="300" y="1261" on="1"/>
        <pt x="300" y="1233" on="0"/>
        <pt x="282" y="1183" on="0"/>
        <pt x="251" y="1146" on="0"/>
        <pt x="209" y="1124" on="0"/>
        <pt x="184" y="1124" on="1"/>
        <pt x="139" y="1124" on="0"/>
        <pt x="100" y="1174" on="0"/>
        <pt x="100" y="1220" on="1"/>
        <pt x="100" y="1248" on="0"/>
        <pt x="118" y="1298" on="0"/>
        <pt x="150" y="1335" on="0"/>
        <pt x="191" y="1356" on="0"/>
        <pt x="215" y="1356" on="1"/>
        <pt x="300" y="1356" on="0"/>
      </contour>
    </TTGlyph>
    <TTGlyph name="divide" xMin="61" yMin="231" xMax="778" yMax="896">
      <contour>
        <pt x="499" y="340" on="1"/>
        <pt x="499" y="318" on="0"/>
        <pt x="485" y="278" on="0"/>
        <pt x="460" y="248" on="0"/>
        <pt x="426" y="231" on="0"/>
        <pt x="407" y="231" on="1"/>
        <pt x="372" y="231" on="0"/>
        <pt x="340" y="271" on="0"/>
        <pt x="340" y="308" on="1"/>
        <pt x="340" y="330" on="0"/>
        <pt x="354" y="370" on="0"/>
        <pt x="379" y="399" on="0"/>
        <pt x="413" y="416" on="0"/>
        <pt x="432" y="416" on="1"/>
        <pt x="499" y="416" on="0"/>
      </contour>
      <contour>
        <pt x="499" y="820" on="1"/>
        <pt x="499" y="798" on="0"/>
        <pt x="485" y="758" on="0"/>
        <pt x="460" y="728" on="0"/>
        <pt x="426" y="711" on="0"/>
        <pt x="407" y="711" on="1"/>
        <pt x="372" y="711" on="0"/>
        <pt x="340" y="751" on="0"/>
        <pt x="340" y="788" on="1"/>
        <pt x="340" y="810" on="0"/>
        <pt x="354" y="850" on="0"/>
        <pt x="379" y="879" on="0"/>
        <pt x="413" y="896" on="0"/>
        <pt x="432" y="896" on="1"/>
        <pt x="499" y="896" on="0"/>
      </contour>
      <contour>
        <pt x="778" y="593" on="1"/>
        <pt x="773" y="573" on="0"/>
        <pt x="756" y="524" on="0"/>
        <pt x="748" y="507" on="1"/>
        <pt x="86" y="507" on="1"/>
        <pt x="61" y="531" on="1"/>
        <pt x="66" y="551" on="0"/>
        <pt x="83" y="597" on="0"/>
        <pt x="92" y="617" on="1"/>
        <pt x="754" y="617" on="1"/>
      </contour>
    </TTGlyph>
    <TTGlyph name="dollar" xMin="88" yMin="-174" xMax="862" yMax="1384">
      <contour>
        <pt x="225" y="958" on="1"/>
        <pt x="225" y="920" on="0"/>
        <pt x="257" y="863" on="0"/>
        <pt x="313" y="817" on="0"/>
        <pt x="389" y="780" on="0"/>
        <pt x="432" y="763" on="1"/>
        <pt x="432" y="1115" on="1"/>
        <pt x="374" y="1113" on="0"/>
        <pt x="295" y="1084" on="0"/>
        <pt x="246" y="1040" on="0"/>
        <pt x="225" y="985" on="0"/>
      </contour>
      <contour>
        <pt x="727" y="324" on="1"/>
        <pt x="727" y="371" on="0"/>
        <pt x="695" y="443" on="0"/>
        <pt x="639" y="498" on="0"/>
        <pt x="564" y="540" on="0"/>
        <pt x="522" y="558" on="1"/>
        <pt x="522" y="113" on="1"/>
        <pt x="562" y="118" on="0"/>
        <pt x="636" y="153" on="0"/>
        <pt x="693" y="208" on="0"/>
        <pt x="727" y="281" on="0"/>
      </contour>
      <contour>
        <pt x="522" y="-143" on="1"/>
        <pt x="513" y="-151" on="0"/>
        <pt x="500" y="-160" on="0"/>
        <pt x="487" y="-166" on="0"/>
        <pt x="471" y="-171" on="0"/>
        <pt x="459" y="-174" on="1"/>
        <pt x="432" y="-152" on="1"/>
        <pt x="432" y="-10" on="1"/>
        <pt x="384" y="-9" on="0"/>
        <pt x="302" y="3" on="0"/>
        <pt x="224" y="29" on="0"/>
        <pt x="146" y="68" on="0"/>
        <pt x="102" y="96" on="1"/>
        <pt x="95" y="101" on="0"/>
        <pt x="88" y="158" on="0"/>
        <pt x="88" y="233" on="0"/>
        <pt x="94" y="312" on="0"/>
        <pt x="102" y="340" on="1"/>
        <pt x="145" y="336" on="1"/>
        <pt x="193" y="233" on="0"/>
        <pt x="341" y="126" on="0"/>
        <pt x="432" y="114" on="1"/>
        <pt x="432" y="593" on="1"/>
        <pt x="370" y="616" on="0"/>
        <pt x="251" y="666" on="0"/>
        <pt x="156" y="737" on="0"/>
        <pt x="98" y="837" on="0"/>
        <pt x="98" y="911" on="1"/>
        <pt x="98" y="953" on="0"/>
        <pt x="131" y="1050" on="0"/>
        <pt x="209" y="1135" on="0"/>
        <pt x="337" y="1199" on="0"/>
        <pt x="432" y="1210" on="1"/>
        <pt x="432" y="1356" on="1"/>
        <pt x="446" y="1364" on="0"/>
        <pt x="458" y="1372" on="0"/>
        <pt x="468" y="1377" on="0"/>
        <pt x="481" y="1380" on="0"/>
        <pt x="496" y="1384" on="1"/>
        <pt x="522" y="1362" on="1"/>
        <pt x="522" y="1214" on="1"/>
        <pt x="568" y="1213" on="0"/>
        <pt x="655" y="1200" on="0"/>
        <pt x="731" y="1176" on="0"/>
        <pt x="791" y="1143" on="0"/>
        <pt x="811" y="1124" on="1"/>
        <pt x="817" y="1117" on="0"/>
        <pt x="802" y="1080" on="0"/>
        <pt x="774" y="1037" on="0"/>
        <pt x="740" y="995" on="0"/>
        <pt x="727" y="983" on="1"/>
        <pt x="688" y="991" on="1"/>
        <pt x="648" y="1037" on="0"/>
        <pt x="564" y="1093" on="0"/>
        <pt x="522" y="1105" on="1"/>
        <pt x="522" y="728" on="1"/>
        <pt x="584" y="704" on="0"/>
        <pt x="706" y="648" on="0"/>
        <pt x="802" y="567" on="0"/>
        <pt x="862" y="456" on="0"/>
        <pt x="862" y="377" on="1"/>
        <pt x="862" y="317" on="0"/>
        <pt x="819" y="193" on="0"/>
        <pt x="733" y="87" on="0"/>
        <pt x="606" y="9" on="0"/>
        <pt x="522" y="-4" on="1"/>
      </contour>
    </TTGlyph>
    <TTGlyph name="dotaccent" xMin="100" yMin="1124" xMax="300" yMax="1356">
      <contour>
        <pt x="300" y="1261" on="1"/>
        <pt x="300" y="1233" on="0"/>
        <pt x="282" y="1183" on="0"/>
        <pt x="251" y="1146" on="0"/>
        <pt x="209" y="1124" on="0"/>
        <pt x="184" y="1124" on="1"/>
        <pt x="139" y="1124" on="0"/>
        <pt x="100" y="1174" on="0"/>
        <pt x="100" y="1220" on="1"/>
        <pt x="100" y="1248" on="0"/>
        <pt x="118" y="1298" on="0"/>
        <pt x="150" y="1335" on="0"/>
        <pt x="191" y="1356" on="0"/>
        <pt x="215" y="1356" on="1"/>
        <pt x="300" y="1356" on="0"/>
      </contour>
    </TTGlyph>
    <TTGlyph name="dotbelowcomb" xMin="-615" yMin="-416" xMax="-415" yMax="-184">
      <contour>
        <pt x="-415" y="-279" on="1"/>
        <pt x="-415" y="-307" on="0"/>
        <pt x="-433" y="-357" on="0"/>
        <pt x="-464" y="-394" on="0"/>
        <pt x="-506" y="-416" on="0"/>
        <pt x="-531" y="-416" on="1"/>
        <pt x="-576" y="-416" on="0"/>
        <pt x="-615" y="-366" on="0"/>
        <pt x="-615" y="-320" on="1"/>
        <pt x="-615" y="-292" on="0"/>
        <pt x="-597" y="-242" on="0"/>
        <pt x="-565" y="-205" on="0"/>
        <pt x="-524" y="-184" on="0"/>
        <pt x="-500" y="-184" on="1"/>
        <pt x="-415" y="-184" on="0"/>
      </contour>
    </TTGlyph>
    <TTGlyph name="dotlessi" xMin="70" yMin="0" xMax="500" yMax="960">
      <component glyphName="i.Dotless" x="0" y="0" flags="0x0"/>
    </TTGlyph>
    <TTGlyph name="e" xMin="80" yMin="-30" xMax="866" yMax="960">
      <contour>
        <pt x="496" y="855" on="1"/>
        <pt x="444" y="855" on="0"/>
        <pt x="357" y="815" on="0"/>
        <pt x="290" y="742" on="0"/>
        <pt x="245" y="641" on="0"/>
        <pt x="236" y="580" on="1"/>
        <pt x="664" y="580" on="1"/>
        <pt x="687" y="580" on="0"/>
        <pt x="702" y="595" on="0"/>
        <pt x="702" y="616" on="1"/>
        <pt x="702" y="643" on="0"/>
        <pt x="687" y="724" on="0"/>
        <pt x="642" y="801" on="0"/>
        <pt x="561" y="855" on="0"/>
      </contour>
      <contour>
        <pt x="866" y="557" on="1"/>
        <pt x="848" y="537" on="0"/>
        <pt x="788" y="503" on="0"/>
        <pt x="756" y="490" on="1"/>
        <pt x="230" y="490" on="1"/>
        <pt x="231" y="412" on="0"/>
        <pt x="272" y="271" on="0"/>
        <pt x="349" y="164" on="0"/>
        <pt x="458" y="100" on="0"/>
        <pt x="526" y="100" on="1"/>
        <pt x="557" y="100" on="0"/>
        <pt x="616" y="108" on="0"/>
        <pt x="684" y="136" on="0"/>
        <pt x="767" y="190" on="0"/>
        <pt x="823" y="236" on="1"/>
        <pt x="836" y="229" on="0"/>
        <pt x="855" y="203" on="0"/>
        <pt x="860" y="195" on="1"/>
        <pt x="793" y="122" on="0"/>
        <pt x="692" y="33" on="0"/>
        <pt x="603" y="-15" on="0"/>
        <pt x="516" y="-30" on="0"/>
        <pt x="465" y="-30" on="1"/>
        <pt x="388" y="-30" on="0"/>
        <pt x="249" y="36" on="0"/>
        <pt x="143" y="157" on="0"/>
        <pt x="80" y="328" on="0"/>
        <pt x="80" y="434" on="1"/>
        <pt x="80" y="501" on="0"/>
        <pt x="110" y="631" on="0"/>
        <pt x="167" y="747" on="0"/>
        <pt x="249" y="845" on="0"/>
        <pt x="301" y="881" on="1"/>
        <pt x="323" y="896" on="0"/>
        <pt x="378" y="925" on="0"/>
        <pt x="438" y="947" on="0"/>
        <pt x="497" y="960" on="0"/>
        <pt x="524" y="960" on="1"/>
        <pt x="589" y="960" on="0"/>
        <pt x="691" y="924" on="0"/>
        <pt x="767" y="863" on="0"/>
        <pt x="819" y="782" on="0"/>
        <pt x="852" y="692" on="0"/>
        <pt x="866" y="599" on="0"/>
      </contour>
    </TTGlyph>
    <TTGlyph name="eacute" xMin="80" yMin="-30" xMax="866" yMax="1489">
      <component glyphName="e" x="0" y="0" flags="0x0"/>
      <component glyphName="acutecomb" x="1053" y="0" flags="0x0"/>
    </TTGlyph>
    <TTGlyph name="ebreve" xMin="80" yMin="-30" xMax="866" yMax="1405">
      <component glyphName="e" x="0" y="0" flags="0x0"/>
      <component glyphName="uni0306" x="1025" y="0" flags="0x0"/>
    </TTGlyph>
    <TTGlyph name="ecaron" xMin="80" yMin="-30" xMax="866" yMax="1475">
      <component glyphName="e" x="0" y="0" flags="0x0"/>
      <component glyphName="uni030C" x="1024" y="0" flags="0x0"/>
    </TTGlyph>
    <TTGlyph name="ecircumflex" xMin="80" yMin="-30" xMax="866" yMax="1471">
      <component glyphName="e" x="0" y="0" flags="0x0"/>
      <component glyphName="uni0302" x="1024" y="0" flags="0x0"/>
    </TTGlyph>
    <TTGlyph name="edieresis" xMin="80" yMin="-30" xMax="866" yMax="1356">
      <component glyphName="e" x="0" y="0" flags="0x0"/>
      <component glyphName="uni0308" x="1025" y="0" flags="0x0"/>
    </TTGlyph>
    <TTGlyph name="edotaccent" xMin="80" yMin="-30" xMax="866" yMax="1356">
      <component glyphName="e" x="0" y="0" flags="0x0"/>
      <component glyphName="uni0307" x="1025" y="0" flags="0x0"/>
    </TTGlyph>
    <TTGlyph name="egrave" xMin="80" yMin="-30" xMax="866" yMax="1489">
      <component glyphName="e" x="0" y="0" flags="0x0"/>
      <component glyphName="gravecomb" x="943" y="0" flags="0x0"/>
    </TTGlyph>
    <TTGlyph name="eight" xMin="94" yMin="-30" xMax="867" yMax="1235">
      <contour>
        <pt x="275" y="950" on="1"/>
        <pt x="275" y="906" on="0"/>
        <pt x="318" y="841" on="0"/>
        <pt x="390" y="790" on="0"/>
        <pt x="483" y="747" on="0"/>
        <pt x="533" y="725" on="1"/>
        <pt x="606" y="778" on="0"/>
        <pt x="667" y="884" on="0"/>
        <pt x="667" y="938" on="1"/>
        <pt x="667" y="990" on="0"/>
        <pt x="636" y="1067" on="0"/>
        <pt x="580" y="1117" on="0"/>
        <pt x="500" y="1141" on="0"/>
        <pt x="451" y="1141" on="1"/>
        <pt x="406" y="1141" on="0"/>
        <pt x="340" y="1107" on="0"/>
        <pt x="297" y="1052" on="0"/>
        <pt x="275" y="984" on="0"/>
      </contour>
      <contour>
        <pt x="707" y="309" on="1"/>
        <pt x="707" y="375" on="0"/>
        <pt x="660" y="469" on="0"/>
        <pt x="584" y="537" on="0"/>
        <pt x="486" y="587" on="0"/>
        <pt x="434" y="610" on="1"/>
        <pt x="386" y="575" on="0"/>
        <pt x="318" y="508" on="0"/>
        <pt x="275" y="438" on="0"/>
        <pt x="254" y="360" on="0"/>
        <pt x="254" y="315" on="1"/>
        <pt x="254" y="263" on="0"/>
        <pt x="288" y="173" on="0"/>
        <pt x="352" y="107" on="0"/>
        <pt x="443" y="70" on="0"/>
        <pt x="500" y="70" on="1"/>
        <pt x="555" y="70" on="0"/>
        <pt x="634" y="112" on="0"/>
        <pt x="684" y="180" on="0"/>
        <pt x="707" y="265" on="0"/>
      </contour>
      <contour>
        <pt x="867" y="352" on="1"/>
        <pt x="867" y="274" on="0"/>
        <pt x="801" y="136" on="0"/>
        <pt x="687" y="31" on="0"/>
        <pt x="536" y="-30" on="0"/>
        <pt x="451" y="-30" on="1"/>
        <pt x="365" y="-30" on="0"/>
        <pt x="233" y="22" on="0"/>
        <pt x="141" y="110" on="0"/>
        <pt x="94" y="223" on="0"/>
        <pt x="94" y="285" on="1"/>
        <pt x="94" y="339" on="0"/>
        <pt x="131" y="440" on="0"/>
        <pt x="200" y="531" on="0"/>
        <pt x="297" y="611" on="0"/>
        <pt x="357" y="644" on="1"/>
        <pt x="314" y="664" on="0"/>
        <pt x="237" y="712" on="0"/>
        <pt x="179" y="776" on="0"/>
        <pt x="145" y="859" on="0"/>
        <pt x="145" y="915" on="1"/>
        <pt x="145" y="984" on="0"/>
        <pt x="200" y="1102" on="0"/>
        <pt x="296" y="1187" on="0"/>
        <pt x="427" y="1235" on="0"/>
        <pt x="502" y="1235" on="1"/>
        <pt x="577" y="1235" on="0"/>
        <pt x="694" y="1195" on="0"/>
        <pt x="775" y="1125" on="0"/>
        <pt x="817" y="1027" on="0"/>
        <pt x="817" y="969" on="1"/>
        <pt x="817" y="927" on="0"/>
        <pt x="786" y="852" on="0"/>
        <pt x="732" y="783" on="0"/>
        <pt x="657" y="719" on="0"/>
        <pt x="613" y="688" on="1"/>
        <pt x="663" y="664" on="0"/>
        <pt x="755" y="605" on="0"/>
        <pt x="825" y="525" on="0"/>
        <pt x="867" y="421" on="0"/>
      </contour>
    </TTGlyph>
    <TTGlyph name="ellipsis" xMin="131" yMin="-40" xMax="1269" yMax="236">
      <component glyphName="period" x="0" y="0" flags="0x0"/>
      <component glyphName="period" x="450" y="0" flags="0x0"/>
      <component glyphName="period" x="900" y="0" flags="0x0"/>
    </TTGlyph>
    <TTGlyph name="emacron" xMin="80" yMin="-30" xMax="866" yMax="1305">
      <component glyphName="e" x="0" y="0" flags="0x0"/>
      <component glyphName="uni0304" x="1035" y="0" flags="0x0"/>
    </TTGlyph>
    <TTGlyph name="emdash" xMin="61" yMin="455" xMax="1508" yMax="570">
      <contour>
        <pt x="1508" y="546" on="1"/>
        <pt x="1503" y="524" on="0"/>
        <pt x="1486" y="472" on="0"/>
        <pt x="1478" y="455" on="1"/>
        <pt x="86" y="455" on="1"/>
        <pt x="61" y="479" on="1"/>
        <pt x="66" y="501" on="0"/>
        <pt x="83" y="550" on="0"/>
        <pt x="92" y="570" on="1"/>
        <pt x="1484" y="570" on="1"/>
      </contour>
    </TTGlyph>
</ttFont>
